<mxfile host="65bd71144e">
    <diagram id="pbWOTw1PdBrXS-HheaHI" name="Page-1">
        <mxGraphModel dx="261" dy="295" grid="1" gridSize="10" guides="1" tooltips="1" connect="1" arrows="1" fold="1" page="1" pageScale="1" pageWidth="850" pageHeight="1100" math="0" shadow="0">
            <root>
                <mxCell id="0"/>
                <mxCell id="1" parent="0"/>
                <mxCell id="9" style="edgeStyle=none;html=1;entryX=0;entryY=0.5;entryDx=0;entryDy=0;startArrow=classic;startFill=1;endArrow=none;endFill=0;" edge="1" parent="1" source="3" target="4">
                    <mxGeometry relative="1" as="geometry"/>
                </mxCell>
                <mxCell id="11" value="simuler le rendu&lt;br&gt;des composants" style="edgeLabel;html=1;align=center;verticalAlign=middle;resizable=0;points=[];" vertex="1" connectable="0" parent="9">
                    <mxGeometry x="0.1489" y="-1" relative="1" as="geometry">
                        <mxPoint as="offset"/>
                    </mxGeometry>
                </mxCell>
                <mxCell id="14" style="edgeStyle=orthogonalEdgeStyle;rounded=0;html=1;exitX=1;exitY=0.25;exitDx=0;exitDy=0;startArrow=none;startFill=0;endArrow=none;endFill=0;" edge="1" parent="1" source="3">
                    <mxGeometry relative="1" as="geometry">
                        <mxPoint x="280" y="140" as="targetPoint"/>
                    </mxGeometry>
                </mxCell>
                <mxCell id="3" value="Jest" style="shape=image;verticalLabelPosition=bottom;labelBackgroundColor=default;verticalAlign=top;aspect=fixed;imageAspect=0;image=data:image/png,iVBORw0KGgoAAAANSUhEUgAAAlgAAAJYCAYAAAC+ZpjcAABZS0lEQVR42uzZA65oVwBG4V28wdSIa2sIlWZR27YbNWpHUNtGVFsKa6za5jv73u9L1gwO97/uAP6U6uIAWCn2GsDaV+0cACvBu9WaAax91XrVmwEwuysHsBzVRQEwuz0GsBzVjgEws3eWOQ+CmfCNAJjVFQNYnurCAJjV7gNYnmqHAJjR29X6A1ieat3q9QCYzWUDWK7qggCYza4DWK5q+wCYyVtzzINgJnwtAGZx6QCWrzovAGaxywCWr9ouAGbwZrXeAKaZCV8NgKW7eADzqM4NgKXbaQDzqLYJgCV7Y7J5EKjWqV4JgKW6aADzqc4JgKXacQDzqbYOgCV6vVp3ANPOhC8HwNJcMIB5VWcHwNLsMIB5VVsGwJK8uALmQaB6NgCW4vSxFq07gH/LVQOApbh6APOrNg6AJXipWmcAK0P1TACsbaeNL5kIYZHMhADmQR9Y4KYG4KUve2AAK0v1VACsLaeMP+AEC8yEAFgSgGrzAFgbXhjAylU9EQD/t5PHn2QiBEfUAHj2AtWmAfB/em4AK1/1eAD8X04cS2EiBEfVz9/14Lh0530l6RddscdB4+P3PxiTuGYAK1+1SRP45MOPumKvg7tkp30k6Sddd/Q5TeLZAawe1aNN4KYTL/QykfSLnrnlniZxwgBWj+rwJvD8XQ95mUj6SZfvcWBfzoNNYrMBrB7VxjPOhJJ0/THnNolnBrD6VI80gZtOushLRdL3PXPrvU3i+AGsPtWhTeCFu82EkqacBzcdwOpTbdgEPvnITCjpm64/9twm8dQAVq/q4SZw88kXe7lIX7B3DzCWdVkAhU84tm0ptvTbtm3btqW2bdu2bduq7qpakzNGS1X19n3rS1Y8uudP9uTueucai4aNI4jnk6TyBTxGAEvHTC7zwWJmDU+7jn279xDEn5Ok8gX8gQAqK/bS6Iwbyni4mNmAFz4kiHlJkoBJBDD4tc8cMmauByN4LkkS8GiMNeGU8hwsZpZ/6BJpPfinJEnA78OsCc+8sQyHi5kNfPFDgpibJCnLgAkEMOT1emU4XMxs8YgJBPFMkqQsAx4hgGXjppbjcDFzPbingiD+kiQpy4DfEkDl3n00Pss1oVk5NfCljwhiRpKk/wWMJ4Ahb7gmNCunFo+cQBBPJ0n6X8BDBLB8vGtCs7JaD1ZU+OtBSXEBv3FNaGal1KCXPyaIaUmSDgQYRwBD36xfBsPFzJaMmkQQTyZJOhDgwRhrwmkFHyxmlj+Ple+/C+KPSZIOBPg1AVTty2vCmwo8XMxs0CufEMTUJEmHAowlgKFvNSjwcDGzpaMnEcQTSZIOBXiAAJZPmF7MwWJm+bNYkdaDv0+SdCjAr8KsCc92TWhWxAa/9ilBTE6SdLiA0QQw7O2GBRwuZrZ0zBSCeCxJ0uEC7ieAFZNmFGywmFm+5y7fdxfE75IkHS7glwRQVVlJk3NuLtRwMXM9+BlBTEqSdKSAUQQw7B3XhGZFatnYKQTxaJKkIwXcSwArJ80szGAxcz14U6T14G+TJB0p4Odh1oTn3lKA4WJmQ96oRxATkiQdLWAkAQx/p1EBhouZLRs3lSAeSZJ0tIB7CGDlZNeEZtHL99rl++2C+HWSpKMF/CzGmrCKpq4JzUI39M36BDE+SdKxAkYQwPD3GgceLma2fPw0gngoSdKxAu4mgJVTZsUcLGaW77OLtB78VZKkYwX8NMya8LxbAw4XMxv6VgOCGJck6XgBhhHAiPebBBwuZrZ8wnSCeDBJ0vEC3EUAq6bODjZYzCzfY5fvswvil0mSjhfgJ0B1iDXh+bcFGi5mNuzthgQxJknS8QYMjbEmbBpouJjZikkzCOL+JEnHG3AHAayeNifIYDGzprHWgz9PknS8AT+OsCasrqqi2QWuCc0iNOydhgQxOklSTQGGEMDID1wTFq38f5pbX3Gfz6JgrZw0kyDuS5JUU4DbCWD19LkFG0Q2tW1PZvcc7LMoUPneuvzDlCB+liSppgA/irMmvL1Aw8i/09m7azeVe/fR4pK7fCYFafi7jQliZJKkmgYMJoCRHzUvyCCySS27kmUzOvfzmRSk/HmrIO5JklTTgNsIYPUM14RFqPHZN1GxcxdZtq+iwreT8cv31UVZD1YDP02SVNOAH0ZZEza/8I7gg8gmNO3I/8h/j+WzCd7w9xoTxIgkSbUFGEgAo1wThq7RmTeyZ/sO/kf+e6z8eRWfUeDyZ62CuDtJUm0BbiWANTPnBR5CNq5hOw5kYvPOPqPAV25UV4VZD/44SVJtAX4AVFHiqquraX6Ra8KINTz9enZv2caBVGzfSeOzbvRZBSx/ziqIYUmSahswgABGfdwi4BCyMZ+14hDyGy6fVcDy56yCuCtJUm0DbiaAtbPmBxtA1uDUa9m1aQuHkN9w5TddPrNQ68HbI60Hf5QkqbYB3w+zJrz4zkBDyPIdZodr9CctfWaByp+xCmJokqS6AvQngNGfuCaMUv1TrmHH+k0crp0bN9PglGt9dkHKn7EK4o4kSXUFuCnGmnBBcYeWn0/JfzTtswtQvpcu0Hrwh0mS6grwvShrwhYX+w27Uq/+SVezfc16jtT2tRvyv9ZnGGD1G8TgJEl1DehHAKM/bVXiA8iGvlmfo5T/tT7DEi9/viqI25Mk1TXgRgJYO9s1YSlX78Sr2LpyLUdr68o11DvxSp9liZbvo8tvkgOoAn6QJKmuAd8FKkOsCS9xTViqDX71U47VoJc/9lmWaKPirAcHJUkqFUAfAhjzmWvCkuyEK9m8bBXHatOSFfnfy+dZguXPVgVxa5KkUgHcQADr5i4qweFjA174kOOl/3Pv+UxLq/wDk0jrwe8nSSoVwHeASgJoeendJTaAbNPi5RwvGxYs8ZmWWPlzVUEMTJJUaoDeBDCmXusSGj7W79n3ON56P/Gmz7aEyp+rCuKWJEmlBriOANa7Jiyl8hunAl8say0uCbUe/F6SpFIDfNs1oR1JfZ54i5rS46FXfMYlUP5WZBD9kySVKqAXAYyt16YEho+tm7OQmrJq6myfcQmU758L4qYkSaUKuJYA1s9bXMeDx3o9+ho1res9z/us6678pjjKerAS+G6SpFIFfAvYRwAtL7unDoePrZkxj5q2fPxUn3Udlj9PFUS/JEmlDuhJAGMbtK2jwWPdH3iZ2tLptqeiPR9XwLXvxiRJpQ64hgDWz/e+pLpq5ZRZ1JYlIyf6zOtoPRhEJfCdJEmlDvhmlDVhqyvurd3BY/nvomr9G5Ttb3zUZ1/L5fvmguiTJCkKoDsBjGvYrpYHjy2fMJ3atnDIGJ99LZfvmwvi+iRJUQBXE8CGBUtrcehY5zueoS5UV1XR9poHPYNaqtXl9xLEPuDbSZKiAL4B7CWA1lfcV0uDx5aOmUxdmdtvuGdQS+V75oLonSQpGqAb/+Ca0Dre8gR1qaqy0r+5q6XyPXNBXJckKRrgSgLYuHBZLQwdWzx8PHVtVo9BnkUN1+qKUOvBbyVJigb4epg14ZX319zQsfwrvpK40bty7z5aXHyXZ1KD5fvlguiZJCkqoCsBjG/UvgaHjuVf8ZWK6Z36eCY1WL5fLohrkyRFBVxBABsXuSasqdpd9zD5V3ylYl9FBc0vvMOzqYFaX3U/QewFvpEkKfiasIIA8nA4/kPH5g8cxeGI/xbL8g9GguiRJCk6oAsBjG/SoQaGjm80qiqrKDX7du+h6bm3eEbHuXyvXBBXJ0mKDricADYuXn6cB47lu6dK1ZQ23T0j14OSFBfwtShrwjZXP3Ach463eee7p0pVxY6dND7rJs/qOJV/KBJE9yRJRQF0IoAJTToep4Fjs3sOptRNbNbJszpO5fvkgrgqSVJRAJeVz6Wj1uKSu8h3TpW63Vu30/D06z2zYyy/+Q2iAvh6kqSiAL4K7CGAfK3AsQ0cm9m1P0HkizE9s2NsfOMOBNE1SVLRAB0JYEJT14THUr5jqrJiL1Hs2rSFBqde69kdQ/kHIkFckSSpaIBLin/pqE3v2IdoRn3cwrM76vXgg5HWg19LklQ0wFeirAnb3/DIUQwba3r+beQ7pqLZsW4j9U++2jM8ivL9cUF0SZJUVEAHoKC/LrMpbXsQ1fB3G3uGR1F+4xvE5UmSigq4mAA2HfGlo9bk3FvYu2s3UW1dtZZ6J17lWR7hdyaD2AN8NUlSwdeEuwmg/Y2PHsGwsUktuhDdkNfreZZHUP5BSBCdkiQVHdCeACY273yYg8byjegV23cS3eZlK/nshCs908Msv+kN4tIkSUUHXEQAm5asOMxBY/kG/KIY+NJHnulh1O76RwhiN/CVJElFB3wZ2BVjTfjYIQaNNTrjBvKN6Eci/m3+ln8IEkTHJEnlAmhLAPnvig4+aCzfhF40/Z5517M9RHmdGsQlSZLKBXAhAWxeuvIgQ8YannYduzZvpWjWzVno+R64/AOQSOvBLydJKhfAl6KsCTvc5JrwQI3+tBVF1fuxNzzjA5R/ABJE+yRJ5QZoQwCTWnbdz5CxBqdcy86Nmymq1dPmeM4HKL/ZDeLiJEnlBjg/xk/3V+1nyNjID5tRdN0feNmz/p/yDz+C2AV8KUlSuQG+COwkgI63PPEfQ8byd/u2r9tA0a2cPDPuOXmhbLskSeUKaE0Ak1u5JvzPhr/TiHLR+fanPfP/KL/RDeLCJEnlCjiPALYsX/2PAWP1T7qabavXUS6WjZ3iuf+jDjc/ThA7Y60HJck1Ydk39M36ROQvSY+9/CY3iDZJksod0IoAJrfuXvYDtt6JV7JlxWrKzeLh48v+7HP5TW4QFyRJKnfAuQSwZYVrwkGvfEI5qq6upu11D5fz2ec3uJHWg19MklTugC8AOwig461Plu+QPeFK8v1H5Wr+wFFlvh7sRhCtkyTp74AWBDClTfmuCQe88AHlrKqyitZX3Fe257915RqCOC9Jkv4OOIcA8pAp1wG7ceEyyt2c3kPL8uzzm9sgdgBfSJKk/1oTbieATrc9VXYDtt8z7wKq2rePlpfeXX7rwdbdCaJVkiT9N6A5AUxp26PsBuz6uYsAZTO7DSjD9eBagjg3SZL+G3AWAeRhU07DtfcTb6J/21dRQbMLbi+b889vbIPYvp/1oCQJ+Dywzc+nlFZrZ81H/21ah95lc/75jW0QLZIkaf+AZgQwtW3PshiuPR95Df2/vbt20/TcW8pjPbhqLUGcnSRJ+wecSQD5W3zlMFxXT5uD9ivfC1X4889vaoPYBnw+SZL2D/hcmDXhHc8Uerh2v/8ldGAVO3bS+KybCv3PQH5TG0TzJEk6OKApAUxt36vQw3Xl5Jno4CY06Vjofwa2rVlPEGclSdLBAWcQQB4+RR2sXe56Fh3a7i3baHj69cVcD97xDEFsBT6XJEmHtSbcSgCd7yzmmnD5+Kno8Iyt16aY68H2vQiiaZIkHR6gMQFMa9+rzO890s6NW2hw6rWF++dge5z14BlJknR4gNMJYHsB14RLR09CR2bkR82LtR688xmC2OJ6UPore/cA7Mq2AGF4nm3bts1r27alY9u2bdu2bdvW5v9qvWsh2ZNk+tz+qlIWuqqn0mvNmKUA+CBwBAFDHq1y1hTrgPvKYqk7vu8A7c+//azJQfhnVkSXyMzMUgN0Iqv8Vu9N0+Zh6ZnWuOPZMw/uPYCIiyMzM0sNcCECQhmdDaXa765SFBcXY+l/o7Ldubf5Bml258EPRmZmltZMeBgBQx+vKl+sGybPxkpmct028jlYPnAMIjpFZmaWHqAjAkIpKZdqn9ufpbioCCuZw1t30vacW6WzEM6TibgoMjOz9AAXiBxyli7VdeOmY/GYUL2FbA7CP7EiDgMfiMzMLD3AB4BDCBj6RDXJUu19y1MUFRZh8TiwYavuPDhoDCI6RmZmVjJABwQsHzRWslRXj5qMxWtspcaSWTix7yAiLojMzKxkgPMREMpJrVB73vg4RQUFWLz2rt4gl4XwD6yIQ54Hzcw8Eyb6t3LYBCwzRpWpK5WFFYPHIaJDZGZm8QDaISCUlEqhdr/+UQrz8rHM2LV0tUwWws3HkwcOIeL8yMzM4gGcp/Hh38M+0Jw5xxAz/OkaElkY9mR1RBwA3h+ZmVk8gPcDBxEQyirphdrtmocoOJOHmNLASITsWLRCYx4cMg4R7SIzM4sX0BYBoaySXqhL+45EzCHgE8DfETP44UrJnwcPHkbEuZGZmcULOAcB4SxLkt/m3fXKB8g/dRoxFV6Rg4kI2TpncaIfsMKM6XnQzMwz4QFKxGdvFvcaipgjwKdfkYP/IKb/vWWTe5N06HhEtI3MzCwzgDYICKWVxDLtfPl95J04iZhqb5CDOQjZNG1egufBI4g4JzIzs8wA/itymzCRM+GCrgMRcxz43Bvk4CKEhA9p973zuQTOgzURsR94X2RmZpkBvA/Yj4BQXkkq006X3suZ4ycQU/stsrAYIesnzPSLZtPXOjIzs8wCWiMglFeSynRex36IOQl88S1ycBVCigqLwoe1E5OHdufeyqlDRxDxn8jMzDJD7JBzONuSmJmw48V3c/rIMcQ0fJscvAdYhZA1o6ckZx58phYi9mVvHjQz80y4DwGhxJJQpnPa9kLMGeAr7yALNyEkfFi7xw2PJSITq4ZPRESryMzMsgNoiYBQYrku0g4X3kn4N01M8xQetjfwAt8wTWEePHwUEf+OzMwsO4B/IyCccQlllssyndmyO2LygG+kkIU7EVKQl0e3ax7OaSZGPFcbEXuzPw+amXkm3IuAEc/mbiZsf8EdnNh/CDFtUszCB4BtCFnaf1ROH7BWj5iEiBaRmZllF9ACAatGTMpZkU5v2hkxBcB30sjCgwgJnyrqcuUDOZoHb1O68PCvyMzMsgv4JwLCWZdczITtz7ud43v2I6ZTmln4MLAbIYt6Ds3JA9bI5+ogYg/w3sjMzLILeC+wBwGh1LJdpFMbtEdMIfCDEuThSYTkHT9J58vuzf48OHKy1kUHMzPLPqA5AsKZl2zPQEd37kVMjxJm4WPAfoTM7zzA8+Cb+0dkZma5AfwDAaHUQrllq0gn12mDmGLgpzHkoQw6Qi7CS2CzNw+WrouIXbmfB83MPBPuRsDIUlmaCc+5lcPbdiGmb0x5+BRwBB3hJbBZe8AKb5IX0TQyM7PcApohYPWoyVkp0Yk1WiCmGPhVjHmogpCTBw/T4YI7s3Lp4fTR44j4e2RmZrkF/J2XeCY8uHk7YgbHnIfPAccRMrN514znYlSZuojYmZx50MzMM+EuBIQzMJks0XFVmiLo9xnIRB2EHN97gPbn357heXAqIppEZmaWDEATBIQzMJks0f3rtyBmRIby8CXgNEKmNuyQ0XnwzLETiPhrZGZmyQD8DQHhDEymZsIxFRoi6C+SD93xC6/VyNgLaUeXrY+IHcB7IjMzSwbgPcBOBIwqk5mZcO/qDYgZl+FMfB3IQ0d4vUZGsrF2zFRENI7MzCxZgMYaM+FUzQPM8ftnFjLRBiGHtuwIr9mINRvhbNeZ4yd0/tE0M7NkAf6CgHAWJpyJibNEd69Yi5gpWcrEd4FChIyv1izeebBcfURsT+48aGbmmXAHAsKZmLgKdPgztRB0ThZz0RkhBzZsiXceHDcdEQ0jMzNLJqARAtaOiW8m3LV0NWJmZzkTPwaK0BEuLMQ2D4aPSov4U2RmZskE/BkBZ47HMxMOfaIagi7MQS56I2Tvqg3x3Cwt3xAR25I/D5qZeSbcjoBwNqakBbp9wXLELMhRLn5FGtS/XblOZx5sEJmZWbIBDREQzsaUpDwHP1wJQZfnMBeD0RGm35LNgxfcQd6Jk4j4Y2RmZskG/ElkJizR51G2zlmMmKW5nIFCiSNm2JPV3w0vnt0SmZmZzEy4DQGjyzdIqzwHPlAeQdckIBuj0REm4LQfsNZPmImIepGZmWkA6iNgXZoz4eYZCxCzEnhvAnLxD8QMerhievPgyVPvyo99m5mZ56BwhT7lmbD/PaUpLi5GzE0JysZkhGyZtSjlB6yxFRshYnNkZmZagK0ICFfpUynPjVPmIGYd8L4E5eIchISH6f73lk1tHpw4ExF1IzMz0wLUQ8C68TPecXH2vfM5iouKEHNHArMxFx3hofodZ6TDBXcqzYO/i8zMTAvwewSEq/ThzMw7Kc/wMCZmE/D+BGbjEoSEh+q+dzz7zubBSo1lshGZmZkmYAsCwpmZtyvO3rc+TVFhEWLuTXA2lpAClQsRGybNRkTtyMzMNAF1ERCu1L9dca4ZPRUx24APJjgb1yCkqLCQXrc8+dbz4IV3kn/qNCJ+G5mZmSbgdwgIZ2bC2Zk3K86eNz1BKFgxDyc8G+8FViFk9cjJb/mANa5yE0RsiMzMTBuwCQHh7MybFeeq4RMRswv4sEA2bkZIYX4BPa5/7M3nwcmzEVErMjMzbUAdBKyfOOsNSzMUaihWMU+KZON9wEaErBg87g1z0vGiu5TmwV9HZmamDfit8kwYClXMXuCjQvm4GyEFeXl0u+ah1+VkfNWmiFgfmZlZoA/YqDgTdrvmYUKhinlOLBsfBLYhZGnfkcovoK0ZmZlZoA+ohYBwxf6Vpbm0/yj+x95dgMd1Y18AV8rMzLjMzFRmxkCZmWi7ZaIwNDU1dsBhZmZmjiFkxwEz08D5S/NNt/DfgJ3xjK50ft93ltG5z9LTk66EKdY5SmB9PA5BzKfA9Bsf+dbnwUBdPYT4uSIiIjcA+KWUgdMctTeDZsZNj0YGTWFeF1ofh+nsgCBL+wz/xufBrhAiWxERkVsA5EIAc9TeDJrLM0dBmDKdYwXXx/MQxFwU3uu6BxH5PDhzIYR4TxERkVsAfAABzFH79Bsejmx6F+Zt4fVxpE4xBFmUNghpV9+PQH0DhPipooRrBUCREw7VuUjnRJ2jd5NDdKp1qnQqdaq+ky06uxTR/vm5zgpluXAwqLYtXaPO+b2ok+xVOufplCrZ/q3zgRKivqJKLUwZoP7+4kNKgCydHygiahoAJ+v8TedhnQ46Y3VydUKIjXKdBToZOq/p3KTzo6ZcJEsEIAu0G2wcCeBYnXIIEgoEIcRmncd0Wiki2j0AJ+jcrNNDZwMSpyo6mXtB5xd8eGkvTSX7g2KtRudkh+rkXVBLCujM0rlUKUVEAA7SuVznU52lOiHYqUhnkM6jOucoYu0CP9PpoLMT1BLaO1YvJ+pUg+KhQqePztmKyDfRVaFOOrsgT1hnqk47nSMV+bZadbfOMlBLqtM5zcH6+RQU79/VG3WuU0QuA3CazvM6K+GOap10nX85/xmRK6336mSD4qGLw78D60CJmGjl69ymiFwC4Pc6I3WCcNtWnRfcWdWi6HUnj+hsBsVLg85ZDtdUV1AiJ1o7dNoqIskA/FVnEvxTpPOazjGKRALQSucBnXxQvPV0vLbO1mkEJVqhuE+HRAAu0ZkBKtV5W+d4RWIA+KnOXFAiNOqc50GNJYFsEI4+6ycqIpsB+IPOPNB3VUQnWocpsr3j9mc6AVCipHlSaxdat2WCE/u3FJFtAByvk6QTBu1Jrs6ViqwD4EadPFAiBXUu8qjmMkC2KdD5jSKyQbRVQSGoKQbpnKHIhvo9RmcQyAa9Pau9H1rZ94/COl8ookQB8AOd6aDmqtR5RudARYnsxZYDskFI5wce1uBAkK3W6xyriOIp2oqgARQLC+O/qZcAPGRVPyIa4Gkd/hxks9q4XL1DBOA4nRGgWCuN63FhbmTvA7JJWOenHtfkSJDt9dlBEbUUAL/W2QRqyYf4U52DFLUIABforAPZZigbMZMAS2O+pYMIwONx+yRIc3TOVNQSFzPvANnoV6xPTARJsFXncEW0vwAcqpMJSkQn+L8pigkAf9EpA9lotFJknneQpN/PJyui5gJwtM5UUKLU6VyvaL8AuEanFmSr3yuKADATJOkU+AWKqKkAnKSzGJRoQZ17FTULgDZWd2WniYr+C8BlIGkvwb9WRE28iHQDyBZhnRcUNQmAB6y/WYCeVfQtABaBJGnU+aUi2sfmoXkgG32kaJ8AuE7EPW9U9T82uLN2SeJK1tmKaC/XNhSBbNZF0R4B+KOoPVe081t7WVi/rXRWgqQp0zlaEX0XgDN1toIkeE3RnlZgi0HS5HzrVBbreDxIorxv9ckiAnCsziqQJPco+hYAZ+hsAUm1SOdI1jFeEr13kFYoom/0uZoBkiagc6Wib15/sxIk3TidAzyu41ucmFzRGEV+A3CAzmCQVNU6v1WKAGSAXPGGpzV8qjO3ZVBY5wlF/gLQGSRdoc75ntdxO5BLgjp/9bCON4JcEvD08AYBuBXk0t6Vgz2t4+/rVINck69zokd1nAxy0Q5FfgFwnk45yCUdPN0/uAIkGO8oBHCl0/uuaJgiPwA4WGcByDVhnas9q+XuIHZ6l3+Cuxbk+u/m1orcB+BTkKuKdM706AJncl+Dzk8cruMlIB80yG9CSlyKphmuN7oDcJhXG4JppqN1fLNXv49pqiI3AThBpxDkg1cdr+W3QL5prRzj3T5YCuv8WZF7AHwB8kWNzjmO1vH5OnUg32zXOYa/j8kqPFVIAH6jEwL5ZKijtTwK5KuODt37GgT56k1FTt3MvhDkoyu4sZ0cEnBhwzuApSCfNTqy4Z0APAjyVZbOIY7U8UE6uSBuFJb/ksCN7TRBkRMb24tAPnvNkVq+Bx6pLavA9pXrsX7cdKwcNBaL04dg3ud9Mb9nPyzJGIqVg8cha+Is7FqXg/qqanjmz7wOx37hcBihQDBSyyWb87FT12r+ktXYNHsx8hauwI7VWSjO3YKqwmIEGhoi/3qPhHROViQXgG46xA3vZzjwmXs9HFayKQ+r9KRp/L8/Q/oNDyPpX62blD63PoHJ73TFutFTUVGwE44bI7SO/6oTdnlCVV9Vg23L1mJmh1T0uv6hptXxpW0x9uVPkD15TmTSFQ6F2eGd7ATgNJ16eKKhphaFGzYie9LsyBv/kvSh+m2/L+Z0zcDC1IFYnjkSa0ZMirw5Ve4o9O1tqYP4fkEOqtpZhKV9hqN/m+fNABPTDHnoNawaMh515ZVw1M8F1vFqOKixtg45U+ei313PxLSGUy5vi8W9BpvJlqu/r4M6RyqyDTu2VxeWRD6RTPuoJ/rd+XSTH97UK+/FyGfeNROxyFJ1KBiEw6p0ThBcy4vhEPMiMP719qYOWzwpl7XD9I+/QHn+DjhmgLAa/qlO2KXVKjPxmfRW57jUcWbrZ1GwfJ2LE610RbIAOF6n0sFVKrMnxUyMYv4AZ9z4COZ2742inC1w1NtCa/kyOKI4dyvGvfqpqbe4J/nSNpj6QQ9U7ixy6e3/IiWES/e/VheVfPWCEPf0veMp8wnSpYlWg7CbNwjAm3BITUkZ5vXog7Sr74/LQzzssTewZe5SOKZE5yiBtTzdhU8oZnN68qVtTX0lNOYZWjFwjCsrtilCavgcB1avzIZ188nO1FHCM+KpdyKb5x3RWZEMAI7UKYYD6iqqMLdbBlKvuDchD/GQh/8d2bPlkBeE1fKPIZz5/Bz9hG1VzB6tsrwCCFenc6yAOh4q/xBGPtJvfMS6Ol49bKILq1nlimQA8BwckDVpNjJuetSKh3jyO11QU1wKBxToHCqolj+CXOawxZ5WraxYzcqdPh/CPSCgjqsF77UykxhTL9ZmzEsfmTYPvKOQWp70Zoy1peUY+9LH1j3EX177YOT4sAPuFNSaIQ8CBRsDmPJeN1M3IrIgKROCzbC8jq+CUOYzcnSvlfUxq2vVsl+CJyuyG4A/QrAdqzagz21PWP0gz+qUhmBDIwQbK6SW/wGBAnX1X70giMqMz5IRCoakvv2fY3Edz5b6kjD8ibdE1bBp61C+bQeEalBkNwA9IJRpkBj9nGJ9hj3+huT+QgGdUwTUcprEzewjnnxbQA3v9lO41EnWaxavwjZCGPO5beC9L4mt4+KNeRCqnXKAKXrloIN1duicqIRZ0X+UWpQ6SEly3Nmnq6s/e1UddfKJSqBndLoqex2ms0vnGCVEOBRSE17voLYtXqUk++F1/1J/ffZ+JUyeztM6h+wlB+u00jlgLzGC/yMBnWATcrnOY8oQVMcjnnxHFWdvUpLdPaCLxN/NK3R+qcg+AK6HPKbLutg3JXM6zHSFF2iR5bV8O4SZ/kmSqQknYrrLk3/MhvYJb3R0oobTrn0gcm2PMCFLDyERgMGQxVzlIf5BHtDuxUg7CYG+b3EtZ0CQ1UMnmFpwKlvnLwN5xUysnarhAW2fl/jJ+yFFdgFwrE4dBNk4YwGSLmnjwoNs9t1IPCb8nrKUpNODpvN/yhX3ODfBMjcbmNYk5Ifi3C2u1bCJaVAtrU/WREX7g5fhlm7ON3cBOvUgm1NYwiyztJYvhBCB+gazgunkwGQy+oUP3b8UnczLofmk5mwd71iTBUGKFdkFQDdJD/Og+19x8kHOnTZf2vf+4y2s5QchxOJeQ8yfu9MxDX/JbbM6pjldw72ufdBc8yOp7ciRiuwBYA2EmN2ll6sPsmlGKu0y3RstrOV+EKBi+65mXOEkL71veRwN1TUgN1UU7LKv7nhw4wlFdgBwCoTYtT7X+Qd5oj6FI0gXC+t5OwSY+GYnS2qOnd6p+acGBz3wqi91LKl34VRFPNLexIfZNOj04kHOW7QSQqyyrJa/DwFKNucLrc3m31loTsoSN7ZLzuyu6RCiVJEdAPSEAFkTZvryIJuNz1KOB4d1TrKolltDgGkffu7VwGSyJGMoyK3Vq+hVOF6loaYWAoQV2QHABuurJRTSk44X7HzouOH9Votq+V1YrqqwuHlXOslv2yD7Dk767h5C72rYZFm/kRDil4oSC8BRQnpeefcgD3noNQjxsUX1PACWW545ysuByWTjzIUgJ5h9dV7WcOqV90Ve+AV4RlFiAfgVBIjuvfIu+YtXQYBhFtXzclhu8AOveDvBMhv7ST4zwUiKrsL6mJJNeRCgr6LEAnAXLFe2tcDbB3nqBz0gwFpLarmVTjUsVrIxz9taNkm5vB3qq6pBshVmbfK6jmd2SIUASxQlFoC3YblFaYO8fZDN6avG2jpYrl7nQAtq+SxYbsXAMV4PTCabZy8GfQMv2JeXS9tKuKFgp6LEApAJy2Xe/azXD3POlLkQ4AILavkSWG78a595P8Ga2703SPbpwYybH/O+jmtKy2G5BkWJBWApLFaev8P7B3naRz0hwFUW1PJDsJdpu2E69Xtfz4MffA0klmlT4H0Nm2yZu1RCC51WihIHQBUstm7MNO8f5H53Ps0TK/sAwIuwWOmWbRyYTC5pw3YN8cHmomw6eqqixABwMiw39f3ufJh1TM8Zy3WxoJ7fgcU2z1nCWo7GdLInmXKjLXN8j7kiSICfK0oMABfBctHmot7H9AGzXLoF9dwRFlsxYDRrOZpNsxaBZFqYPIA1HI2Aje6XK0oMAL+0e89KUE7Ha97kPtSCek6GxWZ1TGMtR2NOU5JMo597nzUcTaC+AZa7W1FiAPgbLFaWtz1ayIy5u85ykyyo5/6w2OR3u7KWozGtV0im/m2fZw1HU19ZDcs9rSgxAFwDi+UtXBEtZGbEU2/DcvMsqOcxbNHAVg3UstKufUBOrbFVwzuKEgPAHbBYztR50UJmBt33Miy32oJ6ngmLjXzmXdZyNDM+TQaJ7IHF+v1GKncUwnJdlUAHKDccrSwWrKtXpGmBfflZsJZaKRIBgCIizlU4wUqQRk6wOMFqmiplsYMPP0yRph1yBH8WErVq1UoddNghijTtwEMOVpYr5QSLiDjB8sjBRxyuSKbDjz9WUXSCdbD1E6wSTrASp5oDkgjmZyG8ljjBOuRITio4wZLvyJNOUPTVBOsgZbliRYkB4E5ucucm9xhZY0E9d4LFlmeOZC1/o3EuyTSvZz85tcZGo1dyBWs3+MZ/hKJv/CxE1xLr+dizTlfEn4V0J3/vPEW6hs8+PbInzXK7FP1PbDS6tSD6psBMZaPRvQLwEixWsimPtfyNDtgkU1H2JtawjrmZQQC+ySQKgF/BYqFAAMmXtuHDrLO09zBYbpgF9fyI7fWcdvX93tfywHtfAslVX1UT+XPkZ+6FsFxY50BFiQHgYliufxtey2CSO20+LJdhQT1fDsuNeekj72t5dudeINnNRntd/5D3dVxdVArLNSpKHACnwnKT3+H9bSbl+TtguW4W1PO5sNyyftzozg3u8s37vC83uIfCsFyhosQB0EqnGhZbO3Ky9w9yn9ufhADPWVDPB+jUwWKFGzZ6XcvJl7ZFXXklSLada7O5J9Z+yxUlFoDl3Ohud6Z+0AMCXGNJPa+C5fq39fez97hXPwHJFwoGvf6dXJi1EQL0V5RYAAbAcn3veMrrhzlr4iwIcJEl9TwElluSMdTbWs6ZMhfkhtldevlZx5e2RTgUggAvKUosAO/CcguSMr0dkFKvvBcN1TWwXKMtp1UAfADLVRTsQtIl/p2O/fLaB9FYWweSjF8XFqYOhBC/U5RYAFrDciUb/e0fZDb5C7Deonq+BwJMequzd7W8ILk/yK3ThIPuf9m7Oq6rqIIAYZ1WihILwG8hwJCH/+3lBGvrguUQYIRF9fwTWIeb3VOvuBc1JWUg1za753Bzu50qFCUegGMggNm74V1DxvtelnDXlfGpZSdjCyHA2Jc/9qaWzX4dCczqhGkjYe5BzZ40GxvGz8T6MdOwduQUrB42EasGj8OKgWMi90ou7TMcS9KHYlHaICxMHoD5Pfthbo8+mNM1PdLra2733vof62tW7iL/msXpQ8y/x/x7zX+G+c8y/5nmP9v8d5j/LvPfGfnv3rkmW8wqVmbrZ/3pfVVcCiFmKbIDgBz7T62EkHn3s9zcbqc7LKvnQRCgdHO+aVvgfB2n3/BwM1ozsE+Z6bMkQcmmfC9+H5veX4I8r8gOAJIhwLrRU72ZXJm3QnMUWohTLavnxyDEvB59nK/lNSMmoenYab+6qETKKpbzDaFTLr8HwYZGCBHWOV6RHQDcBUPAKtbgB1/zYoK1ec4SCLHWwnr+AWQwJ0SdbkMy7PE3hBxpj94VedV99lyPJajjfUNNrZ6EuLsau3XhCghSpsgeAE6HEDtWbXB+cjX2lU8gSHdLa3qHoJo2l5o72ZbBtKRoHv5umfB6B0iyfdUGZze2m1U6QaYpsguADRBi+idJzk6u0q6+P3LvoCC3WFrPmRBkae9h7jUVnToX+4V/Bmb1T1LbBrOx36ka7n3r45GVTWGeVGQXAD0hhGlWOKDdC05OsNaPmw5BwjonWVrPbSGIGUgnvtGRG4ITaPiTb9l3yXvBTkir45HPvOvIvqu2EluLhHSOVGQXALdDkKLszfoBaOfU5GrKe90gzCqL6/konRoIEqhvwIgn33ahOa60TyqoKNjJ5qwxEmwMOHHfpjnlK9A6RfYBcIJOAwTJmjDTlcmVaaQq8RqRjyyv6b4QxrQzGHT/K2LreMyLH0ZOWwlj+lnx3rvYbno3n9fE1nHBinUQ6jFFdgIwArKYxn3iJ1f97npGapfrn1hez1dCINPscvjjb4qrY/OJ00yuJOrfxt4VF9P1X6LGunoMiNdKFn/eRqPF1+MQgFsgj+mcLHcT5S2PoyyvAAItF1DPB+rshEBmNTPak0lCzMET00ZF6HUv2byPtIUEGxsx/Im3xPS6KsvbjhbB7u0E4FCdMgi0MGWAyJUrs/dDqBeE1HQnyGQmLOYKFssHpXaR614EM9f4WP+7ItDQAKnCIfvr2GzRMD3phLtSEbu6txBzv5eYyZXZZ1NdVAqhgjqnC6nnX0O4LfOWIf3GR6x8Qdi1LheSmSP4GeZny0aXLd7CoWD5OrNKZOVBAjMJFK5akf0A/A2C5S1c8dVgZG2mvt898glIsEnCanohhDOb36d//IUV9WvuT5z/RSYCdfWID14iP/DelyKTFOnMSdkZn9rRx9DsDzM9Bx2Rpsh+AFrpbIFgVTuLrOxpk3rlvVg7cjIc0FZYTd8ARxQsX4thj72RuFsGXvoYxblb4QAzYZF0YtOpn3vJ5nzzWS5BzZzvM01wI5dpOyKgc7giGQC8AuHMku+a4ZPMdR12XH/z8sfRa0PEK9Q5XOBLwxo4ZOuCFXHdPDzu1U8im8FdsmXuUlF7Ns1LY3QVy5mJVvHGPHNfZXwmVtc+gNzp8yOX6DtmiCI5AByjUwYH1BSXYvonX5jPGgn5pWga7pmH2iGvCa3pNnBQUdYmzOma0SKfxc0l1IvSBkU+o7goOkEVlfJtO+AaM9GqLS3HioFjzepSi9wlaCZy5r/HQSGdExXJAuB9OMSsHs34LBkpl7WLz56Je15E9uQ5kZNgDqnQOVZoPR+kswmOMt2zty1bg4WpA82KQLMuj0654h6Meu5901vOrFZFVoFdVbBsrbjJVXQlsRkTBVmTrarCYmRPmYPRL37YrJ9RZutnsbz/aJRsyos8F46bqEgeACfr1MAxtWUVWDV4HAY/+FpLXNRsVstMF2BXfwl+KLymH4MnzMBi9rlsnLkQyzNHRU5Kze7cC9P02/y0j3qa3nGR1iYrB441n8rMKlXkZcAX0R5jIlNdVAJfmN+j5kCQeUE2v1dNrWZNmo01IyZhw7gZ2DRrEfKXrI5Mpuorq3yqYSOsc7YimQB0gcPKthZEevhM+E8H9Lruoab/srukjZmoRS623bpgeeRUlcNqdU4RXs+H6WwDeW3XuhzRNz+YU8hm4kHeC+ucoUgmAGfrNMIT1YUl2LZ0deTtaHH6EMzr0Qcz26eY4/GmGWGkWd7yzJFmT5U50RNp/ueRbo7U9J0gb5mJSXRTtehEO44TzVXExqMkWr3OOQ7V9DSQl9aNmSZ+chXt4cRVLDLCOn9UJBOAU3TKQD5717Ga/pFOAOQVc4l29LSlEzG9nIi0LYrkAvAkyFebXWxiB6A9yCuzOqWZiYk7ubTtV/s+iR5QJBOAA3VWgHx0g6M1fbROAcgLhVmbzKEUMzFxKjM+S+GnQjIqdVopkgnAn3XCIJ+MU7JxwzuZfl7N2NgubsM70XOK5AKQDvJFvc5FHtR0X5DTlqQPNRMRZ9P71scRDARA3itSJBeAU3VKQT54x5OaPlonG+Qi05yyGV3t2RuLxLpDkVwAbga5boHOwR7V9C916kFOqSuvRJ/bnzQTEC+yaeZCkHA8UUgAeoBcVa5znoc1/TTIqYai41/7zEw8vEpNSRnIe39XJBeAQ509VUi3elzXI0BOWDlorPTJUrMvOg4FgyCvrVIkG4Dv61SDXNLT85o+QScXJNqO1VlIuaydmXB4mZkdUrkfi93df6hINgDtQK5YqXMYaxoX6ewCib3APf2Gh81Ew+usGDiWkyy/zVIkH4AUkHRlOj9QFAHgNzpVIFGqi0rR786no5MMJnfGApC3QjrHKJINwEE640BS1ev8TdG3ALhCpxEkQkNVDQY/+Op3JhnMjjVZIG91UCQfgCN1akDShHRuUbSnT+BhkNWCDY0Y9dz7u5lkMOXbdoC8tEuRfAB+JHIgoicU7RGAl0HWCgVDmPxOlz1MMJiUy+9BbVkFyDthnZ8pkg3AHJA0HyjaJwCetfMFgitXE9/stA+TDCbt6vtQVVgC8s4oRXIBOEvc4ENfKmoSAG11AiArNNTUYvTzHzRlksFc2halWwtAXqnTaaVIJnEb3KmHzgGKmlPr1+rUghJ+Bc7QR//DCRM3vtO+uVuRPACO1wmBPLnAmQD8VacclBBVO4swoN2L+znJYDbPWcI+Wf5YoUgeAANAEoR1nlIUEwB+rpMPiqvi3K3oe/tTMZpkMGtHT+Ukyw8hnSMVyQHgcBF7Uqgx9kvEBOAknfGguNgwfgZSr7w3xpMMZur73REKBEHOe1NRTLGDO1XoXKWoRQBopfN6yx3yoEBdPaZ/8kULTjKYvnc8FemCTxbgBdAE4GCdepDNlutcqKhFAXgD1GL3Cg66/5U4TTSYzbMX85OhuxoVyQCgA8hmSS1/cTMBuFgnCIq5nClzkXb1/XGeZDAzPktBKMiSdtTliuwG4EBrr8Whap3WiuJ1B+cuUMxPCU74T4cETjKY3rc+jqLsTVzNcs9QRXYD8CbIRmt0fqgoLgCMBcWMWTVZMXAMV60syuR3uqKxtg7kjCJF1m/qrQTZpE7nDZ1DFMUFgEdjt7GddqzOwuAHuNfK1u7v2VPmcDXLDWGdExTZCcAzIJtMiO9GdgJwUWzak1BNcSlmfJYsYKLBDLr/ZZTn7+BE639orKs3YbsG2j8AikE2KNC5XZHAfVdUtasYs7v0QsoV9wibaDCjX/iAE61v3Ie5uNfgyM9l3ZipEGKlIvsAuBdkw+fAjjrHKIo7AGNAzVZRsAsz26cg5bJ2wicazPAn30LJ5nwvJ1r1VdWY17Pftw8G3PKYlJ9FgyL7ANgOSpSa6MTqdEUJAeCR5u27olI9EE//+AskX9rWsYkGM+SR11Gcs8X5iZb5/1dbXmlWXnf7szAre0KcrcgeAG4AJUKVzsc6JysStO+K6iqqsGbEJAx7/A0PJhpM+o2PYM3IyebP3anJVrAxgPwlqzH8ibf2+jOY3flLCPGsInsA2AiKp7DOu9ac+OC+q52gfWq1sGXuUkx6qzNSLudnQF9jJtV5i1aayYnY1Sqz6jqjfUqT/n8nX9pGyr2OoxXZAcDf4v5phPopEtDvimpLy5E7bX5kb1XGTY9+a8BhGHOPZMHydWiorjETF6tXqko25WN55ij0uvbBZv//Ld6YBwG2KLIDgNWgeArrnKrIwn1XZAZKs0o1t0cf9q5imhQzAV+YNgi71ueaS7zNhCuhq63lBTuxdvRUs48sZv8fF/cawnsJad8A+Jm0AWbXuhxU6AdHsOWKbKj9P/h8z6Dp4F2UvRk5U+dicfoQTH63KwY/+Jr5DBKTgYhhMls/i7ndeyN78pzI1Ty1ZRXmE1tMJ17hUCjyUlCWtx1b5i3Fkt7DMPLZ91puL9oND0vZg3aOosQCsEBaw7ekSyIDAPrd+bRenk5C9qTZkYaGglyhKKEAnKFTC+HMSsHcbhlYlDbIfPqIbDrP0s9D1sRZWDN8kv7HRmJhygDM6ZoeOeU38c1OGP38++h7x1MJG3QZxnyiM7VoekytHjohUq+b5yzBtuVrUbhhI0q3bEPF9l1m0hR5Cdi+agO2LlhuXgYiG+2X9h1h9k+ZCVxC/vebiaIAzylKHABnC1u9MgPGbjYftpXyVlGqKKEAHK5T6MAKFDeaM0wCkjt9AQQYoyhxAIyHIMGGxt322TFvQ0KkKkr0XZtrXOjZM+W9bgkZXBiG3e4/hABbFSUGgGOF7T8xS8O7LfiVA8dK2dx+pqKEATAK8plPJgkcYBiGCYfCsFyNosQA0BeCmI2RqVfcu9tiN43i9oRvFATgEzggUN+AtKvvT+DgwjBMXXklLBdSFH8ADtFphBzmFMoei93cgSbAO4oSAsA9sdpvyE+DDMPsWLUBApyoKL4AtIcgoVAIadc8sMdiNxt+LRdOTLETgD860o7BnLKyYHBhGGZZvxEQ4EpFcd/kWwU5zPHdvRW7hBOE5YriDsBZOnVwgGncmHbVfRYMLgzDDNXNSwV4VVH8AHgKcpiNhHu9nmPgfS9DgFmK4grAETrFjtz0b+7/s2iAYRjGNDm1XLqi+AGwC3KYzet7v+G8SzoEeEFR3AA4QGcdHJG/ZJVlgwvDMPVVNbDcTEXxAeBaaW/t/e56eq9FvmHCTG42pG8BMN2luwGjJ2gZhrEnEq5sy1EUHwDWQ5Cda7L3qci3LlwBywUUxQ2ACXCEeckY8dTbFg4uDMNsX7ke4M0hBOCHOmFBA4vZW7Vvx2VXZ8FyxYriAsBoOGTVkPEWDCQMwwj9elKvqOUBmAZBinO37nORm3+t5VYranEAhsEd5qJbiwcXhmEWJGWCX0848ByjExL1WeTJff8sUm7/d/DhiloUgIFwSLAxgIybHrN4cGEYZuzLH4Pd3Dn4pEAOs3GwSUVeXVQKy3VW1GIA9IZDIt3a3+9u+eDCMEzvW5+A5cKKWhaAGggy/t/tm3YnVEWVp1fkEIBUOGbznMUCBheGYZIva+fzBIsAPAxBqotLd1PMoq/JeUZRzAH4HI4x9Z98aVsBgwvDMEJuETlaUcsAsAWCTP8suckFHmxshOXaKoopAJ3hmFAggL7Rvm8Mw3CCFSPnKoo9AL8Q1JrBdMVtVoGbDcGWu05RzAD4dDd1LfsqnLe7CBtcGIYJ2X9dzs8VxR6AGRBkUdqgZhV4oL4BlmutKCYAfKAThmPWjZkmcHBhGMasPFvu74piC8CROkEIYSZJSZe0aVaBN1TXwnJPK9pvALq7OLkq3ZIvdHBhGCbQ0AjLXa8otgD0gCBrRkxqdoHXlVc6foqQAAyFg8wBjS+vfVDAQMIwjNAtKtcqii0AFRAiFAw24zJbUX2wuipqFgAH6syBe6INdd8SPLgwDBMKhmC5PyiKHQDXyur7s2T/bjTfvguWG6yoOXV8mM56VydX83r25QDFMDxF2NIuUBQ7AJZKGmh63/r4fhV46eZtsNwKRU0C4DidAjgqZ+pcDk4MwwlWPBylKDYAHC3p3sGd63L2u8ALN2yC5QoV7TMA5+iUwVHFG7c6MLAwDPPlNQ/41MmdAHSVtHo19JHX97vIty1bC8s1KtonAH6mUwtHmWudUq+814HBhWGY/m2e82mCRQBKIYPZOxWTIl87cor1Rb73ZVoCcKNOIxxlThtl3v2sI4MLwzBjXvwQlgsoig0Al0CQKe93j0mRz+yQCgEeUrRbAN7TCcNRZrV23CufODS4MAyzILk/LFevKDYAzJd7LU7zM/DelyDAeEW7a8MwHobDk6uFKQMcG1wYhsmeNBuWq1a0/wAcLKlz+9I+Iyw4yWHBRneeFNwIx20YP9PBwYVhmJ1rs2G5UkX7D8DLECIUCCLlsnbNKGjR9xGGdQ5W9M2LyKvguILlax0dXBiGqdxZBMttUrT/AORAiC1zl8a80KsLS4TswyIAbXWCcFzZ1oJm3K/JMIyUmKuuLDdL0f4BcLxOWMp+lMzWz7bAUm0OBFiuDLYRCcNxNaXlbMfAMI4nHArBcmmK9g+AjhCiLK+gRQo9a8IsCBDUOcjjBrjL4QHzVptx02MODywMwwx77A0I8Kyi/QNgB4SY8l63Fin2iW92gp1Y8AD+qVMND4QCAXOq1fHBhWGYVUPGQ4A/K2o+ABdK+eTSUFPbYsWefGkbCScJjfUerq6G4QFzq/7o5z/wYHBhGKY4d4uEg1WHKGo+AH0hxOphE1u04GvLKiBAWOcCT1owrIEnzF6MsS9/7MngwjBMoK7e9SvaCEC5lAEo9ar7WrTg8xathBATHa/JK3RqfZpcjX+9vScDC8MwGTc9KuGLSYmi5gPwJwixfeX6Fi/6OV16QYigq3cTAuihE/ZnchU2+/88GlwYhpn3eV8IsEFR8wEYByGGPf5Gixd9r+selLIPy0hxrBbP08mFR0ytTX63m2eDC8Mw+UtWuX49G0nphF1bXhm3wjcb6YVo1DnSkTp8Wyfo2+Rq2oefezi4MAxTW14BAV5X1DwAfgohVg4ax7uh/rcRDqxa5cDwbHI147NkDwcWhmH63v6klC8lP1TUPADSpQxGadfcH7fin9k+BYKEdS4WWn9v6gR9nFzN6vSlp4MLwzDrx06DAAFF7jcXLcrZEtfiN3e/hYJBCLJSWN2dq5MNw8PJ1ZxuGR4PLgzD1JVXQoDtipoHwElSTmpNertz3B+AwqxN0lax2gqpuzd0gr5OruZ/0c/jgYVhmIH3vizl8+BkRc0D4AMI0FhXn5CHwOyPEaZe5ziL6+23OnkwPJ1cLUwd6PngwjBM7vT5MBze4E4AsiBAzrR5+1a4/ExoLLP0guZxOmGfJ1dL0odKGQAYhuEp9bDOmYqaDsBBOiEJA1O/u5/9qjD5mXDfPG9Rnb2u0wCPmRpe1m8EOLAwDDP8ybcgRJWi5gHwMASoLS1P6MMw49NkCBTU+WWC6+svOgX4Bn4WZBiGzUVXQ4i5ipoHwHwIsHbUlMQ+EOYzYSAIgap0jk/Q5cxTdcLwnLn+ZvqnSZE6YhiG6XX9w5E7R4V4WVHzAKiR8Pbf57YnEv5QbJm3FEJt1jkgTvV0iE43nUZQZO/euFc//W8NMQzD5M5YIOlU+gmKmt2DKAzLVReXWvFQ9Lvz6QQcqZVxzBbAgTrv6dSBIoINjRj26Bv/rR+GYZjUK++TdGiqTFHzRAZEAVYNGW/Nw1G8MQ+CDWmBGmql85xOJei/zOmgzNbPfad+GIZh5/bpEGSUouYBsFTC58H0mx615uEY89JHEG5gDOvnHp1i0P87kJFx0yPfqhuGYZjkS9v+H3v3ACVJsu9xPGb32bZtW7r3rm3btm3bMz3usW1b6u0eq2278Hv/qoe7ahW6I7O+33M+x5qpjoyorMhIRbu7FaD+w1F491+1VNV6N0jabAINeBPT/Ls565ufDKSmskrlnXotkwmAr9k1aZ4CVLuj1JL0G0HYf/X5zCXeDZKNH+crBM0xwwb4N3OdKRV9Y1X7Die+oTKRAPiGu1dXKNLRqQC10lFqSXohCD8PTrziPv8Gy7dsoHR1KQQVmR/s4+/ke80zplHUY/aEKZMIgB7tW7RaAesCR+Hdf2Ubhb0dLAUzFikk1Znf/Ia/jx8zeaZT1Purb8bMYAIB0KNJVz+QPA8vQHWbYY5SS1K7PK9k6x6vb/cmXj4dkrrMuV84umOBiYp6LRaJaOHjbzCBAOhVY2mFAtYqR6kl6bcUgJY++57Xg2b9h+MUouLmeP/25VFnc2ufP18DwLr3RyuA/Zuj1JL0pP8nYMcSe53S/OPmiULKfHVHinlSEECfRth1InHgcMCqd5R6kpbI8xqOlwViAC187I3kPhzKjf1WB5evZ+IA0C/FW3YrgH3mKPWC8Kj97inzAzOI6o+VisK/uNrw0TgmDQD9Mvf+F4P45TtuftZR6gXhRbxTrn84MANp6g2PhPwuFu8UnHPvC0waAPpl1Nk3K9LZpQC2z1GaL3j2vGh3JHADqmRbgSh8JV40Pu7C25k0APRb4o0OAe18R6kn6R55XkNxeSA3Mya+sVB4fhI8smZL4jgOJgwA/ZbYpxnQ6hyll6TZ8ryiecsDObAWP/12CH4qpFgkqhUvfzygzx4AVr76aZDngKccpZekw/K82fc8H9gBljgclYJb4uXi4y++c8CfOwBOa49FowponeZER+klqcPz868CPciGn3y1uts7RIE8gmHAZ68BwPCTrlJHU4sCXL6j9JL0Uybu+R2EwA+2hY++HqDbxBTtjmjps+8yUQBI6bVpiX3DAS5mftpRekm6XJ5XvHlXKAbdsQ3bRf7XVF6lseffNvDPGAC+dYXqjpQo4M10lH6S3pXnbcmbEo5bxt+5Sp0tbSJ/fxLcu2BVyp8vAFQfOKKAFzU/6Sj9JC2V501N44BR30y+9iEPNz1SV1u75j/0SsqfKwBUfr5fIWiKo8wk6aA8Lh6LhW4QLnvhA4/2Y3HX6uj67YkHEVL+PAGgbEehQlDE/KijzCSpSR7X0dgcysFYMGOxKPh3rQAgsU84JI13lLkkReVxlYUHQnw7+YCIu1YAgnsET82hYwpJHeb7HWUmST8vzyuYsSi8g9M2vbfXN4qCddcKAPIvvSv5C0uIeshR5pJ0kTxv2fMfhHqQjr/ozuSZSzQYd622pX3XCgDmPvBy2K7b5Y4ym6TX5XnjLrw99IN1zj3PJU+rJ7/vWgHAxk8nhO0hpbj5T0eZTdJCniD0w7wHX0r+eymTfz9x7V+8JvHKirQ/HwA4tHJTGJ8A3+go80kq9PzOQ04N3gWPvpahRRbVHSnWhMvvTfszAYAJV9yr5opqhbCI+XlHmU9ShTyuqawy5wbyoiffSt55odTqam3T0mffy8hnAQA7J84J8xffRxxlJ0kt8rjS7Z/n5IBe+tz7HESaws/JhbOX2UtWr2RSAJC2SVfer+bKGoW4A46yl6SI30c0LM7Zwb3i5Y9ZZPXz6cDq/Yc1/sI7mBQAZMSuyfPCvl0jan7dUXaSNMzE5XG2yMjpQZ5cZPU4yKmjuUULH3+DCQFARky94RG1VNcqB3rRUfaS9JvyvMnXPJjzA37WHc8o0tUt+m7R7m7tmDBbn37rCiYFAGkbf8mdqtizL1d+NTjsKLtJOsP3n34++zYTaMK4i+5Inhic68WiURXNW64RJ1/D3wWAtI0++yYd27gjl7ZjdJlfdJTdJN0nj4t98QwsJBcV9UdLcnYD+6GVGzXy9Ov5WwCQkevp/iXrcu2A57i53FH2k/SBPC7S0fkNAwP2kuKc2sCeeEv9mHNv4bMHkIFfA+7U4dWbFYtElIPNcDQ4SZotj2uvb+phkGBH/uzE4iPUC6vEfoj8S+/m8waQtvkPv6raQ8dz+cnsSnOCo8FJ0np5XENxeR+DhguG3eUL3cKq5uAxTbnuIT5jAGkZ/p2rtHXUNLF/VRHzu44GL0m75HEVBfv7GEDIO+06VRYeCMXCqqrooKbd9BifK4C0LHriTZXv3qdYJCpR3FzgaHCTdEAeZy/V7OeAwvoPxiWfsAtaiQ2mR9dv0/iL7uRzBJDGy/JfVsm2Ao60+XqvOhr8JBXL4/ZMWziAAYbEfqWWqloFoUhXlwpnL03cgeOzA5CS2fe8oGMbdvS8VYJWOBqaJFXJ47aOnpbCoEPR3OWKx+Penry+ecTkAb8vEADGX3yHto+fpdojxfz813cl5kRHQ5OkRnnc+vfHpjgQMf2WJ9RcUS1fSrwwddkLH/DZAOi34SdfrRWvfJL86a+rta3/Xxyp2fy0o6FLUps8bvmLH6Y5QLH6rTx1d3QO2anrZTsLNfP2p/gsAPRp7Hm3aN0HY1WydXfimB4WVKnVaX7L0dAmqUseN//h1zI0cHlUed+CVYPy0ujEBbG1pk6b86Ykvn3y/w+gx+vSnHtfSO61rT14LDNfBCli/sbR0CcpKo+bfusTGRzQGHfh7araeygr3wqj3REd27hTU65/hP9rAF87Tmbxk2+pcNbS5DWos7kl89chipmTHfmRpLg8Lv+Su7Iw2DH/oVfUWlufkbtVTeVVWvfeaDatA0i83y/5ZN/2sTNUvGW3miqqFensyv5iiuLmSkf9jQXWcBus2bsYILF5tKOpOaV3RB5etUn5l9+Tg/9vABLvBl36zLvaPXWBSncWqqWyhoXU0C6ubnDEAmsAd0cG6WKB9e+PUVdre58b1hMn6y987PUc+D8BMOKUazT7rme1efik5KHP9h6/xBcyvw40ppi5yhELrAE2mBcTfOsKbRk1NXl36ouL3IbjZVr77ujEhlT+j4CQSfy0P/WGR7TuvTHat2iNqooOJbcPRLu6/b8bRTFzqSPfYoGFni+4uybNSxp15o38nwCheMDljuSxNwUzFqtsZ1HyjDx7ao9FVHCLpfd+QWKB9a0r+nXxAAC+HF2RfFn6pk8n6PDKTao7fFzJp/ViMVGoipjTHaUVm9xP4sk0APiqqdc9nFxIHV23VQ3F5epu6+BuVG7UZv7Ukf9Jivm9wOKgSgA5fn7UU28n3y9ac+CoOptbuSOVu1Wbn3eUiVhgjTj12py5kALgqb3EYmrfwlWqP1rCHin6YnvN9zvKVCyw8s64PpQXUgAYf/Ed2vTZJJXvLkrcmWIxRT013wxzlMlYYOVfdncoLqQAMP2WJ1UwfZFqDx9PHspJ1Ecx86CjYCapWx43++5nA3khBYDRZ9+sLXlTknunot3dIhpAreYfHQU3SW3yuKXPvR+YiykAjklY/OTbOrZhuzqaUn6ZMdF+8+OOgp2kBnnc+g/GensxBYCJV96vPdMXqbG0QjGe7qP0ipsRjsKRpAp53I782V5dTAFgwSOvqWRbgbrbO0SUoZrNvzsKT5KOyOOK5i0f8ospACx68k2V7SxUpKtbRBksbpaH8AgGkrRHHndkzZYhuZgCwNJn31X5nn2KdkdElIW6zDWOwpmk9fK48t17B+diCgDfuiL5QuTKwoOKRiIiylJxs9b8hKPwJmmhPK6xtDKrF1QAWPz0O6red1ixSFREWa7RnOko/EmaII+z042ZAABk3MSr7tfhVZsV6ewU0SAUM6PNiY5yI0mvy+NikSiTAYCMGHHyNdo+boZaa+o5o4oGq7gpMH/kKLeSdK08zi6CicP7mBwApGzJ0++qev8RxTmniga3Y+a/HOVmkv5Cnjf9lseZJAAMyKSrH9Dh1fwESENStbnYUW4n6QQTl8etfnM4EwaAfr2qZvPwSfwESENVs7nLEf1fkiLyuM9nLWHyANCjCZfdraPrtnG0Ag1VHeZFc4Ij+mKSGuVxlYUHmEQAfM3yFz5QQ3E5d6toqGoyb5rvc0TflKSj8rj2hiYmEwBJI8+4QYVzlqm7rUNEQ1DcHDKXO6K+krRRHhePxXJ8UgEw+65nVVl0cKieBCSKmuXmTxxRf5M0WZ43+ZoHc25CAdi0fqW25E1RW32jiIaoVvOh+WFHNNAkPSXP2/TpxByZVACMOfcWHVqxkU3rNFTFTKG53gxzRKkm6R/lecc27gj5pAJg2k2Pq/Lz/Wxap6HcW/Wk+SFHlIkkDTNxeVxzZU1IJxUAS59/X01lVSysaCgWVaXmdfOTjigbSWqWx8VCt9Ed4FDQbWOmJ1/oTjTIi6pq84n5ZUeU7SQVyfMWPPxqwCcVACPPvFEHlq1TtDsiokGq2+wxz5lfckSDmaSp8ryDKzYEdFIBkH/ZPSrZtodjFmgwipsyk2/+fUg3qhNJukee11JdG7BJBcCMW59U9f4j7K+ibNdiVptbvdqkTiTp95ShOHAUwPxHXlNjaSULK8pGcVNrVpiHzK84Ip+TFJXnLX7qbY8nFQDLX/pQrTV1Ispg3eaImWAuMD/giIKUpGp5XvHmXR5OKgDWfzBWHY3NIkqzLlNs5pv7zW85oqAnaak8r7uj06NJBcCWkVPV1dYuogEWM/VmtxlnrjM/74jCmKQ7FYDm3PfCUE4oAL51hXZOmJP8wkM0gIXUJHOv+WNzgiPKlST9hInzMyGAnl6+XDBjsaJd3SL6QnHTYUrMOvOJudb8uiMiy5LUxM+EAL5o+ElXq3DOMg4HpYipMbvNFPOo+ed+bDonIkkbFYBm3/N8licVAMNPuUb7FqxSLBIR5Uwx02iKzBzzgjnN/IQjotST9LQCUMm2gixNKgDyTr1O+5esVSwSFYX6J73jZpV5z1yWxfOkiEjSrwdhH1YsGtVn37kqg5MKgLzTrtOBZeuT44tCs5BqMfvNHPOk+Wfz/Y6IBj9J7QpAOybMydDEArCwOrh8AwurYNdpjpqF5mnzj+Z7HBH5k6QtCkAdTS1pTCoA8k6/XodWsLAKYO1mnxlvrjE/44jI/yTdooC04OFXU5lYABZWKzcqFo2JvC9mKs1Cc5v5aUdEwUzSiSamAFR76PgAJhaAnwLtjhULK7+LmkNmrDk9ZD/zEZGkvQpA8Xhc+Zfd3cfEAvBUIHusvC1uaswsc2bITzgnIklPKSBVFOzvaWIBWFgtW8fCyr86zTbzqPlJR0S5k6QfNfGg3MWadPWD/zupABhx6rU6sJSFlUfFTYkZZf7OEVFuJ6lYAal6/xExsYKF1TXav3gNCyt/FlXHzKvmpxwR0f8l6T2joNzFmnbTYzk5qQIjTrla+xau5uR1PxZVR8yL5seZRf67vXsAdiULoyh8xrZt27Zt27Zt23q2bdu2beMqOnv+3OIYL+l0d9ZXtcpCqnqnCeBPSdrV8oqIpdNmF9/BlRhW7XowrArLW1Ost6xNHQD8G5IWR+ksVodXP4/9QZXol/Pv0Li23Qr3EWZ4a6b1mrWJA4D/StK3ipBEaZl+OufW+B5ciWHVpqvSDKtCWW3VsfZ0AJCDpwkzihB7eoqDMcWq7IfNx7buwrAqjLTV37rEAUAA3yYM9aXCRve8EJ8DLDGskikhUN6aZb1qre8AIB8knauIWbVgcbQPrsSwasWwKoASq561lwOAIEhaqogZWrs5B2tiWOHfPgV4pwOAoEn6XCZqlwqbP/pGJA6sxM3rY1t3ZVgFK2m1tfZ3AFAokjay0oqYZGm5qlx4ZygPqkRVLsg+FdiNm9eDtch601rXAUAYSOqnnOAzOsQLQsfzgtAgZaxB1lkOAMJG0qmWVwQNq9cqFAdW4iPMEzv1ZlgFp8SqYm3lACDMJM1XBHnv1faFjwpyUCWqduk9mty1Hx9hDs4861EHAFEh6RZFVPbg1uQ+PghNwVXjivs1rdcgZdIZIe+8Nco6xwFAFEmap4hKVSRU54bH8npQJap93aOaNXCEfCYj5F3a6mDt7QAgyiTdoAirWF2avWTDEKCcV//WpzVv5Hh574W8K7N+jNXHlgFA0lxFWMniZfZSx9sYBZSTmj74avZpVYZVMJZYz1prOQCIG0nXKuJWzV+kKhfwjiz6/2UfnFg+ex7DKv+8NcO60QFA3Emao4grW7ZSNS6/j7FA/6keH/+UPQvKsApmWI22TncAUCwkXWl5RVyipJQb3+mfO+fW7PctK38vCGRYDbAOdQBQjCTNUgxkny5sdPcLjAj6Q9Uuu1cTO/ZSOpkU8i5jdbb2dABQzCRdaHnFQDqVUodXP2NUUGUN73xOc0eM41ULwUhbza1tHQDAGEm9FBPee41p0amIhwV1fP0LLZ81N5j7q5Cy6lubOQDAb0na0koqRpZOm6UqF99dJKOCqlxwh0Y0aquK1SVCIBJWVWtDBwD4a5JeVMwky8rV7OHXYjwsqOFdz2v20NF8yiY4FdZ31noOAPDvSJqpmPEZr5GN28VuWPCahZ+1ct4iLgMGp9z6wlrXAQD+G0mHW14xtHrREjW449mIDwueBhzXppuS5RVCYMqsj611HADg/5PUUDHlMxnOZkWwFo++qQVjJ8lnvBCYUusDa20HAFhzktaxShRjJUuWqfkjb4R4VFD27fyjm3dS+crVXAYMfli9l4dhBQCQdLPlFWPee80ZOkbVLr03RMOCen76i5bNmFOYUcWwejfPH2AGAEhqoyKQSaU0pGazAo4KanL/K5o5cITSyZQQuBLr7YCGFQBA0lrWQhWJ7PuTen1WJaBRQdkzh6OatFfZ8pWcrSquM1YAAEn7WikVkdJlK9Tpra/yMip4GeidGvBzfS4BhuAeqwIPKwCApAcsryLiva98rUP3D3/MwbDgTNXQ2s20Yu6Cwo4qlFnvh2hYAQAktVORqlhdyj1a/7GaVz2okY3aatWCxYyqcAyrD3kqEAC4HyuU0smkpvYYoHo3P/kno4Lq3vS4xrbqopIlyxlV4VBufRLyYQUAkLSflVKR895XnpkZ8FN9/XTOrUU7qKpfdq/6/1hXC8ZMzH7zMVyjimH1WYSGFQBA0oOWt2Ay6bQWTZym3l9U00/n3hbrQfXL+bdVfv9v9uBRqlhVwqAK77cC13EAgOiR9AUj688/w7N0+mwNqtY4ew9S5AdV1YvvUrcPftC0XoNUupTLfiFWYX0Vg2EFAJDUVPjby4iJ0jLNGzVB/X6oqxpXPhDys1N3qP0rn2pc665aMnUml/yiM6y+idmwAgBI6i/868GVTiS1ct5CTe8zRH2/raVGdz0X/NN9Vz+kDq99ruH1WmnO0NGV95KlEomQjSkwrACAJwunCGs0vGzgVH58etHEqZrRd6jGtemmITWbqscnv6j1M++p0T0vqt4tT6rWtQ+r6qX3qHIsnXOrql9+n+re+Lga3f28mj/6RuUZqN5fVa8cTxM79tKsQSO1eOI0lSxeqmR5hXzGC5EfVt9Z6zoAQLxJ2sBaJAD5kijCYQUAkLSdtVoAcoczVgAASQdYCQHIxbD61lrHAQAg6SirXAD+77D6+g/DCgAASXvn+HIhwAtCAQCQtL21RAD+Ttl/+lYgAACSNrFmC8DvlVjvW2s5AAD+K0nrWuMFIGuV9VquhhUAgJeR9hdQvJZaTzsAAHJNUhvLCygeC6x7HAAA+STpdSsjIL68NdO6zgEAEBRJp1olAuLFW2OtsxwAAIUgaTNrrIDo81Z/61AHAEAYSPrJ8gKiJ2W1snZ2AACEjaRrrISAaCizfrA2cgAAhJmkXa25AsJrkfWcAwAgaiRVt7yAcPDWeOtSBwBAlEk6zlokoHBSVifrQAcAQJxIqmZ5AcFZZn1ire8AAPjfOJsFeGuMdbkDAKCYSPrBSgvInYTV1NrVAQBQrCTtZA22vID/x1sLrJestRwAADBG0iXWEgH/XsYaaJ3qAADAX5P0iZUS8Oe8tdT6wdrKAQCAf0fSllYrKyPAmKTVxTrRAQCANb4/q6vlhWLkrYnWIzm+twoAAEja2+pfVEOLS4A/Wts4AACQX5IOj/0Th1wCPMkBAICCfUS6tZUSoixlDbMeCsklQAAAIGlD6werTIiKhNXPutUBAIBwk/SsNcvyQtiUWl2syxwAAIgeSftZzaxyoVC8tcpqZZ3hAABAfEi63RpreSHfMtZsq451lAMAAPEmaVPrdWuClRFywVuLrFbWjdbaDgCA/+BX/c2HRblTh4wAAAAASUVORK5CYII=;" vertex="1" parent="1">
                    <mxGeometry x="210" y="170" width="60" height="60" as="geometry"/>
                </mxCell>
                <mxCell id="4" value="Vue" style="shape=image;verticalLabelPosition=bottom;labelBackgroundColor=default;verticalAlign=top;aspect=fixed;imageAspect=0;image=data:image/png,iVBORw0KGgoAAAANSUhEUgAABLAAAAQQCAYAAADyPaIhAAAABGdBTUEAALGPC/xhBQAAACBjSFJNAAB6JgAAgIQAAPoAAACA6AAAdTAAAOpgAAA6mAAAF3CculE8AAAABmJLR0QA/wD/AP+gvaeTAACAAElEQVR42uz9eZwc5WHv+3+fquqqnn3rFpsBs2M2s0hIM5JmJAeYkTDX9557rHPPeeW+js+9Jz+fa1vSSICQNIsKG7yBQ7zgeN8JtoWXeAk2RjMTAQE7Jk7i2I5jG0msArSgZfauen5/4CS2w6Jlpqaf7s/7Pxtp1PPp7qrnebq6HrP8+7fcKWvPFQDnjN+7+3x7cLqWEkA2THPukUfuuPNaSgCYCYtWv/1Be3j6dZQAsuEVooP5P5r3a0oA7rHW/tgs/96t10rpd8gBuKe0Y1Tj33qaEEBWfKPcpU0rHr7lQ98jBoDjsXBg7R8nP97/RUoAGTFGtf/5FPkn19ACcI+11nR6wz1937Wy99IDcE9wRp3807kAC8hMYmWfnvg8IQAclzj2tGv8TkIAGY6bz6tn8QpwlDG6a2RF/4Pei/8rWC9pmiyAe/KdRck3hAAyUnpmYt7ije8YoASAY9U++vxHk+cnGikBZMT3FHUU6AC4aczzkj5J8iRppHvzP1tZPgUCHOS1hspd3EQIIEPTO8f6r4hjLn8EcNSWxdcXkh0T/y8lgOyEV7bIawgIATjIWPOe+6+OH5d+u4AlSYrSmyXtIQ/gnmhRq0zeJwSQkfRAKQxf2HMXJQAcrYm9E99MR6eZSQNZTX4bAoWXtxACcNMTdaXSn/7r//i3BayR5fELxmiQPoCDJ+bIV9TeRgggQ6Udh9/UHl9/PiUAHKlFA2sXlnYeXkwJIDv5pUWZgNttAE7Oc625/tvXxWP/+r+93/2PbQfO+4SkfyAT4J7cxY3yCxEhgIzYqdSku8e+RgkAR3zc2D1xj0qWEEBG/JPzCs6uIwTg5ElTDw319N3zu//X7y1gbV21KvGUrqMU4CBjFHYV6QBkKHl87IIlfWvfTAkAr2bhxrVvS56aeA0lgIyGxvrtZkeGq68AB6Xy7FoZ83uf+nh/+Ke29WwZlvR1egHuCV5To+CsekIAWbFWU0+NfYIQAF7JsjgO7BOjt8ly9RWQ2bj4oiZ5J+QJATg5xjafGu4efPQP/2/vpf5sYnSDpAmqAe6JlhYlvucPZCZ9drK5/cY1t1ECwMuZOLj3c+m+KXYuBbKS87g/LOCugzYtbXmp//CSC1jbuwd2SPZP6Qa4x2sKFF7aTAggQ8mO0d5l8fUFSgD4Q2/oW3dKsuvwf6UEkJ1oUatMLTt0A06y5uaRa+PdLznXfdm/E6XvkfQ09QD3hAta5dVz0gayko5OBxP7xu+mBIA/NPbC+LfsWOJRAsiG15xT7vXNhACcZH6dt413vuz7++X+w8jy+LBkNxEQcPBtH3oK27kYBMhSacfoVYsG1i6kBIB/1b757X9U2jl+OSWA7ESdRRmf22kATrJ27b0r10y+3H9+xU+DhrsHvijph1QE3JN7XYP8E7lxJZCZkpWem7yLEAD+VbJ7+m6l3LgdyIp/Wq2CM+oIAbjp/uEVA3/1Sn/glS9nNsba1PRK4swLuMYYRV1sHQxkqfTE+FkLN659GyUAdGxcfVP6zESREkBGPKN8J99AAFwdRku291Xf5q/2B0ZW9j8i6Uv0BNzjn5hXcF49IYCsWCv7xOhty+I4IAZQvZbFb8lP7xq7mRJAdsLXN8triwgBODmG1oeHewZ/9mp/7IhuKGmmzSZJh6kKuCe/pCCT496xQFbSfVO1k6PPf4QSQPWaPFD3ZfvCNDNpICMm7ylc0EIIwE37QpPcciR/8IhmtUPX9T9lrHkfXQEHT+h1gXLzOaEDWSo9NvYnb+hbdwolgOrzhv7VZ03vGP3fKAFkJ2wvyNSwAzfg5HxVtu/7PfG+I/mzR3xZRpov3S5pB3kB90SXt8g08o0mICt2LPHGDk59hRJA9RnbW/qWJlNuQAlkxGsLFV7USAjATT9Lo/RTR/x+P9I/OLI8nrBGG+gLOCgwipZwU0sgS8mOQ4vbN7/9jygBVI8lfWvfXNo1dgElgOxEnUXJY80YcJFn0nUjy+PSEf/5o/nhI90D90i6n8yAe3LnNMg/pYYQQEZsIqXPlT5PCaB6TD019glZNu8GshKcXa/gtFpCAG6Olr+2rXvLD47mbxzDnZ1tr6QSsQH35LuKkuETKiAryVPjp3RsXH0TJYDKt2jD6tvTZyebKQFkw3hG+cV8wwBw1KRVuvFo/9JRL2AN9wz+TEafpjfgHq8YKXdRAyGADE3vGrt5WfyWPCWAyrUs7m1Odo6tpQSQndwVLTLNOUIADjLS7SM98a+Pej57LP9YaJPNkvaRHXBP1F6QiTxCABmxL0xHkwdrP0MJoHJN7Ju+xx6aZrcUIKvJb22gkF22AVftjtLk/cfyF49pFvv9nnifjG6hO+DgCb/GV7iwlRBAhqYfG/u/3tC/+ixKAJVnycD1VyQ7R99ACSA70ZKCTMgHsoCT81GZDfeujA8ey9895ne9DZMPS/oZ+QH3hJc0y2sJCQFkZTI1Y/unv0oIoPJMP3d4q51OucEkkBF/XqTgddwSA3DUo52PlO461r98zAtYI8vjkmfSdfQHXDzzG0VLueklkKXSzvHLO/rWvIkSQOVYtLH3fyZPTJxBCSAjxijqKooVY8BJ1lrTG8dxeqw/4Liuu9zWveUHMvorngfAPcEZdQpey7bDQGZSq+TpCe6FBVSKOPbsk6N3yFpaABnJndcg/+QaQgBu+uLIiv4Hj+cHHPcXh61N1kqa4rkA3BMtLUo+n2EBWUl2T7Qu2vCOLZQA3Lfo0N6PJ3sn6ykBZMMERmFHGyEAN40lxvQf7w857gWskZ7417K6k+cDcI/XGiq8pJkQQIbSXeN9C+O4kRKAuxbeuvaEdNfh/0EJIDvhglZ5DWz2CbjJ3Lq9u/+J456/zsRDydsklrSbJwVwcDCwsFWmxicEkJH04HTOvLDni5QAHB6G757+ejqacPIEsnrPNQTKXd5CCMBNO2xU+tOZ+EEzsoB178r4oLWKeV4ABwcEkaewncuxgSyVdhy+buHmtZdQAnBPR9/aztLO0Q5KANnJLy3KBNz2AnB0xnnjyPJ4YiZ+kjdTD2nZD5NPSnqUJwdwT3hRo7xiRAggK1OpMfunvkwIwD3Js5N3q8SN24Gs+CfXKDi7jhCAg6zM8HBP/9dm6ufN2AJWHMepPLtWEmd0wDXGKN9ZpAOQodLO0dctHFj7x5QA3LF489p1yVNjJ1MCyGiIKinqKkqGq68AByVG6bqZ/IHeTP6w4WsGHzJWX+N5Atzjv6ZGwdlspgRkatfYnYpjjxBA+XtzHIfTu8ZupQSQneDiJvnz+JYA4CIr88nhnsF/mMmfOeOD5pJn1ksa4+kC3BN1cn8BIEvJ85ON7aN7bqcEUP6eOLTn8+m+yRpKANkwoadoEfdpBRz1QpJ6gzP9Q2d8AWt7d/8T1tg/5fkC3OOxwwuQuWTn6Jpl8fUFSgDl68r+d5yRPDa6ihJAdsKFbTK1bPYJuMjI3PzAys3Pz/h8dTYebMNU+h5Jj/O0AQ4OFha0yjQEhAAykh5O/Il9E9zQHSjngfi+5Ot2IuHrvkBGvOaccpc2EQJwkv3nA4XinbNybJiNH/rt6+IxI9PPEwc4OEgPjKJ2LgYBslTacfiPFserF1ECKD8LN61fmTw+diklgOxEXUUZj9taAE7OJ41d/+j8t07Pxs+etU+Shrr7viTpQZ4+wD258+vln5wnBJCVklXpmam/IARQfuzuw59TwibbQFaC02oVvLaOEICbZ83vDnVvuXe2fvrsXQptjJWxvZJSnkTAMcYo6ponPvcCspM8MXHGwo1r30YJoHws3LT65nT3RJESQEY8o6iTtxzgqGlZc/2sHiJm84cPdw8+KulLPI+Ae/x5kYLzGwkBZMVa2SfHblsWx9yEDigDV8RxbbpjbCMlgOyElzbJawsJAbg5mP3w8IqBX87mvzDrN6P0Am+DpIM8mYB7oqUFmZB71gJZSfdO1k4c2vvnlADmXu7Ac1+2B6aZSQMZMXlP4YI2QgBuet5G6btm+x+Z9Znptqv6npXM+3g+AQcHErW+witaCAFkqLRj9P95Q9+6UygBzJ2F8eoLksfG3kgJIDtRR0EmzwengJsTR9s/sjx+Ybb/mUyOEIWDpduN9CueVcA9uSta5DXnCAFkZbzkjR6Y3EoIYA7tnv6anUq5FSSQEa8YKXcRt64AHPX3hQPnfzqTY0UW/8jWVfGUteIeAoCDjG8ULS4QAshQsmO0ffHg2qspAWRvcd/a/5I8Pn4+JYDs5DuLkmHNGHBSanu3rlqVZPFPZXaN5vCKga9bmR/w7ALuCc6uV3BaLSGA7AYCKj09+TlCANmbfnLsY7KWEEBW48xz6uW/poYQgIuMtg6vHPzrrP45L9vfLV0nqcSzDLgn6ixKHp+MAVlJnho7uX3jmk2UALKzeMPqO9LnJpspAWQkMMpzpT/gqgmbJhuy/AczXcAa7hn8maRP8jwD7vHaQoUXcm8CIEulnWNblsVvyVMCmH3t8brWqR2j76AEkJ3oshaZJu61CjjqtpEV8c5M56RZ/4ahkn5Je3muAfeE7A4DZMoemIomDtV/lhJABu+3fZP32MOlgBJANkxdoNx8drsG3HwD66mcyb8v638285no93vifUbmFp5xwMHjVN5TuKCNEECGSr85/F86+9ecQwlg9iwZuP6KZOfockoA2ckvKciEfDAKuMimduN93TeOZv3vzskRI41KH5H0TzztgHvCS5vktYWEALIymZrJfdNfJQQwe6afPXyPnebG7UBW/BPzCs6rJwTgIqNHRnoG7pqLf3pOFrBGlsclK63jmQcc5JkXtzoGkJlk19il7f29/zslgJm3dNPaP0menHgtJYCsJr9GUVdRMmwOBDjIGmvWypg5+dRnzq7ZHOkZuF+y3+X5B9zjn1ar4LV1hACyklqlT41+mhDAzFoWx8Hkk6N3yHL1FZCV3Osa5J/I/iSAk6y+MNTT/6O5+ue9uf3d015Jk7wKAPdEXUUZn0/OgKwkuydbF25afTMlgJkzeXDPx9I9U3wiA2TEhJ7C9gIhADcdDvxk81w+gDldwBrpiX9tpI/wOgDc4zXnlLukmRBAhuxjY5sWxnEjJYDjt/DWtSckj4++hRJAdsL5LfLqfUIATg5E9e4fXBM/Padz0LluMDkZ3ixpN68GwMFByKJWmVoGIUBW0oPTOe/AnrsoARw/s3vqm+lowkkMyOo915RTeFkLIQAXWfOYzSd3zPXDmPMFrIfedNMhIw3yigAcHIiEnqJFXAYOZGn6N4euXbh57SWUAI7d0neu6yrtHFtECSA7+SUFKeD2E4CT8z7phpHl8cRcPw6vHGJ0PpJ8WlY/5mUBuCe4uFH+vIgQQFamrdG+ya8QAjh2U4+P3a0SN24HMhsvvqZGwdn1hAAcZGWGh1b0f6McHktZLGDFcZzKt72SGEkAjjGSoq55bIUMZCjZNXZ+R9+a/5sSwNHr2Lz6+uSp8ZMoAWQ1WDSKOot0ABwddvrW9JbLg/HK5YEMXzP4kKStvD4A9/gn55XjUzUgU6XHx+9UHHuUAI7cm+M4THaO3UIJIDvhxY3yilytDzjJmI9vW9H3j+XycMpq4JsYc4OkMV4lgHuipQUZ7msAZCbdM9mweGzvBygBHLknDz3/xWT/dJ4SQEZz38hX2N5GCMBN++1UaUs5PaCyWsDa3t3/hCQG44CLA5SGgJ1lgIxN7zi8ell8PTspAEfgyv53nFF6bOw/UwLITrSoVSbPZp+Ai6x088h18Z5yekxl99WDiYN175H0OC8XwD25K1vlNQSEADKSHk78iX3jX6UEcASD3v2lb9iJhK/dAlm951pD5S5uIgTgICP94lBh3kfL7rhSbg/o4VXrx60xm3nJAA4e6AKjqIOLQYAslR4bXd7et6aDEsDLu3Kw99rSrvHXUwLITrS0IPncXgJwUSqtf3T+W6fL7XGV5adQI9f0/YWkB3nZAO4JzquXf3INIYCsJFb2+am7CAG8gifGPqeEza6BrPhn1Cl4bR0hAAdZa7890jPwvXJ8bOV5GbUx1shbKynl5QM4xhhFXQXxeRuQndKT469tv2nN2ykB/EcdN61+V7p7gsuDgaz4RvmlvOUAR035aXBDuT64sr0PwFBP398ZmS/w+gEcHLfMyyu4oJEQQFasVfLU+PuXxTE3oQN+x7L4bfXTO8c2UALITvj6ZnktISEAJ4eU9kPbrt38L+X6+Mr6RpYmMBslHeRlBLgnWtwmE3KvXCAr6d7J2slDez9OCeDfTe7Xl+3BaWbSQFaTy1pf4ZWthADc9FwQhLeU9TGmnB/ctqv6njXGvIfXEeAeUxsoXMAABsjS9I7Rt7yhb90plACkhfHqC0o7R1dSAshO2N4mE/EBJuAiK9t3/9UbD5TzYyz7o0vbgdKfGulXvJwA9+Qub5ZpzhECyMp4yRs7OHEPIQDJPFv6hp2y3JIRyGpiWYyUu5BbSACO+vviwfM/W/bHmXJ/gFtXxVOy5iZeT4CDkwfPKL+Ym3gCWSo9NrZo8eDaqymBata+cfV/Le0aO5cSQHbyXUXJsGYMOCm1vVtXrUrK/WE6cX3n0Ir+b8jqPl5VgHuCs+sVnF5LCCC7AYhKT098nhCoZskzE38uawkBZDXeO6de/ik1hADc9JXhlYN/7cIDdeYLyp7110kq8doC3BN1FiSPT+SAzCbvT42f1L5xzSZKoBotuv7tH0qfm2yiBJAR31N+SZEOgIuMxq1NNrrycJ1ZwNq2cvPPZcwneIUB7vFaI4UXcU8EIEulnWNblsVvyVMC1aQ9XteaPj7x/1ECyE44v0WmMSAE4CJrbxtZEe90Zl7p1MHRlgYk7eVVBjg4uGkvyNT4hACyGo8cmIomD9XxVUJU1+t+79TX0sPTzKSBjJi6QOEVzYQAnHwD66mcqXm/Sw/ZqQWs7/fE+2TNO3mlAQ4eH/OeoitbCQFkqPTr0Td39q85hxKoBh0Db1uQ7Dq8jBJAdvJLCjI5jxCAi6zdcF/3jaMuPWTnjjY2X/qoMfoprzbAPblLmuS1RYQAsjpnTqVmav/0VkqgGqTPplvtNDduB7Lin5RXcF49IQAXx4jSw8PdA3e79ridW8AaWR6XbJqu4yUHOMgzL26xDCAzpZ1jr1+0qfc/UQKVbOmmtX9SenL8dEoA2TCSos6iZNikB3BQ6sn0yhjnPvVx8nrP4RVbtllrv83rDnCPf2qN/DPqCAFkNkSxsrtHP0kIVKplcRxMPjF6hyxXXwGZjecuaJR/IvuEAI76/FBP/49cfODOfmHZs2adpElee4B78l1FGZ9P7ICsJLsnWzs2rLmFEqhEE4f3fCLdO8UnI0BGTOgpai8QAnDToZK8PlcfvLMLWEMrB34jow/x+gMcPPA05ZS7tJkQQIZKu0Y3LIzjRkqgkiy9dfNJyY6x/04JIDu5+S3y6tlZGnCRlW59oKfvGWfnkS7Hn5oI3yXpGV6GgHuiha0ytQx+gKykB6dz3v7n/oISqCTTz+z/hh0rsQUakNXksSlQdFkLIQAXWfNYTdr0Z04fg1x+8A+96aZDVnaQVyLgoJynqL2NDkCWk/0doysXbO69lBKoBEvfua4r2Tm6kBJAdqKlRSngNhCAi6xnr7935Rqnb8Pk/CdWyx5JP2Olv+XlCLgnuKhJ3gncABTIzLQ1/v7JrxAClWBq59iXbUIHILNx26m1Cs6qJwTgIquhke6Bb7r+azi/gBXHceoZ0yuJrWcAxxhJ+a4CWzADGSrtHD138aY13DMITuvYvPr65JnxEykBZDVoMwo7uXE74KgkSW1vJfwiFXHPgKHu/r+R9FVel4B7/JNqFJzN5lFAlqafHP+w4pj7BsFJb47jMNk5xq6aQIZyFzfJL0SEANz0se3XDv60En6Rihm82jS5QdIor03APfmlRRnupwBkJt0z2bDo0PN/Rgm46MmDe76U7J/m++dARkzkK2pvJQTgpv12Ookr5ZepmAWskZXxk8bqdl6fgIMDo4ZAuSsYGAFZSnaNv60jvmEeJeCSK/vfcUZpx+j/SQkgO+GiVpk8O0cDTs6zjLaMXBfvqZTfp6K+PjB+qO59knbxMgXcEy1olteQIwSQETta8tO949zQHW4NXPcl37QTCV9/BbJ6z7WGCi9uIgTgICP94kDbvI9V1DGpkn6Zh1etHzfWbOKlCjjI9xQubqMDkKHSjsPL2vvWdFACLljSt/q60uNjl1ACyE6+syj53OYBcJG16bpH5791upJ+p4r7BGuop+/LVnqAlyvgnty59QpOqSEEkJXEyj4/9ReEgAumn5n8jBI2nQayEpxZL//0WkIAbvrW8Iot36+0X6ryLsE2xqapXSsp5TULOPf+VdhZEJ/zAdkpPTF2esfmNaspgXLWvuEd706emShQAshoSOYZRUu5Mh5w1JSX+DdW4i9WkfcQ2L5y8CeS+RyvW8A9/ry8ggsaCQFkqLRr7H3L4jigBMrRsvht9aVd49dTAshO7rJmec0hIQAn2T/bdu3mf6nE36xib4KZM6VNkg7w4gXcEy1uk4m4Ry+QlXTfVM3E4T2foATK0cQL3lftwWlm0kBWE8RaX+ECdocGHPWc74fvrtjjU6X+Yvd1x89Z6T28fgH3mNpA4XwGTkCWksdG/3tnX9+plEA5WRivviDZcaiHEkB2wg4+SARcZa0233/1xoq9kKeij0zFg8kdkv0XXsaAe3KXN8s05wgBZDXgGU+8qQP7tlICZeWZ0jfslOXWiEBWk8NipBy3cgCcZKSfLPth8tmKPkZV8i+3dVU8JXkbeCkDDh6APaP8Eu7XC2SptGNsYWf/umsogXLQvnH1f00eHz2XEkB28l1FybBmDLg5gTK9cRxX9GZ2FX9t6HBP/19K5vu8mgH3BGfVK2D7ZiA7qdXkM2OfJwTmXBx76TOTf04IIMNx17kN8k+pIQTgpruHuvu3V/ovWRVfbvZSb72kaV7TgHuizoLk8UkgkJXk6fETF920ejMlMJfaD+/9YPLcRBMlgIz4nqIlbXQAXGQ0bhKzqRp+1apYwNq2cvPPrczHeWUDDh6kWiPlLmIOA2Qp3TU+eEUcc/kj5kR7vK412TX2vygBZCdc0CyvgXuPAi4yqd4/dG3/rqqYG1bLk1oq+YOS9vDyBtwTdbTK1PiEADKSHpiKwgPP81VCzAm7b/Lr6eHpgBJARpPf+kDh5S2EANz0ZODlb6uWX7ZqFrAefOOm/Ub2Zl7fgIMDq8hXeGUrIYAMlR4b/T+XxG/nBtrIVMfA2xYkO0e7KAFkJ1pSkMl5hAAcZK298b7uG0er5fetqiNV28Hz/9wY/ZSXOeCe8PVN8tpCQgBZDYimUlN6Lt1KCWQp3Z3cY6ctIYCM+CfllTu3nhCAi2M16eGRnoGvVNPvXFULWFtXrUok9fJSBxxkjPJd8+gAZKi0c+ySRZt6/xMlkIXFm1a/tfTUxGmUADIaWkmKuuZJhs1yAAelvrVrZUxVfepTddeKDnUPDEn2L3m9A+7xT61RcGYdIYCsWCv79NinCIHZtiyOg+knxj8gy9VXQFaCCxvlnxARAnCR0We3rRj822r7tavyy85+kK6XNMmrHnBP1FmU8fmkEMhK8txES/uGd7ybEphN44f3fDrdO8UnFEBWcp6i9jY6AG46VLLeQDX+4lW5gHX/VfFjkv0gr3vAwYNWU065S5sJAWSotHPshoVx3EgJzIalt24+Kd0x9seUALITLWyRqWOzT8BJVu96oKfvmaqcC1brcz41Gd0i6Rle/YCLg65WBl1AluOkQ6WceWHPlymB2TD99P6/tGMltkADspoANgXKXdpCCMBNv8nbpg9V7fGrWn/xh9500yEZ28/rH3BQzlPU3koHIEOlxw71LNjceyklMJMWD65fnuwaXUAJIDvcjgFwmNX6e1euqdrbIVX1p11dD6efs9Lf8i4A3BNc2MSNR4EsTVvj7Z34KiEwk0pPHb7bJnQAMhs/nVqr4Mx6QgBOMtuGVwx8q5oLVPUCVhzHL249KbHlDeDa4Vts/QxkLXl87JyOTWv+ByUwExbftOaG5OmJEygBZDV4Moq6inQAHB2GJUm6rtojVP39BratGHxYEvf1ABzkn5RXcA6fIgJZKj01/kHFMfcrwnFZFr8lP/342LsoAWQnvKRRXltICMBFVh/dfu3gT6s9AwNQSTZNNkgapQTgnvzSgkyOQxmQlfT5yYb20b0fogSOx8QL9XelL0zlKQFkw0S+wkVthADctN/L+TeTgQUsSdLIyvhJa3QbJQAHB2T1gXJXNBMCyFDpscP/qyO+YR4lcCze0L/6rNKuw/8HJYDshO1tMnmfEICDrDSw7arNeynBAta/mTxQ935JuygBuCea3yKvIUcIIKuB1Fjip/vGuKE7jsnYvtI3NZFyA0Mgqwlfa6TwokZCAG6Oun6uKPk4HX57PCPBix5etX7cWruREoCDfE/hYi6LB7JUemy0a0nf2iWUwNFY0rf6utKusYsoAWQn6ixIPmvGgJOsXT+yPC4R4kUsYP2OkRWDX5a0nRKAe3LnNcg/pYYQQFYSq9JzE3cRAkdj+unJzypl82cgK8GZ9QpOryUE4CAjfXN4xZbvU+LfsYD1h+Px1PZKSigBuCffVRSfLwLZKT05flrH5jWrKYEj0bFh7XuT3RNcLgtkNfn1jKKlvOUAR02VPG0gw+9jAesPbF85+BMZfY4SgIMHtGKk4ELu8QBkqbRr7H1vjmP2ZccrWha/rX5616H1lACyk7u8WV4zh2fARUa6Y/s1A7+ixB/M90jwEgd7JZslHaAE4J6woyATcWgDspLum6p5/PCeT1ICr2R8v7nHHiyx2waQ1SSv1lc4v5UQgJue9fzce8jwEsc2EvxH93XHz8nqVkoAjg7YFrQQAshQ+tjoH3f29Z1KCbyUjnjNRcnO0WsoAWSHD/QAdxlp0/1Xb+SCmpea65HgpRUOJR+U7L9QAnBP7rIWLpkHMmTHE2/qhX1fowReSrJ7+huaSrlFIZDVBI9bKgAu+7vOR5LPk+Fljm8keGlbV8VTxng3UAJwz4s3LS0QAshQaefYgs7+dVxlg9/Tvnntf0t2jZ5NCSCrQZBRxKY2gKusJ9sbx3FKipfGAtYrGOru/7ak71ECcE9wZh3bRgNZSq0mnxn9AiHwb+LYS58c/3NCANnJnVuv4JQaQgBuuntbz+ADZHh5LGC9isTXeknTlADcE3UWJZ/PIIHMzplPT5zQcdPafkpAkjoO7/1I8vwE32MCsuJ7Che30QFwkdG4ScxmQrwyFrBexfarB34hY/n0EHDxANcaKry4iRBAhkq7RvuviGMuf6xy7fG61tLOsT+hBJCdaH6LvAY2+wScZM17h67t30WIV5nfkeDVTU/nYkl7KAG4J1zUKpP3CQFkJD0wFeVe2PNFSlS5vZPfTEenA0IA2TD1gXJXNBMCcNOT9dOl28nw6ljAOgIPvnHTfivFlAAcHNBFvqL2VkIAGUp2HP4/lsRvP5cS1WnRwNqF0ztHl1ICyE5+aUEmx9QOcJE15oZvXxePUeLVcZQ7QsWD531M0j9SAnBP7uImeW0hIYCsBmJTqSk9l36NEtUpfWZiq0qWEEBG/JNqFJxTTwjATX8zck3fV8lwZFjAOkJbV61KjNE6SgAO+u2W0gCyU9o5dlHHpt7/TInqsrhvzf9Kn544lRJARkMc6cUxjmHTGsBBqfXMWhnDpz5HiAWsozDUPTBkpG9SAnBPcGqtgrP4dBLIjLVKnh77BCGqx7I4DqZ3jd0uyzgcyGx8c2Gj/BMiQgAOMjKfGbmm/8eUOHIsYB1tsCC5XtIEJQD3REuLMj6fUAJZSZ6baOnYsPa9lKgOUwf3fDbdO1VHCSAjOU9RexsdADcdmpYZJMPRYQHrKN1/VfyYtfbPKAE4eMBrCpS7rJkQQIamdx5avyzu5Y1X4Zbeuvmk6V2j/40SQHaiha0ydWz2CbjIGPPOB3r6nqHEUc7nSHAM8umtkp4mBODgYO9KBntAluyhUm58//SXKVHZSs+88C07ljCuBLKaxDXllLu0mRCAm34TJY0fJsMxHPtIcPRGlseHrbV9lAAclPMUdXC5PZCldMfoNe0D6y+jRGVq3/z2PyrtPDyfEkB2os4Ct0UAHGWNeu9duWaSEkePBaxjtOyH6Rck/YgSgHuCCxrln5gnBJDVQG06Nenz42wRXanP7+7pv7AJHYCs+KfWKDiTjWkAN5ltI90D36HDsWEB6xjFcZx61vZKYqsdwLXThqSoky2ngSwlj4+d3bFpzf+gRGVZdNOaDaVnJuZRAshq9maU7yrSAXBTyRrTS4bjOASS4NhtWzH4sKz+ghKAe/yT8sqdy6eXQGasVfLk2IcUx4w9KsSy+C359PGxmykBZCe8pEleW0QIwEFGunOku++fKHHsGEQe74uwZG6SNEoJwD3R0oJMjsMgkJVkz1R9x+G9H6FEZZh8of7u9IUpvo8NZDXvyHsKr2wlBOCmfSbw30WG48PM7TgNXdf/lGTeTwnAwYFgXaDwimZCABma3nH4/9cR38BXzhz3hv7VZ03vOvwmSgDZidoLMjU+IQAX5x1G/duu2ryXEseHBawZMHGw9jbJ7KQE4J5wfotMY0AIICN2LPHt3rF7KOG20T2lb2ki5UaCQFaTttZIuYsaCQG4Ofr5eRomn6TDDBwLSXD8Hl61flxKb6IE4CDfU35xgQ5AhqZ3ji5d0rd2CSXc1NG35k3JE2MXUALITtRZkDzWjAEXGc+sG1kelyhx/FjAmiHDPYNfldFfUwJwT3Bug/xTaggBZKVkNf3cxN2EcFPy1OSnlbIJM5DZOOWsegWn1xICcNPXh64ZuI8MM4MFrBlkjdcrKaEE4J58V1EyfLIJZCV5cvw1HZtWr6GEW9pvXHNb8ux4GyWAbBjPKL+EK8UBR00lnjaSYeawgDWDRq7p+3tJn6EE4ODBsBgpd0EDIYAMlXaNv/fNcRxSwg3L4rfVJ4+PrqUEkJ3wihaZ5hwhABcZfWD7NQO/IsQMztlIMLNyJumX9AIlAAcHiR0FmYjDIpCVdP9UzVMH93yaEm6Y2G++nh6cZiYNZDX3rQ2Um99CCMBNz+aT5L1kmFnM1GbYfd3xc1a6hRKAgwfEWl/hglZCABma3jn63zpuefvplChvHfGai0o7R6+iBJCd/OI2mZDpGuAia8xN966MD1JihudrJJh5xYPJhyX9khKAe3KXNctr5htNQGYDvPHEs7vtPZQob+kzU9/UVMqNAoGM+PPy8i9oJATgpr9b9nDpi2SYeSxgzYKtq+Ipa3QDJQD3GM8oWsr9iYEsTe8cnd/ev6aHEuVp4cDaPy49PnYWJYCsBiNGUVdBrBgDTrLWmrVxHKekmHksYM2Ske6B71jZeykBuCc4s14+21UD2Ums7NMTnydEGYpjT7vG7yQEkOE45Lx6+SfXEAJwkDG6a2RF/4OUmB0sYM3qqzdYL2maEIB78p1FyeezTyArpWcm5i3e+I4BSpSX9tHnP5o8P8H3mICs+J6ijgIdADeNeV7SR4bZwwLWLBrp3vzPRvooJQAHD46tocKLmwgBZGh651j/FXHM5Y9lYll8fSHZMfH/UgLITnhli7yGgBCAg4w177n/6vhxSsziHI0Es2uqFNwsaQ8lAAcHkYtaZfI+IYCMpAdKYfjCnrsoUR4m9k58Mx2dZiYNZDX5bQgUXt5CCMBNT9SVSn9KhtnFAtYse/CNm/Ybo0FKAA4OJCNfUTs3dAeyVNpx+E3t8fXnU2JuLRpYu7C08/BiSgDZyS8tygTcvgBwct5gzfXfvi4eo8TsYgErA20HzvuEpH+gBOCe3MWN8gsRIYCM2KnUpLvHvkaJOX4edk/co5IlBJAR/+S8grPrCAE4edLUQ0M9ffcQYvaxgJWBratWJZ7SdZQAHGSMwq4iHYAMJY+PXbCkb+2bKTE3Fm5c+7bkqYnXUALIaKih324eY7j6CnBQKs+ulTF86pMBFrAysq1ny7Ckr1MCcE/wmhoFZ9UTAsiKtZp+cvzjhMjesjgO7BOjt8kyDgcyG2dc3CjvhDwhACfHLOZTw92DjxIiGyxgZSgxukHSBCUA90RLixL3pQCyO2c+N9HSfuOa2yiRrYmDez+X7ptiJ0ggKzlP0aICHQA3HbRpaQsZssMCVoa2dw/skCw7EwAuHiybAoWXNhMCyFBp12jvsriXN15G3tC37pRk1+H/SgkgO9GiVpladjwGnGTNzSPXxrsJkeGcjAQZv8aj9D2SnqYE4J5wQau8egaZQGbnzEPTwcT+6a9SIhtjL4x/y44ljA2BrCZizTnlXt9MCMBJ5td523gnHTI+bpIgWyPL48PWmM2UABw8TYWewnYu8weylOwYvap9YP1llJhd7Zvf/kelneOXUwLITtRZlPG5PQHg6Myg996VaybpkC0WsObAyDV9X5D0Q0oA7sm9rkH+idxoFciKnU6NfW5sKyVmV/LM9N1KuXE7kBX/tFoFZ9QRAnDT/cM9fd8lQ/ZYwJoLxlibml5JjBQB996/irrY6hrIUumJ8bPaN6/+fygxOzo2rr4p3T1RpASQ1QzMKN/JFd2Aq8MSyfaSYY4OnySYGyMr+x8xRndRAnCPf2JewXn1hACyYq3SJ8Y/qDhm3DLDlsVvyU/vGruZEkB2wtc3y2uLCAG4OCSR/chwz+DPKDE3GAjOpSmzUdJhQgDuyS8pyOQ4hAJZSfZM1bePPv9RSsysiRfqv2JfmGYmDWTE5D2FC1oIAbhpnx8Et5Bh7jD7mkND1/U/Zax5HyUABwegdYFy8xmAAlkqPTb2J2/oW3cKJWZGe3z9+cmOw9dRAshO2FGQqWFHY8DJ8b9s37arNu+lxNxhAWuOpfnS7ZJ2UAJwT3R5i0xjQAggI3Ys8cYOTn2FEjPU89mxr9mplBv6AVlNvNpChRc2EgJw08/SKP0UGeb4OEqCuTWyPJ6wRhsoATgoMIqWcBNWIEvJjkOL2ze//Y8ocXyW9K19c2nX2AWUALITdRYljzVjwEWeSdeNLI9LlJjj54EEc2+ke+AeSSOUANyTO6dB/ik1hAAyYhMpfb70OUocn6mnxj4hy2bIQFaCs+sVnFZLCMDN0cfXtnVv+QEd5h4LWOXzpuiVlNABcE++qygZPlEFspI8Of6ajo2rb6LEsVm0YfXt6bOTzZQAsmE8o2gxV2wDjpq0SjeSoTywgFUmhnsG/0FGfKcWcPFAWoyUu6iBEECGpneN3bwsfkueEkdnWdzbnOwcW0sJIDu5K1rkNecIATjISLeP9MS/pkSZzLtIUD5KiT8g6QVKAO6J2gsyEYdUICv2helo4mADH/wcpYl90/fYQ9PsPgFkNfmtDRSyazHgqt1RmryfDOWD2VYZeWDl5udlzbsoATg4QK3xFS5sJQSQodJjh/7bG/pXn0WJI7Nk4Porkp2jb6AEkJ1oSUEmZMoFODm+l9lw78r4ICXKB0fTMmPzpQ9J+hklAPeElzTLawkJAWRlMjVj+6e/SogjM/3c4a12OuWGfUBG/HmRgtdxiwHAUY92PlK6iwzlhQWsMjOyPC55Jl1HCcDFkapRtJSbtAJZKu0cv7yjb82bKPHKFm3s/Z/JExNnUALIiDGKuopixRhwkrXW9MZxnJKivLCAVYa2dW/5gZW9lxKAe4Iz6hS8lm2ygcykVslTk58mxCuIY88+OXqHrKUFkJHceQ3yT64hBOCmL46s6H+QDOWHBazyHZGvkTRFB8A90dKi5POZK5CV5NnxtkUb3rGFEi9t0aG9H0/2TtZTAsiGCYzCjjZCAG4aS4zpJ0N5YgGrTI30xL+W1Z2UABw8sLaGCi9pJgSQoXTXeN/COG6kxO9beOvaE9Jdh/8HJYDshAta5TWw2SfgImv07u3d/U9QokznWSQoX3mbxJJ2UwJwcPC6sFWmxicEkJH04HTOO/D8Fyjx+8zu6a+nowkHIyCr91xDoNzlLYQA3PR4w1RyBxnKFwtYZezelfFBaxVTAnBwABt5Ctv5+gCQpenHRv+3hZvXXkKJF3X0re0s7RztoASQnfzSokzAbQQAR0fw6799XTxGh/LFAlaZW/bD5JOSHqUE4J7wokZ5xYgQQFamUmP2T91NiBclz07erRI3bgey4p9co+DsOkIAbnpwuLvv62Qobyxglbk4jlNrTa8kRqCAa4xR1FmkA5Ch0s7RCxYOrP3jau+wePPadclTYyfzigAyOuVLirqKkuHqK8BBiWTfIWOYc5c5FrAcMLKi/0Fj9TVKAO4JXlOj4Gw2/wIytWvsTsVx1Y5x3hzH4fSusVt5IQAZnu8vbpI/j6uuARdZmU8O9wz+AyXKHwtYjih5Zr0kvo8LOCi/pCBxPwwgM8nzk42Lxva+v1p//ycO7fl8um+yhlcCkA0TeooWcd9LwFEvJKk3SAY3sIDliO3d/U8YiR0RABcHtk05hexIBGQq3XG4d1l8faHafu8r+99xRvLY6CpeAUB2woVtMrVs9gk4OU6XufmBlZufp4QbWMBySN108m5Jj1MCcHBwu6BVpiEgBJCR9HDiT+yb+HLVDcT3JV+3EwnjOyCryVRzTrlLmwgBOMn+84FC8U46OHTMJYE7vn1dPGZk+ikBODipDIyi9gIhgAyVdhz+o8Xx6kXV8vsu3LR+ZfL42KU880B2oq6ijMdtAgAnx+fGrn90/lunKeEOFrAcM9Td9yVZPUQJwD258+vln5wnBJCVklXpmem7quXXtbsPf04JGygBWQlOq1Xw2jpCAG6eNb871L3lXjq4hQUs1xhj5dm1klJiAM69fxV1zROf0wLZSZ4YP3PhxrVvq/Tfc+Gm1TenuyeKPONAVrMoo6iTtxzgqGlZcz0ZHDz0ksA9w92Dj0r6EiUA9/jzIgXnNxICyIq1sk+M3rYsjiv2JnTL4rfVpzvGNvJkA9kJX98sry0kBODm4ODDwysGfkkH97CA5eoTF3gbJB2kBOCeaGlBJuTwC2Ql3TdVOzm6p2Jv0jpxQH9hD0wzkwYyYmp8hQtbCQG46Xkbpe8ig5uYQTlq21V9z0rmfZQAHBz41voKr2ghBJCh6d+M/c839K07pdJ+r4Xx6guSx8beyDMMZCdqb5OJmEYBbg7Ebf/I8vgFQriJI6/D8mnjByTza0oA7sld0SKvOUcIICvjJW/s4ORXK+732j39NTuVcms9IKvJUzFS7iJuBQA46h8KB87/NBkcPgaTwF33rlwzKYl7XgAOMr5RtLhACCBDpcdGOxYPrr26Un6fxX1r/0vy+Pj5PLNAdvKdRcmwZgy4yFr1bl21KqGEu1jActxwT//XrMwPKAG4Jzi7XsFptYQAspJalZ6e/Fyl/DrTT459TNbyvAJZnbfPqZf/mhpCAC4y2jqyYmCEEG5jAasi3ovpOkklSgDuiTqLkscnuUBWkqfGTu7YuPom13+PxRtW35E+N9nMMwpkJDDKc+U04KoJmyYbyOA+FrAqwHDP4M+szKcoATh4EG4LFV7IvTSALE3vGrt5WfyWvKuPvz1e1zq1Y/QdPJNAdqLLWmSauHcl4CJr7O0jK+KdlKiAuRMJKuSkqlKfpL2UANwTdhRk8hyOgcwGsi9MRxOH6j/r7OPfN3mPPVwKeCaBbJi6QLn57B4MuPkG1lMK0/cRojIwY6oQ3++J9xmZWygBOHhezXsKF7QRAshQ6TeH/0tn/5pzXHvcSwauvyLZObqcZxDITn5JQSZk2gS4yKZ248jy+DAlKgNH4gqSRqWPSPonSgDuCS9tktcWEgLIymRqJvdNf9W1hz397OF77DQ3bgey4p+YV3BePSEAFxk9MtIzcBchKgcLWBVkZHlcstI6SgAuHo3Ni1tzA8hMsmvs0vb+3v/dlce7dNPaP0menHgtzxyQ1eTXKOoqSobNVgAHWWPNWhnDpz6VNGUiQWUZ6Rm4X7LfpQTgHv+0WgWvrSMEkJXUKn1q7NMuPNRlcRxMPjl6hyzjcCArudc1yD8xTwjARVZfGOrp/xEhKgsLWBX5Xk17JU1SAnBP1FWU8fmkF8hKsnuideGm1TeX++OcPLjnY+meKVa4gYyY0FPYXiAE4KbDgZ9sJkPlYQGrAo30xL820kcoATh4UG7OKXdJMyGADNnHxjYtjOPGcn18C29de0Ly+OhbeKaA7ITzW+TV+4QAnDyx690/uCZ+mhAVOFciQWWanAxvlrSbEoCDg+ZFrTK1DJqBrKQHp3PmwHNfKtfHZ3ZPfTMdTTgoAFm955pyCi9rIQTgImses/nkDkJUJhawKtRDb7rpkIzdQgnAwYFz6ClaxNcWgCyVfjP6xoWb115Sbo9r6TvXdZV2ji3iGQKyk19SkAK+zg84OY6WbhhZHk9QojKxgFXBuh5OPyWrH1MCcE9wcaP8eREhgKxMW6N9k18pt4c19fjY3Spx43Ygs/Pva2oUnF1PCMBBVmZ4aEX/NyhRuVjAqmBxHKfyba8kRr6AY4ykqGseW3cDGUp2jZ3f0bfm/y6Xx9OxefX1yVPjJ/HMAFmdfI3CriIdAEdP4741vWSobCxgVbjhawYfktE9lADc45+cV45PgYFsR79PjH9EcTzn46M3x3GY7By7hWcEyE54caP8Alc/A04y5uPbVvT9IyEqGwtY1TAYl7le0hglAPdESwsy3IcDyO6c+fxk4+KxvR+Y68fx5KHnv5jsn87zjAAZzX0jX2F7GyEAN+23UyXu/1wFWMCqAtu7+5+Q9AFKAA4OqBsCdkICMja94/DqZfH1c7aTwpX97zij9NjYf+aZALITLWqVybPZJ+AiK908cl28hxKVjwWsKjFxsO49kh6nBOCe3JWt8hoCQgAZSQ8n/vj+iTm7obu3v/QNO5EwRgOyes+1hspd3EQIwEFG+sWhwryPUqJKjtckqA4Pr1o/bo3ZTAnAwRNzYBR1FAgBZCj5zeE3LI5XL8r6371ysPfa0q7x1/MMANmJlhYkn6/rAy5KpfWPzn/rNCWqAwtYVWTkmr6/kPQgJQD3BOfVyz+5hhBAVhKr0tNTd2f+7z4x9jklbB4MZMU/o07Ba+sIATjISN8Z6Rn4HiWqBwtYVfUON9bIWyspJQbg3PtXUVdRfD4MZCd5cuK17TeteXtW/17HhjW3pLsnuNwSyOrU6hnll/KWAxw1Za1uIEN1YQGrygz19P2dkfkCJQD3+PMiBRc0EgLIirVKnhp//7I4nvWb0C2L31Y/vWv0RqID2cld2iyvJSQE4OQp2n5oeMXALylRXVjAqkImMBslHaQE4J5ocZtMyKEbyEq6d7J28uCej832vzO5X1+2B6eZSQNZTYJqfYVXthICcNNzQRDeQoYqPHaToPpsu6rvWVm9lxKAe0xtoHABA24gS9M7x/7HG/rWnTJbP39hvPqC0s7RlZQGshO2t8lETIUAF1nZvvuv3niAEtWHo3aVKhxKPmCkX1ECcE/u8maZ5hwhgKyMl7yxgxP3zNaPN8+WvmGnLLe4A7KaABUj5S7kK/mAo/6+ePD8z5KhSo/fJKhOW1fFU7LmJkoA7jGeUX4xN50FslR6bGzR4sG1V8/0z23fuPq/lnaOnkthIDv5rqJkWDMGnJTa3q2rViWEqE4sYFWxoRX935DVfZQA3BOcXa/g9FpCANkNmFV6evxzM/1jk2cm/py4QIbnz3Pq5Z9SQwjATV8ZXjn412SoXixgVfsLwPrrJJUoAbgn6ixIHp8gA1lJnpo4uX3jmk0z9fMWXf/2D6XPTTZRFsiI7ym/pEgHwEVG49YmGwlR3VjAqnLbVm7+uYz5BCUABw/grZHCi7iHB5Cl0s6xLcvit+SP9+e0x+ta08cn/j+KAtkJ57fINAaEAFxk7W0jK+KdhKjy+Q8JENrSgKS9lAAcfP+2F2RqfEIAWY2fD0xFUy/Uf+64f87eqa+lh6eZSQMZMXWBwiuaCQE4+QbWUzlT835CgAUs6Ps98T5Z805KAA6ez/OeoitbCQFkaGrn4VWd/WvOOda/3zHwtgXJrsPLKAlkJ7+kIJNj6gM4ydoN93XfOEoIcBTHi8eEfOmjkv6JEoB7cpc0yWuLCAFkZTI1U/unth7rX0+fTbfaaUtHICP+SXkF59UTAnBxnio9PNw9cDclILGAhd8aWR6XZNNeSgAuHsnNi1uCA8hMaef46xdt6v1PR/v3lm5a+yelJ8dPpyCQDSMp6ixKhk1PAAelnkyvjOFTH7w47SEB/tXwii3brLXfpgTgHv/UGvln1BECyGxIbWV3j37yaP7KsjgOJp8YvUOWcTiQ2fnxgkb5J+YJAbjp80M9/T8iA/4VC1j4/ReENeskTVICcE++qyjj8wkzkJVk92Rrx02r33Wkf37i8J5PpHunWGkGMmJCT1F7gRCAmw6V5PWRAb+LBSz8nqGVA7+x1n6YEoCDB/SmnHKXNhMCyFBp59hNC+O48dX+3NJbN5+U7Bj77xQDspOb3yKvnp16ARdZ6dYHevqeoQR+b75DAvyh6anonZI4WAAOiha2ytQyWAeykh6cznn7n/uLVz23PrP/G3asxLgLyGqS0xQouqyFEICLrHlMUfJBQuA/HNtJgD/00JtuOmRlBykBOCjnKWpvowOQoekdoysXbO699OX++9J3rutKdo4upBSQnWhpUQr4Wj3gIuvZ60eWxxOUwB9iAQsvadkj6Wdk9WNKAO4JLmqSdwI3rAUyM21NsG/iyy/3n6d2jn3ZJmQCMjsPnlqr4Kx6QgAushoa6R74JiHwUljAwkuK4zg1nlkria2SAMcYSfmuAluGAxma3jV23uJNa/7DPa46Nq++Pnlm/EQKAVmdBI3CTm7cDjgqSVLbSwa8HBaw8LKGuvv/RtJXKQG4xz+pRsHZbHYGZGn6yfEPK47/bWz15jgOk51jt1AGyE7u4ib5hYgQgJs+tv3awZ+SAS+HBSy8IpsmN0gapQTgnvzSogz3/wAyk+6ZbGgf3/en//q/nzy450vJ/mm+zwtkxES+ovZWQgBu2m+nk5gMeMXjPAnwat5w77tia7SFEoB7Jh/Zp6kf7iUEkNXAqi5Iche1nlwqTdTZn43+2k4kfFgIZCTqKiq8tJkQgIvnT6M1Q90DH6YEXgmDKryq8UN175O0ixKAg4P5Bc3yGnKEADJiR0t+unf8K96+5JssXgEZTmpaQ4UXNxECcJCRfnGgbd7HKIFXPdaTAK/m4VXrxyW7mRKAg3xP4eI2OgAZKu04vKy0a+wSSgDZiTqLks+XSwAneep9dP5bpwmBV3+pAEdguHvgbis9QAnAPblz6xWcUkMIICuJlVI28QWyEpxZp+D0WkIAbvrW0DUD95EBR4IFLBwZY2ya2rWSUmIAzr1/FXYWuOkhAKDyTnGeUbS0QAjATVNe4t9IBhwpFrBwxLavHPyJpM9TAnCPPy+v4IJGQgAAKkrusmZ5zSEhACfZP9t27eZ/oQOOFAtYOLoXTOBtknSAEoB7osVtMiGHfQBAhYxLa32FC1oJAbjpOd8P300GHNVxnwQ4Gtuu6nvWSu+hBOAeUxsoN7+FEACAihB2tMlETGcAF1mrzfdfvZELI3BUOOLjqBUPJndIlks9ARcH+1e0yDTnCAEAcHsSU4wUXNhECMBBRvrJsh8mn6UEjvrYTwIcra2r4inJ20AJwMEBg2eUX8LNbgEAbst3FdmcBHB2QGp64zhmczAcNRawcEyGe/r/UjLfpwTgnuCserYbBwC4ex47t0H+KTWEABxkrL481N2/nRI4Fixg4dhfPKm3XtI0JQD3RJ0FyeOzawCAY3xP0ZI2OgAuMhpXajYSAseKBSwcs20rN//cynycEoCDB//WSLmLuHcIAMAt4YJmeQ3cyxFwkUn1/qFr+3dRAsc8hyEBjkep5A9K2ksJwD1RR6tMjU8IAIAbk9/6QOHl7KYLOOrJwMvfRgYcDxawcFwefOOm/cboZkoADk4EIl/hla2EAAA4IVpSkMkxfQFcZK298b7uG0cpgePBGQDHre3AeR81Rj+lBOCe8PVN8tpCQgAAypp/Ul65c+sJATjISg+P9Ax8hRI4Xixg4bhtXbUqkdRLCcBBxijfNY8OAIDyPVVJirrmSYbNRwAHpb61a2WMJQWOFwtYmBFD3QNDkr5FCcA9/qk1Cs6sIwQAoCwFFzbKPyEiBOAio89uWzH4t4TATGABCzN3bEq1XtIkJQD3RJ1FGZ9PtgEAZSbnKWpvowPgpkMl6w2QATOFBSzMmKGVA7+R7AcpATh4MmjKKXdpMyEAAGUlWtgiUxcQAnCSueWBnr5n6IAZm7OQADNpajK6RRIHKcDJSUIrkwQAQPlMVJoC5S5tIQTgpt/k00YubsDMnhdIgJn00JtuOiRj+ykBOCjnKWpvpQMAoCzw9XbAYVbr7125htvLYEaxgIUZ1/Vw+jkrcaM+wEHBhU3cKBcAMPfno1NrFZxZTwjARVZDwysG2OALM44FLMy4OI5f3CpVYqtUwDFsVQ4AmPuTkVHUVaQD4KYkSW0vGTAbWMDCrNi2YvBhSV+mBOAe/6S8gnP41BsAMDfC1zfJawsJAbjI6qPbrx38KSEwG1jAwuwdu9Jkg6RRSgDuyS8tyOQ4RQAAsmUiX+GV3I8RcNR+L+ffTAbMFmYnmDUjK+MnjdXtlAAcnEDUB8pd0UwIAECmwvY2mRqfEICDrDSw7arNeymB2cICFmbV+KG690naRQnAPdH8FnkNOUIAALKZmLRGCi9qJATgJPvzQ4V5n6ADZvU8QQLMpodXrR+31m6kBOAg31O4uI0OAIBMRJ0FyWcTEcBJ1q5/dP5bpwmB2cQCFmbdyIrBL0vaTgnAPbnzGuSfUkMIAMCsCs6sV3B6LSEABxnpm8MrtnyfEphtLGAhE7/dSjWlBOCefFdRfB4OAJi1ya9nFC3lil/AUVMlTxvIgCywgIVMbF85+BMZfZYSgIMnimKk4ELuSQIAmB25y5vlNYeEABxkpDu2XzPwK0ogk3kJCZDZ4ETJZkkHKAG4J+woyEScMgAAMzz5rQ0Uzm8lBOCmZz0/9x4yICvMRpCZ+7rj52R1KyUAB08Wtb7CBS2EAADMqGhxGx+QAI4y0qb7r97IBQrIbk5CAmSpcCj5oGT/hRKAe3KXtfAVDwDAzE1EipGCC/iKOuAiI/2k85Hk85RApucNEiBLW1fFU7LmRkoADg5UPKNoaYEQAIAZOKkYRWwSArjKGtm1cRyzSRcyxQIWMje8YuBbkr5HCcA9wZl1bHMOADhuuXPrFZxSQwjATXdv6xl8gAzIGgtYmBOJr/WSpikBuCfqLEo+n5kDAI6R7ylc3EYHwEVG4yYxmwmBucACFubE9qsHfiGrj1ECcPDE0RoqvLiJEACAYxLNb5HXkCME4CJr3jt0bf8uQmBO5iEkwFyZToItkvZQAnBPuKhVJu8TAgBwVEx9oNwVzYQA3PRk/XTpdjJgrrCAhTnz4Bs37bdSTAnAwQlI5CtcxNc/AABHJ7+0IJNjCgK4yBpzw7evi8cogbnC2QNzqnjwvI9J+kdKAO4JL2mU1xYSAgBwRPyTahScU08IwE1/M3JN31fJgLnEAhbm1NZVqxJjtI4SgIN+uwU6AACvesqQXjxnGDYBARyUWs+slTGWFJhLLGBhzg11DwwZ6ZuUANwTnFqr4Ew+TQcAvMr54sJG+SdEhAAcZGQ+M3JN/48pgbnGAhbK44UYJNdLmqAE4J6osyjj84k6AOBl5DxF7dw3EXDUoWmZQTKgHLCAhbJw/1XxY9baP6ME4OCJpClQ7rJmQgAAXlK0sFWmLiAE4CBjzDsf6Ol7hhIoi3kHCVA28umtkjg4Ai5OTq5kcgIAeInJRlNOuUubCQG46TdR0vhhMqBszikkQLkYWR4fNlIfJQAH5TxFHXw9BADw+6LOAl8zBxxljXrvXblmkhIoFyxgoax0PpJ8XtKPKAG4J7igUf6JeUIAACRJ/qk1bPQBOMtsG+ke+A4dUE5YwEJZieM49aztlcQWrYBrwxy9eEN3tkgHAMgzyncV6QC4qWSN6SUDyu7UQgKUm20rBh+WdDclAPf4J+WVO5dP2wGg2oWXNMlriwgBOMhId4509/0TJVBuWMBCeR40p80GSaOUANwTLS3I5Di9AEDVjuPynsIrWwkBuGmfCfx3kQHliBkGytLQdf1PSeb9lAAcnLjUBQqvaCYEAFSpqL0gU+MTAnCRtQPbrtq8lxAoRyxgoWxNHKy9TTI7KQG4J5zfItMYEAIAqm1y0Ropd1EjIQAn2Z/bfPoJOqBszzEkQLl6eNX6cSm9iRKAg3xP+cUFOgBAlYk6C5LHZh6Ai4xn1o0sj0uUQLliAQtlbbhn8Ksy+mtKAO4Jzm2Qf0oNIQCgWo77Z9UrOL2WEICDrLHfGLpm4D5KoJyxgAUHDqZer6SEEoB78l1FyfBJPABUOuMZ5Zdw5S3gqKnUGL75grLHAhbK3sg1fX8v6TOUABw8yRQj5S5oIAQAVLjc5c0yzTlCAC4y+sD2awZ+RQiU/dyCBHBiUGSSfkkHKAG4J+woyEScbgCgYue+tYHCBa2EANz0bD5J3ksGuIAZBZxwX3f8nDHmFkoADp5oan0mNgBQwfKL22RCphWAi6wxN927Mj5ICTgxryABXNF2oPQhSb+kBOCe3GXN8ppDQgBAhfHn5eVf0EgIwE1/t+zh0hfJAFewgAVnbF0VT1mjGygBuMd4RtHSNkIAQEUd3I2iroLYqgNwkrXWrI3jOCUFXMECFpwy0j3wHUnfowTgnuDMevlsrw4AlXNcP69e/sk1hAAcZIzuGlnR/yAl4BIWsOCcxNd6SdOUANyT7yxKPp/VA4DzfE9RR4EOgIuMxj0v6SMEXMMCFpyz/eqBXxjpo5QAHDzptIYKL24iBAA4LryyRV5DQAjARVbvuf/q+HFCwLm5BAngoqlScLOkPZQAHJz0LGqVyfuEAABHmYZA4eUthADc9ET9dPIBMsBFLGDBSQ++cdN+YzRICcDBiU/kK2rnhu4A4KpoaUEm4OvggJPjMGuu//Z18Rgl4CIWsOCstgPnfULSP1ICcE/u4kb5hYgQAOAY/+S8cmfXEwJwkdVDQz199xACrmIBC87aumpV4intpQTgIGMUdhXpAAAuHbr12804DFdfAQ5KrW96ZYwlBVzFAhactq1ny7Ckr1MCcE/wmhoFZ/EpPgA4c9y+uFHeCXlCAC6y5lMj1/T/mBBwGQtYcF5idIOkCUoA7omWFiXuowIA5S/nKVpUoAPgpoM2LW0hA1zHAhact717YIeM7qAE4OBJqClQeGkzIQCgzEWLWmVq2UEWcJI1N49cG+8mBJyfO5AAFXFMDpN3S3qaEoB7wgWt8uqZFAFA2U4YmnPKvb6ZEICTzK/ztvFOOqAizkckQCUYWR4ftsZspgTg4LAq9BS187UUAChXUWdRxufr3oCjI63ee1eumaQDKgELWKgYI9f0fUHSjygBuCd4XYP8E7kxMACUG/+0WgVn1BECcNP9wz193yUDKgULWKgcxlibmrWS2BoWcO/9q6iLrdkBoLxmCkb5Tq6QBRxVkmwvGVBRpyUSoJKMrOx/xBjdRQnAPf6JeQXn1RMCAMpE+PpmeW0RIQAHWdmPDPcM/owSqCQsYKHyTJmNkg4TAnBPfklBJsepCQDmmsl7Che0EAJw0z4/CG4hAyoNswRUnKHr+p8y1ryPEoCDE6a6QLn5TJgAYK6FHQWZGnaIBZwcT8n2bbtq815KoNKwgIWKlOZLt0tmJyUA90SXt8g0BoQAgLmaILSFCi9sJATgpp+lUfopMqAiz08kQCUaWR5PGKsNlAAcFBhFS7hpMADMlaizKHlsqgE4OcE36bqR5XGJEqjI1zcJUKmGVvRvlTRCCcA9uXMa5J9SQwgAyFhwdr2C02oJATjJfm1b95Yf0AGVigUsVPpBvFdSQgfAPfmuomS4AgAAsmJ8o2gxV8ACjpq0SjeSAZWMBSxUtOGewX+QNZ+mBODgCaoYKXdRAyEAICO5y1vkNecIATjISLeP9MS/pgQqen5AAlS6kvX6Jb1ACcA9UXtBJuJUBQCzPvmtDRSyCyzgqmejNHk/GVDpmBWg4j2wcvPzsuZdlAAcnFDV+AoXthICAGZZtKQgEzI1ANxkN9y7Mj5IB1Q6zlKoCgeLxQ9L+iUlAPeElzTLawkJAQCzxJ8XKXgdX9kGHPVo1yPpl8iAasACFqrjqD7/rdOyWk8JwMWZlVG0lJsKA8CsMEZRV1FsmQE4yVpreuM4TkmBasACFqrG8IqBv7Ky91ICcE9wRp2C17KtOwDMtNx5DfJPriEE4KYvjazof5AMqBYsYKG6mGC9pGlCAO6JlhYln2sEAGDmhkVGYUcbIQA3jfl+0k8GVBMWsFBVRro3/7OsPkIJwMETVmuo8JJmQgDADAkXtMprCAgBOMgavfv+q+PHKYGqmg+QANUmb5NY0rOUABycbC1slanxCQEAx8k0BMpd3kIIwE2PN0wld5AB1YYFLFSde1fGB41sTAnAwQlX5Cls5+suAHC88kuLMgFfywYcHRGt//Z18RgdUG1YwEJV6nwk/YSkRykBuCe8qFFeMSIEABwj/+QaBWfXEQJw04PD3X1fJwOqEQtYqEpxHKfWml5JlhqAY4xR1FmkAwAcyyFUUtRVlAxXXwEOSmVsr4xhDoOqxAIWqtaLW85aPr0AHBS8pkbB2fWEAICjPX5e3CR/HlexAi6yMp8Y7h7kWySoWixgoar5frpeEt8fBxyUX1KQuH8LABwxE3qKFnEfQcBRB/3AxGRANWMBC1Xt/qvjx43EDh6AixOxppzCy9hBCwCOVLiwTaaWnVwBNwc+irdd1cdO6qhqLGCh6tVNJ++W9DglAAcnY1e2yjQEhACAVxv0N+eUu7SJEICT7D8fbJv3ETqg6s9lJEC1+/Z18ZiR6acE4B4TGEXtBUIAwKuIuooyHl+7Bpwc7xi7/tH5b52mBKodC1iApKHuvi/J6iFKAO7JnV8v/+Q8IQDgZQSn1Sp4bR0hABcZ/dVQ95Z7CQGwgAX89sRgrDy7VlJKDMC596+irnniugIAeAm+UbSsSAfATdNKtZ4MwItYwAJ+67db0n6JEoCD87N5kYLzGwkBAH8gvKRZXktICMBJ9sPDKwZ+SQfgRSxgAb/7hgi8DZIOUgJwT7S0IBNyWgOAf2VqfIULWwkBuOl5G6XvIgPwO/N1EgD/bttVfc9ao/dTAnBwolbrK7yihRAA8FtRe0EmYrgPuDmwsf0jy+MXCAH8O85owB+oSZpul8yvKQG4J3dFi7zmHCEAMMgvRspd1EAIwE3/UDhw/qfJAPzBuY0EwO+7d+WaSUkbKQG4x/hGUUeBEACqXr6zKBm2twBcZK16t65alVAC+H0sYAEvYbin/2tW5geUANwTnFOv4LRaQgCoWrlzGuS/poYQgIuMto6sGBghBPAfsYAFvOy5I10nqUQJwD1RZ1HyuPIAQBUKjKIlXIkKOGrCpskGMgAvjQUs4GUM9wz+zMp8ihKAgye3tlDhhY2EAFB1ostaZBoDQgAOssbePrIi3kkJ4GXG+CQAXmEQqFKfpL2UANwTdhRk8pzmAFQPUxcoN5/dWAE338B6SmH6PkIAL4+RPfAKvt8T7zMyt1ACcHAcmPcULmgjBICqkV9SkAkZ3gMusqndOLI8PkwJ4OVxhgNeRRqVPiLpZ5QA3BNe2iSvLSQEgIrnn5hXcF49IQAXGT0y0jNwFyGAV8YCFvAqRpbHJSv1UgJw8SxnXtxKHgAqevJrFHUVJcPmFYCDrLFmrYyxpABeZWhPAuDVjfQM3C/Z71ICcI9/Wq2C19YRAkDFyr2uQf6JeUIALrL6wlBP/48IAbw6FrCAIz63pL2SJikBuCfqKsr4XJkAoPKY0FPYXiAE4KbDgZ9sJgNwZFjAAo7QSE/8a8neSQnAwZNdc065S5oJAaDihAta5dX7hABcZPXuH1wTP00I4AjH9CQAjlw+TW+WtJsSgIOTvEWtMrVM8gBUDtOUU3hpMyEAN+2w+eQOMgBHjgUs4CjcuzI+KGO3UAJwcKIXeooW8TUbAJUjv6QgBXw9GnCS1Q0jy+MJQgBHjgUs4Ch1PZx+SlY/pgTgnuDiRvnzIkIAcP949poaBWfXEwJwkJUZHl4x8HVKAEeHBSzgKMVxnMq3vZLY6hZwjJEUdc1jq3kAjh/MjMKuIh0ANyW+Nb1kAI4eC1jAMRi+ZvAhGd1DCcA9/sl55bhqAYDDwosb5Re4mhRw1Ce2rej7RzIAR48FLOAYJTLXSxqjBOCeaGlBhvvGAHCQiXyF7W2EANy0304ng2QAjg0LWMAx2t7d/4SkD1ACcHAC2BAovKyFEACcEy1qlcmzoyrgIivdPHJdvIcSwLFhAQs4DhMH694j6XFKAO7JXdkqryEgBAB3Bu6toXIXNxECcJCRfnGoMO+jlACO4zxIAuDYPbxq/bi1to8SgIMDycAo6igQAoAzoqUFyefrz4CLUmn9o/PfOk0J4NixgAUcp5GegbskPUgJwD3BefXyT64hBICy559Rp+C1dYQAHGSk74z0DHyPEsDxYQELOO4zkrFG3lpJKTEA596/irqK4noGAGV9qPKM8ku5YhRw1JS1uoEMwPFjAQuYAUM9fX8nqy9SAnCPPy9ScEEjIQCUrdylzfJaQkIADrLWfmh4xcAvKQEcPxawgJl6M+W8myQdpATgnmhxm0zIKRFAGY4van2FV7YSAnDTc0EQ3kIGYIbOiSQAZsa2q/qeldV7KQG4x9QGChcwQQRQfsL2NpmIITvg5PhC6r//6o0HKAHMDM6GwAwqHEo+YKRfUQJwT+7yZpnmHCEAlM9AvRgpdyFfcQYc9fdtB8/7DBmAGTwvkgCYOVtXxVOy5iZKAO4xnlF+MTdJBlA+8l1FybDNBOCk1PZuXbUqIQQwc1jAAmbY0Ir+b8jqPkoA7gnOrldwei0hAMz98eicevmn1BACcNNXh1cO/jUZgJnFAhYwG28s66+TVKIE4J6osyB5XPEAYA75nvJLinQAXGQ0bm3CNzKA2ZhnkwCYedtWbv65jPkEJQAHT4ytkcKLuOcMgLkTzm+RaQwIAbjI2ttGVsQ7CQHMwjidBMAsDT5taUDSXkoADr5/2wsyNT4hAGTO1AUKr2gmBODkG1hP5UzN+wkBzA4WsIBZ8v2eeJ+V3kUJwMHxZ95TdGUrIQBkLlpakMkxRAecZO2G+7pvHCUEMDs4OwKzOgpN7pT0T4QA3JO7pEleW0QIAJnxT8ord249IQAHWenh4e6BuykBzB4WsIBZNLI8LsmmvZQAXDxDGuU7C3QAkAkjKeosSoZNJAAHpZ5Mr4yxpABmcXhOAmB2Da/Yss1I36EE4B7/tFr5Z9QRAsCsCy5olH9inhCAmz4/1NP/IzIAs4sFLCALqXolTRICcE++qyjjc0UEgNljQk9RRxshADcdKsnrIwMw+1jAAjIwtHLgN9baD1MCcPBE2ZRT7tJmQgCYNbn5LTJ1ASEAB1np1gd6+p6hBJDBuJwEQDamp6J3SuLkBjgoWtgqU+sTAsDMD8abAkWXtRACcJE1jylKPkgIIKNzJgmAbDz0ppsOWdlBSgAOynmK2vl6D4CZFy0tSgFfUwZcZD17/cjyeIISQDZYwAIytOyR9DOy+jElAPcEFzXJO4EbLAOYwePKqbUKzqonBOAiq6GR7oFvEgLIDgtYQIbiOE6NZ9ZKYotdwDFGUr6rwBb3AGbooGIUdhboALgpSVLbSwYgWyxgARkb6u7/G0lfpQTgHv+kGgVn1xECwHHLXdwkvxARAnDTx7ZfO/hTMgDZYgELmAM2TW6QNEYJwD35pUUZ7lcD4DiYyFfU3koIwE377XQSkwHIHgtYwBwYWRk/KdnbKQE4OPFsCJS7gokngGMXLmqVybOzKeDkOMBoy8h18R5KANljAQuYIxMH698raRclAPdEC5rlNeQIAeDoB9+tocKLmwgBOMhIvzjQNu9jlADm6BxKAmBuPLxq/bhkN1MCcJDvKVzcRgcARy3fWZR8voYMuCiV1j86/63TlADmBgtYwBwa7h6420oPUAJwT+7cegWn1BACwBELzqyTf3otIQA3fWukZ+B7ZADmDgtYwFwyxnryeiWlxACce/8q7CyI6ygAHNEhwzOKlhYIAbhpykv8G8kAzC0WsIA5NtTT93eSPk8JwD3+vLyCCxoJAeBV5S5rltccEgJwkdEHt127+V8IAcwtFrCAcngjBt4mSQcoAbgnWtwmE3I6BfAK5/laX+ECdi8FHPWc7+VuJQNQBudTEgBzb9tVfc9a6T2UANxjagPl5rcQAsDLCjvaZCKG3YCLrNXm+6/eyAfNQBngTAqUieLB5A4j/YoSgIOT0ytaZJpzhADwHwfbxUjBhU2EABxkpJ8s+2HyWUoAZXJOJQFQHrauiqdSow2UABwc4HpG+SXcnBnAf5TvKrLZA+DsCd70xnHMZktAmWABCygjI90D35TM9ykBuCc4q17B6bWEAPDvx4VzG+SfUkMIwEHG6stD3f3bKQGUDxawgHJ7U6beeknTlADcE3UWJI9rLQBI8j1FS9roALjIaFyp2UgIoMzmyiQAysu2lZt/LukTlAAcPKm2RspdxL1uAEjhgmZ5DdwbD3CRSfX+oWv7d1ECKLOxNgmA8jNdCgYk7aUE4J6oo1WmxicEUM2T3/pA4eXsTgo46snAy99GBqD8sIAFlKEH37hpvzG6mRKAgxPXyFd4ZSshgCoWLSnI5BhmA06ex63ZcF/3jaOUAMoPZ1agTLUdOO+jxuinlADcE17SJK8tJARQhfyT8sqdW08IwEFWeniop+/LlADKEwtYQJnaumpVIqmXEoCLZ1ejfNc8OgBVxkiKuuZJhs0cAAelvrVrZYwlBVCmQ2wSAOVrqHtgSNK3KAG4xz+1RsGZdYQAqkhwYaP8EyJCAE4yn9u2YvBv6QCULxawgHI/laZaL2mSEoB7os6ijM+VGEBVyHmK2tvoALjpUEmmnwxAeWMBCyhzQysHfiPZD1ICcPAk25RT7tJmQgBVIFrYIlMXEAJwkrnlgZ6+Z+gAlPnYmgRA+ZuajG6RxEkVcHJS28qkFqj0AXVTTrlLWwgBuOk3+bSRD4sBF863JADK30NvuumQtRqgBOCgnKeovZUOQAXj68KAw6zW37tyDbfrABzAAhbgiGU/TD5rJW4sCTgouLCJGzsDlfr+PrWWDRsAV1kNDa8YYMMkwBEsYAGOiOP4xa19Jbb2BRxjJEVdRclwhQZQWW9u8+J7G4CLkiS1vWQA3MECFuCQbSsGHzZWX6EE4B7/pBoF59QTAqgg4eub5LWFhABcZPXR7dcO/pQQgDtYwAIck9rkRkmjlADck19akMlx6gUqgYl8hVdyfzvAUfu9nH8zGQC3MIoGHDOyMn7SWN1OCcDBCW99oNwVzYQAKkDY3iZT4xMCcPF8LDu47arNeykBuIUFLMBB44fq3idpFyUA90TzW+Q15AgBuDyAbo0UXtRICMBJ9ucHCid8nA6Ag+dfEgDueXjV+nFr7UZKAA7yPYWL2+gAOCzqLEg+mzIATrJ2/aPz3zpNCMA9LGABjhpZMfhlSdspAbgnd16D/FNqCAE4KDizXsHptYQAHGSkbw6v2PJ9SgBuYgELcNhvt/5NKQG4J99VFNdvAI5Nfj2jaClXUAKOmip52kAGwF0sYAEO275y8Ccy+iwlAAdPwMVIwYXcQwdwSe7yZnnNISEABxnpju3XDPyKEoDD42cSAI4PppVslnSAEoB7wo6CTMSpGHBi8lsbKJzfSgjATc96fu49ZADcxqgZcNx93fFzknk3JQAHT8K1vsIFLYQAHBAtbmPBGXCUkTbdf/VGPvAFXB87kwBwX+Fg6c8k+y+UANyTu6yFryQB5T5gLkYKLuArv4CLjPSTzkeSz1MCqIDzMQkA921dFU/JmhspATg4sPaMoqUFQgBl+yY1ith0AXCVNbJr4zhm0yOgArCABVSI4RUD35IM2wIDDgrOrFNwei0hgDKUO7dewSk1hADcdPe2nsEHyABUBhawgAqS+HadpGlKAO6JOouSzzUeQFnxPYWL2+gAuMho3CRmMyGAysECFlBBtl898AtZfYwSgIMn5NZQ4cVNhADKSLSgWV5DjhCAi6x579C1/bsIAVTQeJkEQGWZToItkvZQAnBPuKhVJu8TAigDpj5Q7nJ2CQUc9WTORB8gA1BZWMACKsyDb9y030oxJQAHJ8yRr3ARX1cCykF+aUEmx1AZcJE15ob7um8cpQRQWTgrAxWoePC8jxmjn1ICcE94SaO8tpAQwBzyT6pRcE49IQA3/c3INX1fJQNQeVjAAirQ1lWrEkm9lAAcZIyiriIdgLl6C0rKdxUkw6YKgINS65m1MsaSAqg8LGABFWqoe2DISN+kBOCe4NRaBWdy9QcwJ++/CxvlnZAnBOAgI/OZkWv6f0wJoDKxgAVU8hs8SK6XNEkJwD1RZ1HG5woQIFM5T1E796EDHHVoWmaQDEAFz29JAFSu+6+KHzPSn1ECcPAE3RQod1kzIYAMRQtbZeoCQgAOMsa884GevmcoAVTw+JgEQGWbnAxvlcTJHHBxMn0lk2kgs0FxU065S5sJAbjpN1HS+GEyABV+riYBUNkeetNNh4zURwnAQTlPUQdfZwKyEHUW+Nou4ChjzLp7V67hthlAhWMBC6gCnY8kn5f0I0oA7gkuaJR/IjeUBmaTf2oNGycAzjLbhrr7v00HoPKxgAVUgTiOU8/aXklsKQy4NizXizd0l+HKEGB2RsNG+a4iHQA3lawxvWQAquSUTQKgOmxbMfiwpLspAbjHPymv3LlcHQLMhvCSJnltESEAFxn70ZHuvn8iBFAdWMACqukcP202SBqlBOCeaGlBJsdpG5jR82LeU3hlKyEAN+3z/OCdZACqByNhoIoMXdf/lGTeTwnAwYl2XaDw8hZCADMoai/I1PiEAFxk7cC2qzbvJQRQPVjAAqrMxMHa2ySzkxKAe8IFzTKNASGAmRgEt0bKXdRICMBJ9uc2n36CDkCVnbtJAFSXh1etH7dGGykBOMj3lF9coAMwA6LOguSxOQLgIuOZdSPL4xIlgOrCAhZQhUa6+78io7+mBOCe4NwG+afUEAI4nvfRWfUKTq8lBOAga+w3hq4ZuI8SQPVhAQuo2pO/1yspoQTgnnxXUTJcOQIcC+MZ5ZdwJSPgqKnUmJvIAFQnFrCAKjVyTd/fG5nPUgJw8ORdjJS7oIEQwDHIXd4s05wjBOAiow9sv2bgV4QAqnQMTAKgegWm1CfpACUA94QdBZmI0zhwVHPf2kDhglZCAG56Np8k7yUDUL0Y+QJV7L7u+DljzC2UABw8gdf6TMSBo5Rf3CYTMvwFXGSt3XjvyvggJYAqHv+SAKhubQdKH5L0S0oA7sld1iyvOSQEcAT8eXn5FzQSAnDT3y37YfoFMgDVjQUsoMptXRVPWaMbKAG4x3hG0dI2QgCv+mYxiroKYusDwEnWWrM2juOUFEB1YwELgEa6B74j6XuUANwTnFkv//RaQgCv9D45r17+yTWEABxkjO4aWdH/ICUAsIAFQJKU+FovaZoSgHvynUXJ59oS4CX5nqKOAh0AFxmNe17SRwgAEgtYAH5r+9UDvzDSRykBOHgybw0VXtxECOAlhFe2yGsICAG4yOo9918dP04IABILWAB+x1QpuFnSHkoADk7SF7XK5H1CAL/DNAQKL28hBOCmJ+qnkw+QAcC/YgELwL958I2b9svaLZQAHJyoR76idm7oDvyuaGlBJuDrtYCT5zVrrv/2dfEYJQD8KxawAPyewqHzPy7pHykBuCd3caP8QkQIQJJ/cl65s+sJAbjI6qGhnr57CAHgd7GABeD3bF21KvGU9lICcJAxCruKdABvBf12cwPD1VeAg1Lrm14ZY0kB4HexgAXgP9jWs2XYGvsNSgDuCV5To+AsrjpBlb8PLm6Ud0KeEICLrPnUyDX9PyYEgD/EAhaAlx78++kNkiYoAbgnWlqUuO8PqpQJPUWLCoQA3HTQpiXuxwrgJbGABeAl3X9V/JiM7qAE4ODJvSlQeGkzIVCVwkWtMrXsyAk4yZqbR66NdxMCwEuOcUkA4GXHEGHybklPUwJwcBK/oFVePZN4VNnAtjmn3CXNhACcZH6dt4130gHAy57nSQDg5Ywsjw9bYzZTAnBwGhB6itr5GhWqS9RZlPH5+izg6Jmr996VaybpAODlsIAF4BWNXNP3BUk/ogTgnuB1DfJP5EbWqA7+abUKzqgjBOCm+4d7+r5LBgCvhAUsAK/MGGtTs1YSWxkD7r1/FXUVJcMVKaj0Ea1RvrNIB8BNJcn2kgHAq57uSQDg1Yys7H/EGN1FCcA9/ol5BefVEwIVLXx9s7y2kBCAg6zsR4Z7Bn9GCQCvhgUsAEdmymyUNEoIwD35JQWZHKd8VCaT9xQuaCEE4KZ9fhDcQgYAR4LRLIAjMnRd/1OS3kcJwMEJfl2g3Hwm+KhMYUdBpoYdNwEnz0+yfduu2ryXEgCOBAtYAI6YjZLbJLOTEoB7ostbZBoDQqCyBrJtocILGwkBuOlnaZR+igwAjvi8TwIAR2pkeTxhrDZQAnBQYBQtKdABFSXqLEoemxQATk5ETbpuZHlcogSAIz5ukADA0Rha0b9VRn9NCcA9uXMa5J9SQwhUhODsegWn1RICcJL92rbuLT+gA4CjwQIWgKMfchivV1JCCcA9+a6iZLhiBW4zvlG0mCsKAUdNWqUbyQDgaLGABeCojVzT9/ey5tOUABw88Rcj5S5qIASclru8RV5zjhCAk+wHRnriX9MBwFGPY0kA4FiUrNcv6QVKAO6J2gsyEUMAuMnUBgrZVRNw1bP5NGVXawDHhNErgGPywMrNz8uad1ECcHABoMZXeGUrIeCkaElBJmQIC7jJbrh3ZXyQDgCOBWd/AMfsYLH4YUm/pATgnvD1zfJaQkLAKf68SMHr+Aos4KhHux5Jv0QGAMeKBSwAxz4Kmf/Wacm7nhKAiysBRtFSboINhxijqKsotiAAnGStNb1xHKekAHCsWMACcFyGe/q+a2XvpQTgnuCMOgWvrSUEnJA7r0H+yTWEANz0pZEV/Q+SAcDxYAELwPEzwXpJ04QA3BMtLUo+17Sg3E8zRmFHGyEAN435ftJPBgDHiwUsAMdtpHvzP1vZOykBODgQaA0VXtJMCJS1cEGrvIaAEICDrNG77786fpwSAI573EoCADMiSm+W9DwhAAcXBxa2ytT4hEB5DlYbAuUubyEE4KYnGqaSO8gAYEbGBCQAMBNGlscvGNlBSgDuMZGnsJ2vZ6E8RZ1FmYCvuQIuskbrv31dPEYJADOBBSwAM6bt4PmflPQPlADcE17UKK8YEQJlxT+5RsFZdYQA3PTgyDX9XyMDgJnCAhaAGbN11arEWvVSAnCQMYo6i3RA+bwkJUVdRclw9RXgoFTG9soYSwoAM4UFLAAzamTFwIhk+bQNcFDwmhoFZ9cTAmUhd3GT/HlcFQg4yeiTw92DjxICwExiAQvAjPP9dL0k7ncAOCi/pCBxvyHM9dw39BQuaiUE4KaDtpTEZAAw01jAAjDj7r86ftxI7DgDOMg05RRexo5vmFvhwjaZ2oAQgJMnEsUj18a7CQFgprGABWBW1E0n75b0BCUA94TzW+TV+4TA3AxOW0OFr28iBOAk8+vCgeROOgCYlTECCQDMhhe3TLb9lAAcnH6EnsIObuiOuREtLUg+X2MFnDx/mGTN1lXxFCUAzAYWsADMmuHugS/K6iFKAO7JnV8v/+Q8IZCp4LV1Cl5bRwjARUZ/NdS95V5CAJgtLGABmMWBjLHy7FpJKTEA596/irrmietgkBnfKOos0AFw07RSrScDgNnEAhaAWfXbLZTvogTgHn9epOD8RkIgE+ElzfJaQkIATrIfHl4x8Es6AJhNLGABmP0hTZJskHSQEoB7oqUFmZDhAmaXqfEVLmwlBOCm522UvosMAGYbI1IAs27k2ni3NXo/JQD3mFpf4RUthMCsitoLMhHDUsDNE4XtH1kev0AIALONkQKATNQkTbdL5teUANyTu6JFXnOOEJidwWgxUu6iBkIAbvqHwoHzP00GAJmMGUgAIAv3rlwzKWkjJQD3GN8o6uDm2pgd+c6iZNguAHCRterdumpVQgkAWWABC0Bmhnv6v2ZlfkAJwD3BOfUKTqslBGZU7pwG+a+pIQTgIqOtIysGRggBICssYAHIeKyTrpNUogTgnqizKHlcKYMZEhhFS7iyD3DUhE2TDWQAkCUWsABkarhn8GdW5lOUABwcNLSFyl3YSAjMiOiyFpnGgBCAg6yxt4+siHdSAkCmY1ESAMh80qJSn6R9lAAcfP92FGTyDB9wfExdoNx8drcE3HwD6ymF6fsIASBrjEABZO77PfE+Gd1CCcDBeUveU7igjRA4LvklBZmQYSjgIpvajSPL48OUAJA1Rg4A5mbwEyYflvQzSgDuCS9tktcWEgLHxD8xr+C8ekIALjJ6ZKRn4C5CAJgLLGABmBMjy+OSlXopAbg4ejDKdxbpgGOY/BpFXUXJsBkA4CAr2V4ZY0kBYE6GoCQAMFdGegbul9FfUQJwj39arYLX1hECRyX3ugb5J+YJAbjI6gvD3YM/JASAucICFoC5HQvZZK2kSUoA7om6ijI+V9LgyJjQU9heIATgpsOBn2wmA4C5xAIWgDk10hP/WrJ3UgJwcBDRnFPukmZC4IiEC1rl1fuEAFxk9e4fXBM/TQgAczr2JAGAuZZP05sl7aYE4J5wUatMLYsSeGWmKafw0mZCAG7aYfPJHWQAMNdYwAIw5+5dGR+UsVsoAbjHhJ6iRW2EwCvKLylIAV83BZxkdcPI8niCEADmGgtYAMpC18PppyQ9SgnAPcHFTfLnRYTAS78+XlOj4Ox6QgAOsjLDwysGvk4JAOWABSwAZSGO41SeXSuJrZkBxxhJUdc8yXCFDf7wxWEUdhXpALgp8a3pJQOAcsECFoCyMXzN4EMyuocSgHv8k/PKcZUN/kB4caP8AlfnAY76xLYVff9IBgDlggUsAGUlkble0hglAPdESwsy3OcIv2UiX2E790cDHLXfTieDZABQTljAAlBWtnf3P2GN/VNKAO4xDYHCy1oIAUlStKhVJs8OlYCLrHTzyHXxHkoAKCcsYAEoOw1T6XskPU4JwD25K1vlNQSEqPYBZmuo3MVNhACcZP/5UGHeR+kAoOzGFyQAUG6+fV08Zq3towTgHhMYRR0FQlS5fGdR8vk6KeDkcdzY9Y/Of+s0JQCUGxawAJSlkZ6BuyQ9SAnAPcF59fJPriFElfLPqJN/ei0hAAcZ6TtD3VvupQSAcsQCFoAyHUEZK2N7JaXEAJx7/yrqKorrb6rwqfeM8ku5Ag9w1JS1uoEMAMoVC1gAytZw9+CjsvoiJQD3+PMiBRc0EqLK5C5rltcSEgJwkJE+PLxi4JeUAFCuWMACUN4HqZx3k6SDlADcEy1ukwkZalTN8brWV7iglRCAm55Lo+QWMgAo67EGCQCUs21X9T0rq/dSAnCPqQ1Y0KgiYXubTMTQEnDyeC31jyyPX6AEgHLGKANA2SscSj5gpF9RAnBP7vJmmeYcISp9QFmMlLuQr4wCjvr7toPnfYYMAMp+vEECAOVu66p4ylptpATgHuMZ5RdzU+9Kl+8qSobb9gNOSm3v1lWrEkIAKHcsYAFwwvCKga/L6j5KAO4Jzq5XcHotISr1+T2nXv4pNYQA3PTV4ZWDf00GAC5gAQuAOwcs66+TVKIE4J6osyB5XKFTcXxP+SVFOgAuMhq3NrmJEACcmQ+SAIArtq3c/HNJn6QE4OCAozVSeBH3SKo04fwWmcaAEICLrL1tZEW8kxAAnBlPkgCAU5MlJf2S9lICcPD9216QqfEJUSFMXaDwimZCAE6+gfVUztS8nxAAXMICFgCnfL8n3meld1ECcHC+lPcUXdlKiAoRLS3I5BhKAk6ydsN93TeOEgKASxh1AHBw1pTcKemfCAG4J3dJk7y2iBCO80/KK3duPSEAB1np4eHugbspAcA1LGABcM7I8rgkm/ZSAnBx5GGU7yzQwWFGUtRZlAw35QcclHoyvTLGkgKAc8NIEgBw0fCKLduM9B1KAO7xT6uVf0YdIRwVXNAo/8Q8IQA3fX6op/9HZADgIhawALgrVa+kSUIA7sl3FWV8ruBxTs5T1NFGB8BNh0vy+sgAwFUsYAFw1tDKgd9Yaz9MCcDBAUhTTrnXNxPCMdGVrTJ1ASEABxljbn2gp+8ZSgBwdvxIAgAum56K3ilpNyUA90SLWmVqfUK4MmhsChRe2kwIwEXWPJaGpT8jBACnxyIkAOCyh9500yEjDVICcFDOU9TO19FcES0tSgFf+wRcZD17/cjyeIISAFzGAhYA53U+knxaVj+mBOCe4KImeSdwQ/Cyf55OrVVwVj0hABdZDY10D3yTEABcxwIWAOfFcZwaz6yVxJbQgGOMpHxXQTJc2VO+T5JR1FWkA+CmxJO3jgwAKgELWAAqwlB3/99I2koJwD3+STUKzq4jRJnKXdwkry0kBOCmj21b0fePZABQCVjAAlAxEmNukDRGCcA9+aVFGe6vVHZM5CtqbyUE4Kb9djqJyQCgUrCABaBibO/uf0Kyt1MCcI9pCJS7goWSchMuapXJs1Mk4ORx1WjLyHXxHkoAqBQsYAGoKBMH698raRclAPdEC5rlNQSEKJdBYmuo8OImQgAOMtIvDrTN+xglAFTU2IQEACrJw6vWj0t2MyUAB/meoo4CHcpEvrMo+XytE3BRKq1/dP5bpykBoJKwgAWg4gx3D9xtpQcoAbgnOK9ewSk1hJjr5+HMOvmn1xICcNO3RnoGvkcGAJWGBSwAlccY68nrlZQSA3Du/auwsyCu+5nDp8AzipZyJRzgqCkv8W8kA4BKxAIWgIo01NP3d5I+TwnAPf68vIILGgkxR3KXNctrDgkBuMjog9uu3fwvhABQiVjAAlC5B7jA2yTpICUA90SL22RChimZHzdrfYUL2A0ScNRzvpe7lQwAKnacQgIAlWrbVX3PGmPeQwnAPaY2UG5+CyEyFna0yUQMDwEXWavN91+98QAlAFQqRigAKlrbgdKfGulXlADcE17RItOcI0RWg8JipODCJkIADjLST5b9MPksJQBU9FiFBAAq2dZV8VRqtIESgIMTMs8ov4SbiWcl31Xk5vmAswdM0xvHMZvXAKhoLGABqHgj3QPflNV9lADcE5xVr+D0WkLMdudzG+SfUkMIwEHG6stD3f3bKQGg0rGABaA6DnbWXyepRAnAPVFnQfK4NmjW+J6iJW10AFxkNK7UbCQEgKqY05EAQDXYtnLzzyV9nBKAg4OV1ki5i7g302wJFzTLa+BeY4CLTKr3D13bv4sSAKpiTEgCANViuhQMSNpLCcA9UUerTI1PiJme/NYHCi9nt0fAUU8GXv42MgCoFixgAagaD75x035jdDMlAPeYyFd4ZSshZli0pCCTYzgIOHlctGbDfd03jlICQLVgxAKgqqRh8ufG6KeUANwTXtIkry0kxAzxT8ord249IQAHWenhoZ6+L1MCQDVhAQtAVRlZHpdsmq6jBODiqMUo3zWPDjPASIq65kmGm+MDDkp9a9fKGEsKAFU1FCQBgGozvGLLNknfogTgHv/UGgVn1hHiOAUXNso/ISIE4CTzuW0rBv+WDgCqDQtYAKpz6JdqvaRJSgDuiTqLMj5XDh2znKeovY0OgJsOlWT6yQCgGrGABaAqDa0c+I2MPkQJwMHBS1NOuUubCXGMooUtMnUBIQAnmVse6Ol7hg4AqnIMSAIA1WpqInyXJAaBgIOiha0swhzLwK8pp9ylLYQA3PSbfNr4QTIAqNpxDAkAVKuH3nTTIWs1QAnAQTlPUXsrHY4SX78EHGa1/t6Va7j9AYCqxQIWgKq27IfJZ63EjVABBwUXNnEj8qPpdWotN8AHXGU1NLxigA1oAFQ1FrAAVLU4jlPPmF5JbEUNOMZIirqKkuGKolePZV5sBcBFSZLaXjIAqHYsYAGoekPd/X9jrL5CCcA9/kk1Cs6pJ8SrCF/fJK8tJATgIquPbr928KeEAFDtWMACAEmpTW6UNEoJwD35pQWZHEOal2MiX+GV3C8McNR+L+ffTAYAYAELACRJIyvjJ43V7ZQA3GPqA+WuaCbEy4g6WmVqfEIALh7fZAe3XbV5LyUAgAUsAPg344fq3idpFyUA90TzW+Q15AjxhwO91ki5C5sIATjJ/vxA4YSP0wEAfjuuIQEAvOjhVevHjTWbKAE4yPcULm6jwx+IOguSz03uASdZu/7R+W+dJgQAvIgFLAD4HUMr+u+WtJ0SgHty5zXIP6WGEL8VnFWv4PRaQgBOsn85vGLL9+kAAP+OBSwA+AO/3ao6pQTgnnxXUVxvJBnPKL+kQAjATVNeEmwgAwD8PhawAOAPbF85+BPJfI4SgIMDm2Kk4MLGqu+Qu7xZppl7ggEuMtId267d/C+UAIA/GOeRAABeYvJnSpskHaAE4J6woyATVe8Qx9QGCue38kIA3PSs5+feQwYA+I9YwAKAl3Bfd/ycZN5NCcDBwU2tr3BBS9X+/tHitqpewANcZqRN91+9kQ/QAOClxngkAICXVjhY+jPJcgk/4KDcZS3ymsPqG9gVIwUX8BVKwEVG+knnI8nnKQEALzPOIQEAvLStq+IpWXMjJQAHJ4KeUbS0rcp+aaOIm9gDrrJGdm0cx2wiAwAvgwUsAHgFwysGviUZtrEGHBScWa/g9Nqq+X1z59YrOKWGJx5w093begYfIAMAvDwWsADgVSS+XSdpmhKAe6LOouRXwTVJvqdwcRtPOOAio3GTmM2EAIBXxgIWALyK7VcP/EJWH6ME4OBApzVUeHFTxf+e0YJmeQ05nnDAQVZ639C1/bsoAQCvMq4jAQC8uukk2CJpDyUA94SLWmXyfsX+fqY+UO7yFp5owE1PhsrfTgYAeHUsYAHAEXjwjZv2G9mbKQG4x0S+wkWV+/W6/NKCTI4hHeAia8wN93XfOEoJAHh1jHYA4Ai1HTz/z43RTykBuCe8pFFeW1hxv5d/Uo2Cc+p5ggE3/c3INX1fJQMAHBkWsADgCG1dtSqR1EsJwEHGKOoqVtavJCnfVZCM4fkF3JN61vbKGEsKADgyLGABwFEY6h4YkuxfUgJwT3BqrYIzK+dqpeDCRnkn5HliAQcZmc9sWzH4t5QAgCPHAhYAHCU/SNdLmqQE4J6osyjjV8AVSzlPUXsbTyjgpkPTMoNkAICjwwIWAByl+6+KHzPSn1ECcHDg0xQod1mz879HtLBVpi7gCQUcZIx55wM9fc9QAgCOchxHAgA4epOT4a2SGHwCDoqudHvxx2vKKXdpM08k4KbfREnjh8kAAMcwBiIBABy9h9500yEj9VECcFDOU9Th7tfvoq4K+RokUIWMMevuXbmG2xAAwDFgAQsAjlHnI8nnJf2IEoB7ggsa5Z/o3g3Q/VNrFJxRxxMIOMlsG+ru/zYdAODYsIAFAMcojuMXt8CW2AIbcG0aqRdv6C7j0JVMnlG+q8iTB7ipZI3pJQMAHMdQiAQAcOy2rRh8WNLdlADc45+UV+7cemceb+6SJnltEU8c4CJjPzrS3fdPhACAY8cCFgAc75h02myQNEoJwD3R0oJMrvyHQybvKbqylScMcNM+zw/eSQYAOD4sYAHAcRq6rv8pa3QbJQD3mLpA4eUtZf84o/aCTI3PEwa4yNqBbVdt3ksIADg+LGABwAyYPFD3fsnspATgnnBBs0xjUL6DtdZIuYsaeaIAJ9mf23z6CToAwAyMiUgAAMfv4VXrx63RRkoADvI95RcXyvbhRZ0FyTM8T4CDjGfWjSyPS5QAgOPHAhYAzJCR7v6vSNpOCcA9wbkN8k+pKb/HdVa9gtNreYIAB1ljvzF0zcB9lACAmcECFgDMoCS1vZISSgDuyXcVJVM+VzoZzyi/pMATA7hpKjXmJjIAwMxhAQsAZtD2lYM/MTKfpQTg4KCoGCl3QUPZPJ7c5c0yzTmeGMBFRh/Yfs3ArwgBADM4ViMBAMyswJT6JB2gBOCesKMgE8398MjUBgoXtPKEAG56Np8k7yUDAMwsFrAAYIbd1x0/Z4y5hRKAgwOjWr8sFo6ixW0yIcM0wEXW2o33rowPUgIAZnicRgIAmHltB0ofkuy/UAJwT+6yZnnN4Zz9+/68vIILGnkiADf93bIfpl8gAwDMPBawAGAWbF0VTxnj3UAJwD3GM4qWts3RP24UdRVkeBoAF1lrzdo4jlNSAMDMYwELAGbJUHf/tyV9jxKAe4Iz6+WfXpv9v3tevfyTa3gCABdZ/cXIiv4HCQEAs4MFLACYRYmv9ZKmKQG4J99ZlPwMr4XyPUUdBcIDLjIa94NkMyEAYPawgAUAs2j71QO/kLF/TgnAwUFSa6jw4qbM/r3wyhZ5DQHhARdZvef+q+PHCQEAszg2IwEAzK7p6VwsaQ8lAPeEi1pl8v6s/zumIVB4eQvBATc9UT+dfIAMADC7WMACgFn24Bs37Ze1WygBuMdEvqL22b+he7S0IBNw63bAyeOENdd/+7p4jBIAMLtYwAKADBQOnf9xSf9ICcA9uYsb5ReiWfv5/sl55c6uJzTgIquHhnr67iEEAMw+FrAAIANbV61KPKW9lAAcZIzCruLs/Gj99mbxhquvAAel1je9MsaSAgBmHwtYAJCRbT1bhq2x36AE4J7gNTUKzpr5q6SCixvlnZAnMOAiaz41ck3/jwkBANlgAQsAspwE++kNkiYoAbgnWlqUZvA+VSb0FC0qEBZw0yGblri/JQBkiAUsAMjQ/VfFj8noDkoADg6amgKFlzbP2M8LF7XK1PqEBRxkpZtHro13UwIAMhyLkQAAMh70hsm7JT1NCcA94YJWefXHv+jkNeeUu6SZoICTzK9r0qaP0AEAssUCFgBkbGR5fNha20cJwMFpa+gpaj/+r/1FnUUZnxu3A44eCXrvXblmkg4AkC0WsABgDoz0DHxe0o8oAbgneF2D/BOP/cbr/mm1Cs6oIyTgpvuHe/q+SwYAyB4LWAAwF4yxNjVrJbH1NuDe+1dRV1Eyx3AFlWeU7yzSEHBTyRpvHRkAYG6wgAUAc2RkZf8jsvoLSgDu8U/MKziv/qj/Xvj6ZnltIQEBB1nZj4x09/0TJQBgbrCABQBzyJTMTZJGKQG4J7+kIJM78qGUyXsK///t3WuQXPWd5+nfP6uQRNO2x4twb8RG7KvdsCd2IjZih52O3XED1QGqi6ymY3a3Xs5bv9gNqFILdKmq5GCEGQzGNrZhMLabdtMet+Ubjd1CoKpKBFhgW8Y2xleMzdVAc5ME6JZ5/vvCdpubpCrVLc/J53mHEFWZn6NSnvxyqs7//m7hoJpe7Ovv3y4DwMoxYAGsoJkNk09FxNVKQPWkM/rjtLPnPkit+j/XRjq9Tzio4td75Inp87e9oATAyjFgAaywvLpzTUT6jRJQPav/t3dHemf/yU+4zlwVq/6XdwoG1fRwubr8rAwAK8uABbDCWgPF4ZTjUiWggvpTrH7/2pP+ttXnnBXRSHpBFd8wpXK8NVC0lQBY4b+PJQBYeTPDkzsixd1KQPWc9j+/I/r+h9OP++/7/6c/jf7/8U+EgkrKX50evOwuHQBWngELoFtOkVNjLCI6SkD1rDn3rIj01iusUl+K1f9xrUBQTSzuoNwAACtMSURBVEdzlFtkAOgOBiyALtFaN/GDyOlzSkAFT6jOWh2n/bt3vOXXT/v3747GvzlNIKikfG1rqHhEB4AuOd+SAKB7tHNjMiJeVgKqZ/X/sTbS6j+eWqU/6Y9V//7dwkA1PbumLN0lGKCLGLAAusg9I9v+JUdsVwKqJ53eF6v+w3/3r/+8+v1rI61yqgXVlC/dOVIc0AGgezirAugyB9e+5/qI+LkSUD2r/td/E413r4q+96yO/n/7DkGgmvade395qwwA3cX9nAG60MAdV66PKL+pBFRP+zevRlrTF33//RoxoHpyzumc1vDkvVIAdBcDFkCXOu+OD/1zijSsBAAsm7+fHZr6zzIAdB/fQgjQrVL/xog4JgQALIvX+vo6kzIAdCcDFkCXag1u+1mO/GklAGDp5RQf3n1B8bgSAN3JgAXQzVaXl0fEvwgBAEvqiXcc7XxMBoDuZcAC6GKtgeLlFLmpBAAsnZxi4+0biteUAOheBiyALnfmgffdHBE/VAIAlsS9rXWTX5UBoLsZsAC63I7R0U4jynElAGDRlZHyWKSUpQDobgYsgAqYHrpsNiL7v8MAsJhS3Dw72NwnBED3M2ABVEQnpUsi4rASALAoDuR2p5ABoBoMWAAVsWdw6tcR+TolAGARpCha64tnhACoBgMWQIXk1eVVEfG0EgCwEOmRtfs7n9YBoDoMWAAV0hooXonIW5UAgFOXUueiHaPFUSUAKvR3twQAFZNzGti1fW9E/LkYADDPl9FId7WGJtcpAVAtrsACqJqUcqT8/0ZEKQYAzEs7RTkuA0D1GLAAKuj3t/z+ByUAYD7y9bNDzYd1AKgeAxZAVU/BO51LI+KAEgAwJ/+SV5dXyABQTQYsgIpqrS+eySk+ogQAnFzOMdUaKF5WAqCaDFgAFXZ6513XRqRHlACAE/rhWQff+1kZAKrLgAVQYTtHLjqSU96qBAAcX84xtmN0tKMEQHUZsAAqrjU49ZUc6S4lAOCtUo6vtIanWkoAVJsBC6AOJ+e/uyV4WwkAeIPD7UZcKgNA9RmwAGpgdqj5cKT4nBIA8Ec55Wv3DE79WgmA6jNgAdTEqtzZFhEvKgEAEZHiqVhVXi0EQD0YsABqYtdQ8WKk2K4EAETkMm9pDRSvKAFQDwYsgDqdrK/qfDIiHlYCgJ6W4v7W0NQ/CAFQHwYsgBppDRTtHDGmBAA9LEfksUgpSwFQHwYsgJppDU3tjhT/rAQAPSnHF2YHmw8IAVAvBiyAOp67587FEXFECQB6zCv9fZ1tMgDUjwELoIZaQ8UjEfnTSgDQW9JVd60rntYBoH4MWAA1taYsL4+IZ5QAoEf8Oq9uXycDQD0ZsABqaudIcSDnKJQAoCfk2NQaKA4LAVBPBiyAGjvvgc7NEbFPCQDqLEeanR2e+poSAPVlwAKosaIoymjkiyPCrcQBqKtOinJcBoB6M2AB1NzsuuZ9KcdXlQCgpj4zO9T8oQwA9WbAAugB7UbaGBGvKQFAzbyUj3WaMgDUnwELoAfsGZx8IqfszkwA1EqOuLy1oXheCYD6M2AB9Ih3HC2viojHlQCgHvLPDq59zw06APQGAxZAj7h9Q/FaznlCCQDqIKW8cd/ZHzymBECP/L0vAUAPyTkN7Nq+JyLeLwYAFX4T882ZoakNSgD0DldgAfTUGX/KkfJYRJRiAFBRR3OOTTIA9BYDFkCPmR1s7oscf68EAFWUIj45Ozz1cyUAeosBC6AX//I/rbE5Ig4oAUDFPFeu7myXAaAH38NIANB7ps+feDYiXa0EAFWSIiZbA8XLSgD0HgMWQI9ae6B9bYr4pRIAVMQPzjzw3s/LANCbDFgAPWrHaHE059iiBACVUOaxHaOjHSEAepMBC6CHzQ5PfS1HuksJALrcl2dHmnfLANC7DFgAPS5FOR4RbSUA6NIXqkM5dzYLAdDbDFgAPW52qPlwRNysBABdKedrWsPFb4QA6G0GLABiVXQmI+IFJQDoKimeOi2d/hEhADBgARC7hooXc8QVSgDQTXKkzXcOXvKqEgAYsAD4ndWdT0fEj4UAoBvkiL2tdRNfVAKACAMWAL/XGijaOWJcCQC6QNmINBYpZSkAiDBgAfA6raGp3Snim0oAsJJSpC/MDE1+RwkA/sCABcAblTEWEUeEAGCFvNLXaE/IAMDrGbAAeIOZkalfpYhPKQHASkgpXXnXuuJpJQB4PQMWAG9x5MiqyyPiGSUAWFY5PVquan9cCADezIAFwFvcd+HmgymiqQQAyyk38t+0BorDSgDwZgYsAN7WOfd3Phc5vqcEAMsix0xrcOobQgDwdgxYALytoijK6MtjEeEW5gAstU4jGuMyAHA8BiwAjmt2XfO+iNihBABL7L9OD0/8SAYAjseABcAJdVLaFBGvKQHAEnkpH+sUMgBwIgYsAE5oz+DkExH5WiUAWBI5Fa0NxfNCAHAiBiwATurwgT/9LxHxuBIALKYU8dMDZ511oxIAnIwBC4CT2ju68VBOaZsSACymMmLjvrM/eEwJAE4mSQDAnOScztu1/e4U8RdiALDwl5V8e2u4+VdKADAXrsACYG5Syo1ojEVEKQYAC3S0r+zfJAMAc2XAAmDOZoYmvp8ifUEJABYkxSem12/7hRAAzJUBC4D5vefoT1si4oASAJyi5/oap10pAwDzYcACYF6mz594NqV0lRIAnIqcY9vuC7bsVwKA+TBgATBvZ+5vX5cifqkEAPORIh486+B7b1ECgPkyYAEwbztGi6NlikuVAGBeUhrbMTraEQKA+TJgAXBKWoNT34gcdyoBwFykHF+aGZzcowQAp8KABcCpv4jkvvGIaCsBwAmlOBRl2iIEAKf83kMCAE7V9Mi2n0TETUoAcCKpjI/MrJ98TAkATpUBC4AFOdbun4qIF5QA4Die7G+suUYGABbCgAXAgtz7ga0vRU4fUgKAt5NyuvTOwUteVQKAhTBgAbBgeU37hpTiISUAeMPrQ8TemaGJLykBwEIZsABYsNZA0c5lOa4EAK9T9uV8caSUpQBgoQxYACyK2eHLpnPOtysBwO+kW6aHm9/VAYDFYMACYPFeVHIaj4gjSgD0vIPtSJMyALBo7zUkAGCxzIxM/SpSXK8EQK9L2+8ZmvitDgAsFgMWAIvq6OFVV0SENy0AvSqnR9eU7/yEEAAsJgMWAIvqvgs3H8w5ppQA6FEpNu4cuci3kwOwqAxYACy68x7o/G2O8IN7AXpNjpnZocnbhABgsRmwAFh0RVGUjZTGIsKt0wF6R6dT5jEZAFgKBiwAlsTM4OS3U45/VAKgN+RIN+5Z33xICQCWggELgCVT5s4lEfGqEgC191Ica18uAwBLxYAFwJJpjRRPphzXKgFQbylys7WheF4JAJaKAQuAJXXo4BlXR8RjSgDUVf7J/rV/dpMOACwlAxYAS2rv6MZDKaetSgDUVM4b9539wWNCALCUkgQALIfz7rhiT4r4CyUA6iTfNjvU/GsdAFhqrsACYFmUZb44IkolAGrjaKPTf6kMACwHAxYAy2LPSPPBiHSLEgD1kCI+Nr1+2y+UAGA5GLAAWDanpfbWiNivBEDlPdfoO+0qGQBYLgYsAJbNnYPFcxHpw0oAVFzKW3dfsMX/kABg2RiwAFhWaw+0Px6RfcsJQEWliAfP3VveogQAy/z6AwDLa+CO7RdG5G8oAVA5uRH53Omh5j1SALCcXIEFwLKbHZq8LSLtUgKgcr5kvAJgJRiwAFgRnb48HhHHlACoiBSHUidtFQKAlWDAAmBF7Llg6qc50k1KAFRDjrh6Zv3kY0oAsBIMWACsmHa7rxkRzysB0PWeXBVrrpUBgJViwAJgxdz7ga0vpciXKwHQ3XJKm+4cvORVJQBYKQYsAFbUmQfed2NK8ZASAF3r2611E1+WAYCVZMACYEXtGB3tRMSYEgBdqWzkPBYpZSkAWEkGLABW3Mzg1ExEvk0JgO6SIn1+erj5XSUAWGkGLAC6Ql9/uTEijigB0DUOHovUlAGAbmDAAqAr7D6/eDRFfFwJgC6R44p7hiZ+KwQA3cCABUDXOHJk1ZUR4c0SwMr71Zr8rutlAKBbGLAA6Br3Xbj5YKQ8qQTAykopje8cuci3dQPQNQxYAHSVc/eWt0TEd5QAWClpemZw8nYdAOgmBiwAukpRFL+7ZXuEW7YDLL92TmlMBgC6jQELgK4zPdzcGxFfUgJgmaV8Q2tw4sdCANBtDFgAdKVcdi6NiFeVAFg2Lzb6+j8kAwDdyIAFQFdqjRRP5hTXKAGwTHKemj5/2wtCANCNDFgAdK0j+8/4SET6jRIASy3/JK8pP6MDAN3KgAVA19o7uvFQTrFFCYCllRppvDVQtJUAoGtfqyQAoNsN3HHF3RFxjhIAiy+n/PXWYPM/KQFAN3MFFgBdr1PmsYjoKAGw6I6WKW2WAYBuZ8ACoOvtGWk+mCL9rRIAiyvnfN2edVO/VAKAbmfAAqAS+lN7IiL2KwGwaJ49PZdXyQBAFRiwAKiEOweL5yLHlUoALI6c85adI8UBJQCoAgMWAJWx9mDnExH5F0oALNj3z3ug/IIMAFSFuxACUCl/uWv7hpzzPykBcMpyzumc1vDkvVIAUBWuwAKgUmYGJ2+PiDuUADhFOb5ovAKgagxYAFROpy82RsQxJQDmKcWhvv7ONiEAqBoDFgCVs+eCqZ9GyjcqATBPOa7afUHxuBAAVI0BC4BKOnbstCIinlcCYM6e+NNjnY/KAEAVGbAAqKR7P7D1pcj5MiUA5ipvun1D8ZoOAFSRAQuAylp78H03RcSPlAA4iRz3zQ5O7RACgKoyYAFQWTtGRzspxbgSACdU5r40FillKQCoKgMWAJU2Mzg1k1P+uhIAx/W51rrJ78kAQJUZsACovP6+clNEHFYC4C0O5k6nKQMAVWfAAqDydp9fPJpz/rgSAG+UIy5vrS+eUQKAqjNgAVAPa8orI+JpIQD+ID1yevmuT+kAQB0YsACohdZA8UrOeUIJgD9IYztHLjqiAwC1eFWTAIDayDkN7Np+f0T8BzGAHrd7dmjqAhkAqAtXYAFQHynlRs5jEeFW8UAva+fUGJcBgDoxYAFQK9PDzb2R44tKAL0qR/5Ua3Dix0oAUCcGLABqJ7XT5oh4VQmgB73Y19+/XQYA6saABUDtzGyYfCoirlYC6DUpxeT0+dteUAKAujFgAVBLeXXnmoj0GyWAHvJwuapzswwA1JEBC4Baag0UhyPKzUoAPXNin8rx1kDRVgKAOkoSAFBnA7uuaEWOc5UA6i1/dXao+X/rAEBduQILgHq/pUuNsYjoKAHU2NEc5RYZAKgzAxYAtdZaN/GDiPi8EkB95WtbQ8UjOgBQZwYsAGrvtNSZjIiXlQBq6Nk1ZemuqwDUngELgNq7c7B4LkdsVwKon3zpzpHigA4A1J0BC4CecHDte66PiJ8rAdTIvnPvL2+VAYBe4C6EAPSMgTuuXB9RflMJoAZyzumc1vDkvVIA0AtcgQVAz5gdmvhWjrxTCaAGbjVeAdBLDFgA9JbUvzEijgkBVNhrfX2dSRkA6CUGLAB6Smtw289y5E8rAVRVTvHh3RcUjysBQC8xYAHQe1aXl0fE80IAFfTEO452PiYDAL3GgAVAz2kNFC+nFE0lgKrJKTbevqF4TQkAeo0BC4CedOb+934mIn6oBFAh97bWTX5VBgB6kQELgJ60Y3S004hyXAmgIspIeSxSylIA0IsMWAD0rOmhy2Yj4mtKAF0vxc2zg819QgDQqwxYAPS0TopNEXFYCaCLHcjtTiEDAL3MgAVAT9szOPXriHydEkDXSlG01hfPCAFALzNgAdDz8uryqoh4Wgmg+6RH1u7vfFoHAHqdAQuAntcaKF6JyFuVALpOzhfvGC2OCgFAr0sSAEBE5JwGdm3fGxF/LgbQFX8tRbqrNTS5TgkAcAUWAPxOSjmXaSwi3KIe6AbtFOW4DADwOwYsAPi91sjk/RFxqxLAisvxydmh5sNCAMDvGLAA4HXSsbQ1Il5RAlhBL65Kne0yAMAfGbAA4HVmNkw+lXK6WglgpeQc23YNFS8qAQB/ZMACgDcp17SvjYhfKwGsgIdjTedzMgDAGxmwAOBNWgPF4ZziUiWA5ZZz/H+tgaKtBAC8kQELAN5Ga3DqKxGxWwlguaQcX2kNT7WUAIC3MmABwHHlsYhwJQSwHA63G678BIDjMWABwHHMDjUfjhR+Fg2w5HLK1+4ZnPKz9wDgOAxYAHACq3JnW0S4GxiwdFI8FatKdz8FgBMwYAHACewaKl6MFNuVAJZKymlra6B4RQkAOD4DFgCcRF7V+WREPKwEsOhS3D8zOHGrEABwYgYsADiJ1kDRbqRyXAlgkeWIPBYpZSkA4MQMWAAwB9ODl90VKf5ZCWAR/f3sYPMBGQDg5AxYADBHOXcujoijSgCL4JX+RmerDAAwNwYsAJij1lDxSOT4tBLAwqWr7lpXPK0DAMyNAQsA5mFN7hQR8YwSwAL8Oq9uXycDAMydAQsA5mHnSHEg5yiUAE5Zjk2tgeKwEAAwdwYsAJin8x7o3BwR+5QA5itHmp0dnvqaEgAwPwYsAJinoijKaOSLIyKrAcxDJ0U5LgMAzJ8BCwBOwey65n0px1eVAObhM7NDzR/KAADzZ8ACgFPUbqSNEfGaEsAcvJSPdZoyAMCpMWABwCnaMzj5RE7ZncSAk8oRl7c2FM8rAQCnxoAFAAvwjqPlVRHxuBLA8eWfHVz7nht0AIBTZ8ACgAW4fUPxWoo0qQRwPCnljfvO/uAxJQBgAa+nEgDAAuWcBnZt3xMR7xcDeNPJ9jdnhqY2KAEAC+MKLABY8DvUlCPlsYgoxQBe51jOsUkGAFg4AxYALILZwea+iLhVCeAPUsT1s8NTP1cCABbOgAUAi/Wi2t+4NCIOKAFExHPl6s52GQBgkc61JQCAxTF9/sSzEelqJYAUMdkaKF5WAgAWhwELABbR2gPta1PEL5WAnvaDMw+89/MyAMDiMWABwCLaMVoczTm2KAE9rMxjO0ZHO0IAwOIxYAHAIpsdnvpajnSXEtCTvjw70rxbBgBYXAYsAFgCKcrxiGgrAT31hX8o585mIQBg8RmwAGAJzA41H46Im5WAHpLj2tZw8RshAGDxGbAAYImsis5kRLygBPSAFE+dlta4CykALBEDFgAskV1DxYsp0nYloP5ypM13Dl7yqhIAsDQMWACwhMrV7U9FxI+VgPrKEXtb6ya+qAQALB0DFgAsodZA0c4R40pAbeVGpLFIKUsBAEvHgAUAS6w1NLU7In9LCaifFOnvZoYmv6MEACwtAxYALIMc5VhEHFECauWVvkZ7QgYAWHoGLABYBq2h4pEU8SkloD5SSlfeta54WgkAWHoGLABYJkeOrLo8Ip5RAmogp0fLVe2PCwEAy8OABQDL5L4LNx9MEU0loPpSxKbWQHFYCQBYHgYsAFhG59zf+Vzk+J4SUGE5ZmaGJ78uBAAsHwMWACyjoijK6MtjEZHVgErqNKIxLgMALC8DFgAss9l1zfsiYocSUEEp3TQ9PPEjIQBgeRmwAGAFdFLaFBGvKQGV8lI+2r5MBgBYfgYsAFgBewYnn4iIjyoBFZJT0dpQPC8EACw/AxYArJDDB864KiIeVwK6X4r46YGzzrpRCQBYGQYsAFghe0c3HsopbVMCul8ZsXHf2R88pgQArIwkAQCsoJzTwK7teyLi/WJAt36Z5ttbw82/UgIAVo4rsABgJaWUUzQujohSDOhKR/vK/k0yAMDKMmABwAqbGZr4for0BSWgC6X4xPT6bb8QAgBWlgELALrhPXJ/2hIRB5SArvJcX+O0K2UAgJVnwAKALjB9/sSzKaWrlIDukXNs233Blv1KAMDKM2ABQJc4c3/7uhTxSyVg5aWIB886+N5blACA7mDAAoAusWO0OBo5bVYCukBKYztGRztCAEB3MGABQBeZGZ78euS4UwlYOSnHl2YGJ/coAQDdw4AFAN324pz7xiOirQSsgBSHokxbhACALjtHlgAAusv0yLafREqfUQKWXyrjIzPrJx9TAgC6iwELALrQqtyeiogXlIBl9WR/Y801MgBA9zFgAUAX2jVUvBg5fUgJWD4pp0vvHLzkVSUAoPsYsACgS+U17RtSioeUgGX4eovYOzM08SUlAKA7GbAAoEu1Bop2LstxJWDJlY1IY5FSlgIAupMBCwC62OzwZdM559uVgKWUbpkZmvyODgDQvQxYANDtL9Y5jUfEESVgSRxsR5qUAQC6/JxYAgDobjMjU7+KFNcrAUshbb9naOK3OgBAdzNgAUAFHD286oqI8CYbFlNOj64p3/kJIQCg+xmwAKAC7rtw88EcuakELKIUG3eOXOTbcwGgAgxYAFAR591ffj5HfFcJWAQ5ZmaHJm8TAgCqwYAFABVRFEXZSGksIrIasCCdTpnHZACA6jBgAUCFzAxOfjsivqwEnLoc6cY965sPKQEA1WHAAoCqvfkuO5si4lUl4JS8FMfal8sAANViwAKAimmNFE+mHNcqAfOXIjdbG4rnlQCAajFgAUAFHTp4xtUR8ZgSMHcp4qf71/7ZTUoAQPUYsACggvaObjyUctqqBMxdzuX4vrM/eEwJAKieJAEAVPbdeDpv1/a7U8RfiAEn/YK5bXao+dc6AEA1uQILAKoqpVyW+eKIKMWAEzra6PRfKgMAVJcBCwAqbM9I88GIdIsScCL549Prt/1CBwCoLgMWAFTcaam9NSL2KwFv67m+vlUflgEAqs2ABQAVd+dg8VyOuEoJeBspb919wRYDLwBUnAELAGrgrAOdj0Vk3yIFr5MiHjx3b3mLEgBQi9d1AKAOBu7YfmFE/oYS8DuNyOdMDzXvUQIA6vC6DgDUwuzQ5G0RaZcSEBER/814BQD1YcACgDq9sJeNjRFxTAl6WopDqZO2CgEANTrPlQAA6mN6ZNtPcqSblKCX5YirZ9ZPPqYEANSHAQsAaqbd7mtGxPNK0KOeXBVrrpUBAOrFgAUANXPvB7a+lCJfrgS9KKe06c7BS15VAgDqxYAFADV05oH33ZhSPKQEPebbrXUTX5YBAOrHgAUANbRjdLQTEWNK0EPKRs5jkVKWAgDqx4AFADU1Mzg1E5FvU4JekCJ9fnq4+V0lAKCeDFgAUGN9/eXGiDiiBDV38FikpgwAUF8GLACosd3nF49G5E8oQa3luOKeoYnfCgEA9WXAAoCaO3pk9faI8OaeuvrVmvyu62UAgHozYAFAzd134eaDkfKkEtRRSml858hFvk0WAGrOgAUAPeDcveUtOcIPuKZm0vTM4OTtOgBA/RmwAKAHFEVR9uV8cURkNaiJdqdTjssAAL3BgAUAPWJ6uLk3Ir6kBLWQ8g171jcfEgIAeoMBCwB6SC47l0bEq0pQcS82+vo/JAMA9A4DFgD0kNZI8WROcY0SVFrOU9Pnb3tBCADoHQYsAOgxR/af8ZGIeEwJqin/JK8pP6MDAPQWAxYA9Ji9oxsP5Zy3KEEVpUYabw0UbSUAoMfOASQAgN40cMcVd0fEOUpQFTnlr7cGm/9JCQDoPa7AAoAe1SnzWER0lKAijpYpbZYBAHqTAQsAetSekeaDkeIWJaiCnPN1e9ZN/VIJAOhNBiwA6GGnRWdbROxXgi737Om5vEoGAOhdBiwA6GF3DhbPRY4rlaCb5Zy37BwpDigBAL3LgAUAPW7twc4nIvIvlKBLff+8B8ovyAAAvc1dCAGA+Mtd2zfknP9JCbpMbkQ+d3qoeY8UANDbXIEFAMTM4OTtEXGHEnSVHF80XgEAEQYsAOD3On2xMSKOKUFXSHGor7+zTQgAIMKABQD83p4Lpn4aKd+oBF0hx1W7LygeFwIAiDBgAQCvc+zYaUVEPK8EK+yJPz3W+agMAMAfGLAAgH917we2vpQjCiVYWXnT7RuK13QAAP7AgAUAvMFZB977XyPiR0qwInLcNzs4tUMIAOD1DFgAwBvsGB3tpBTjSrACytyXxiKlLAUA8HoGLADgLWYGp2ZSxDeUYJl9rrVu8nsyAABvZsACAN7+JKG/8zcRcVgJlsnB3Ok0ZQAA3vbcVAIA4O3sPr94NOf8cSVYDjni8tb64hklAIC3Y8ACAI5vTXllRDwtBEsrPXJ6+a5P6QAAHI8BCwA4rtZA8UrOeUIJllYa2zly0REdAIDjMWABACd03gPlFyLiO0qwRHbPDk18SwYA4EQMWADACRVFUTZyHouIrAaLrJ1TY1wGAOBkDFgAwElNDzf3Ro4vKsFiypE/1Rqc+LESAMDJGLAAgDlJ7bQ5Il5VgkXyYl9//3YZAIC5MGABAHMys2HyqYj0ESVYDCnF5PT5215QAgCYCwMWADBnhw/8yTUR6TdKsEAPl6s6N8sAAMyVAQsAmLO9oxsPRZSblWBBJ6CpHG8NFG0lAIC5ShIAAPM1sOuKVuQ4VwlOwddmh6b+LxkAgPlwBRYAMG85NcYioqME83S004gtMgAA82XAAgDmrbVu4gcR8XklmJ987Z51U7/UAQCYLwMWAHBKTkudyYh4WQnm6Nk1ZXm1DADAqTBgAQCn5M7B4rkcsV0J5iZfunOkOKADAHAqDFgAwCk760DnkxHxcyU4iX3n3l/eKgMAcKrchRAAWJDzdl3xgZTjdiU4jpxzOqc1PHmvFADAqXIFFgCwIK3BqW/myDuV4DhuNV4BAAtlwAIAFi71b4yIY0LwJq/19XUmZQAAFsqABQAsWGtw289SxA1K8Hopp6t2X1A8rgQAsFAGLABgURxt918eEc8rwe89cUa7fZ0MAMBiMGABAIvi3g9sfSmlaCpBREROsfH2DcVrSgAAi8GABQAsmjP3v/czEfFDJXpcjvta6ya/KgQAsFgMWADAotkxOtppRDmuRE8ro5EvjpSyFADAYjFgAQCLanrostmI+JoSPSrFzbODzX1CAACLyYAFACy6TopNEXFYiZ5zILc7hQwAwGIzYAEAi27P4NSvI7I70PWaFEVrffGMEADAYjNgAQBLIq8ur4qIp5XoFemRNZ133aADALAUDFgAwJJoDRSv5JS2KdEjcr5458hFR4QAAJZCkgAAWDI5p4Fd2/dGxJ+LUePDHOmu1tDkOiUAgKXiCiwAYOmklHOZxiIii1Fb7RTluAwAwFIyYAEAS6o1Mnl/SvEPStRUjk/ODjUfFgIAWEoGLABg6R1NWyLiFSFq58VVqbNdBgBgqRmwAIAlN7Nh8qmU09VK1EvOsW3XUPGiEgDAUjNgAQDLolzTvjYifq1EbTwcazqfkwEAWA4GLABgWbQGisM5xaVK1OQkMpXjrYGirQQAsBySBADAchq444rZiDhPiQqfQOb4yszw1P+jBACwXFyBBQAsszwWER0dKutwu+FKOgBgeRmwAIBlNTvU/GGk+KwS1ZRTvnbP4JSfZQYALCsDFgCw7NqdvqmIeFmJiknxVKwq3U0SAFh2BiwAYNndM7LtXyKnK5SolpTT1tZA8YoSAMByM2ABACsir2lfHxEPK1ERKe6fGZy4VQgAYCUYsACAFdEaKNqNVI4rUQk5Io9FSlkKAGAlGLAAgBUzPXjZXTnyTiW63t/PDjYfkAEAWCkGLABghZUXRcRRHbrWK/2NzlYZAICVZMACAFZUa6h4JHJ8Wolula66a13xtA4AwEoyYAEAK25N7hQR8YwSXefXeXX7OhkAgJVmwAIAVtzOkeJAzlEo0WVybGoNFIeFAABWmgELAOgK5z3QuTki9inRHXKk2dnhqa8pAQB0AwMWANAViqIoc05jEZHVWHGdFOW4DABAtzBgAQBdozU8eW/K8VUlVtxnZoeaP5QBAOgWBiwAoKu0G2ljRLymxIp5OR/rNGUAALqJAQsA6Cp7BiefSBEfU2JlpEiXtzYUzysBAHQTAxYA0HXOONb5cEQ8rsRyyz/bv/asT+sAAHQbAxYA0HVu31C8liJNKrG8Usob9539wWNKAABdd54iAQDQlXJOA3dsvydS/EcxliX4t2aHmh/QAQDoRq7AAgC6U0o5GvniiCjFWHLHIqe/kQEA6FYGLACga80ONvdFxK1KLK0Ucf3s8NTPlQAAupUBCwDo7pOV/salEXFAiSXzXLm6s10GAKCrzwklAAC62fT5E89GpKuVWBopYrI1ULysBADQzQxYAEDXW1O+86MR6RElFt0Pzjzw3s/LAAB0OwMWAND1do5cdCQitiixyMo8tmN0tCMEANDtDFgAQCXMDk1+NUe6S4lF8+XZkebdMgAAVWDAAgAqI0U5HhFtJRbscM6dzTIAAFVhwAIAKmN2qPlwjvRZJRbsmtZw8RsZAICqMGABAJWyOtoTEfGCEqcoxVOnpTXu6ggAVIoBCwColF1DxYsp0nYlTk2OtPnOwUteVQIAqBIDFgBQOeXq9qci4sdKzFOK+1vrJr4oBABQNQYsAKByWgNFO0eMKzEvOeV0caSUpQAAqsaABQBUUmtoandE/pYSc5Mi/d3M0OR3lAAAqsiABQBUVo5yLCKOKHFSr/Q12hMyAABVZcACACqrNVQ8kiI+pcSJpZSuvGtd8bQSAEBVGbAAgEo7cmTV5RHxjBLHkdOj5ar2x4UAAKrMgAUAVNp9F24+GClfpsTbSxGbWgPFYSUAgCozYAEAlXfu3vKzkeN7SrxJjpmZ4cmvCwEAVJ0BCwCovKIoyujLYxGR1fhXnUY0xmUAAOrAgAUA1MLsuuZ9keIrSvxeSjdND0/8SAgAoA4MWABAbXQi/U1EvKZEvJSPtv1cMACgNgxYAEBt7BmcfCIiPtrzIXIqWhuK5/2JAADqwoAFANTK4QNnXBURj/fq808RPz1w1lk3+pMAANSJAQsAqJW9oxsP5ZS29erzLyM27jv7g8f8SQAA6iRJAADUTs5pYNf2PRHx/t562vn21nDzr/wBAADqxhVYAED9pJRTNC6OiLKHnvXRvrJ/k4MPANSRAQsAqKWZoYnvp0hf6JknnOIT0+u3/cKRBwDqyIAFANRW6k9bIuJADzzV5/oap13piAMAdWXAAgBqa/r8iWcjx3+p+/PMkSd2X7BlvyMOANSVAQsAqLW1BzsfTRG/rOvzSxEPnnXgfX/rSAMAdWbAAgBqbcdocTRy2lzbJ5jS2I7R0Y4jDQDUmQELAKi9meHJr0eOO2v41P5xZnByjyMMANSdAQsA6I2Tntw3HhHt2jyhFIdy7mxxZAGAnjiXkwAA6AXTI9t+Eil9pi7PJ5XxkdZw8RtHFgDoBQYsAKBnrMrtqYh4oQZP5cn+xpprHFEAoFcYsACAnrFrqHgxcvpQ1Z9HyunSOwcvedURBQB6hQELAOgpeU37hoj4cWUff8TemaGJLzmSAEAvMWABAD2lNVC0I5djFX34ZSPSWKSUHUkAoJcYsACAnjM7fNl0zvn26j3ydMvM0OR3HEEAoNcYsACA3jwJymk8Io5U6CEfbEeadOQAgJ48d5MAAOhFMyNTv8o5f7IqjzdHXHnP0MRvHTkAoBcZsACAnnXs6OoPRUT3j0I5PXp6+a6PO2IAQK8yYAEAPeu+CzcfzJGbXf9AU2zcOXLREUcMAOhVBiwAoKedd3/5+cjxva59gDlmZocmb3OkAIBeZsACAHpaURRlaqSLIyJ34cPrdMo85igBAL3OgAUA9LyZwclvR8SXu+1x5Ug37lnffMgRAgB6nQELACAictnZFBGvdtFDeimOtS93ZAAADFgAABER0Ropnkw5ru2Wx5MiN1sbiucdGQAAAxYAwL86dPCMqyPisZV+HCnip/vX/tlNjggAwO8YsAAAfm/v6MZDEXnbSj+OnMvxfWd/8JgjAgDwO0kCAIDXyTmdt2v73SniL1boAdw2O9T8awcCAOCPXIEFAPB6KeWyzBdHRLkCn/1oo9N/qYMAAPBGBiwAgDfZM9J8MCL+bvk/c/749Pptv3AEAADeyIAFAPB2J0n9ja0RsX8ZP+VzfX2rPqw8AMDbnJtJAADwVtPnTzybI65atk+Y8tbdF2zZrzwAwFsZsAAAjuOsA52PReQl/5a+FPHguXvLWxQHADju+RIAAMczcMf2CyPyN5byczQinzM91LxHbQCA450vAQBwXLNDk7dFpF1L+Cn+m/EKAODEDFgAACc7YSobGyPi2KJ/4BSHUidtVRgA4CTnYxIAAJzY9Mi2n+RINy32x80RV8+sn3xMYQCAEzNgAQDMQbvd14yIFxbxQz65KtZcqywAwMkZsAAA5uDeD2x9KaW4fLE+Xs75kjsHL3lVWQCAkzNgAQDM0Zn733tDSvHQInyob7eGpv5RUQCAuTFgAQDM0Y7R0U5EjC3ww5SNnMcipawoAMDcGLAAAOZhZnBqJiL+6ZQ/QIq/nR5ufldJAIC5M2ABAMxTKmNjRBw5hf/0YDs3phQEAJgfAxYAwDzNjEz9KiJ/Yt7/YY4r7hma+K2CAADzY8ACADgFR4+s3h4R8xmjfrUmv+t65QAA5s+ABQBwCu67cPPBSHlyrr8/pTS+c+SiI8oBAMyfAQsA4BSdu7e8JUfM4Qeyp+mZwcnbFQMAODUGLACAU1QURdmX88URkU/w29qdTjmuFgDAqTNgAQAswPRwc29EfOm4vyHlG/asbz6kFADAqTNgAQAsUC47l0bEq2/zr15q9PV/SCEAgIUxYAEALFBrpHgy5bj2zb+eI6amz9/2gkIAAAtjwAIAWASHDp5xdUQ89sdfyT+J1Z2blAEAWDgDFgDAItg7uvFQznnLH/45NdJ4a6BoKwMAAABAVxm444q7//KOK76uBADA4umXAABg8aRojEdZ7lcCAGDx/P8814mRFEaM2gAAACV0RVh0ZGF0ZTpjcmVhdGUAMjAyMi0xMi0xM1QwMDoxNzoyNCswMDowMAhJCqMAAAAldEVYdGRhdGU6bW9kaWZ5ADIwMjItMTItMTNUMDA6MTc6MjQrMDA6MDB5FLIfAAAAAElFTkSuQmCC;" vertex="1" parent="1">
                    <mxGeometry x="385" y="165.34" width="80" height="69.33" as="geometry"/>
                </mxCell>
                <mxCell id="7" style="edgeStyle=none;html=1;entryX=0.5;entryY=1;entryDx=0;entryDy=0;startArrow=none;startFill=0;" edge="1" parent="1" source="5" target="3">
                    <mxGeometry relative="1" as="geometry"/>
                </mxCell>
                <mxCell id="8" value="simuler le pinia store existant" style="edgeLabel;html=1;align=center;verticalAlign=middle;resizable=0;points=[];" vertex="1" connectable="0" parent="7">
                    <mxGeometry x="-0.2897" y="1" relative="1" as="geometry">
                        <mxPoint as="offset"/>
                    </mxGeometry>
                </mxCell>
                <mxCell id="5" value="PiniaTesting" style="shape=image;verticalLabelPosition=bottom;labelBackgroundColor=default;verticalAlign=top;aspect=fixed;imageAspect=0;image=data:image/svg+xml,PHN2ZyB4bWxuczp4bGluaz0iaHR0cDovL3d3dy53My5vcmcvMTk5OS94bGluayIgeG1sbnM9Imh0dHA6Ly93d3cudzMub3JnLzIwMDAvc3ZnIiB3aWR0aD0iMzE5IiB2aWV3Qm94PSIwIDAgMzE5IDQ3NyIgaGVpZ2h0PSI0NzciPjxsaW5lYXJHcmFkaWVudCBpZD0iYSI+PHN0b3Agc3RvcC1jb2xvcj0iIzUyY2U2MyIgb2Zmc2V0PSIwIi8+PHN0b3Agc3RvcC1jb2xvcj0iIzUxYTI1NiIgb2Zmc2V0PSIxIi8+PC9saW5lYXJHcmFkaWVudD48bGluZWFyR3JhZGllbnQgeTI9IjQyLjg2Mjg1NSUiIHkxPSIwJSIgeGxpbms6aHJlZj0iI2EiIHgyPSI0Mi44MTY5MzMlIiB4MT0iNTUuMzQyMDc1JSIgaWQ9ImIiLz48bGluZWFyR3JhZGllbnQgeTI9IjQyLjg2Mjg1NSUiIHkxPSIwJSIgeGxpbms6aHJlZj0iI2EiIHgyPSI0Mi44MDgxMDMlIiB4MT0iNTUuMzQ4NjQyJSIgaWQ9ImMiLz48bGluZWFyR3JhZGllbnQgeTI9IjU4LjgxMTI0MyUiIHkxPSIwJSIgeDI9IjUwJSIgeDE9IjUwJSIgaWQ9ImQiPjxzdG9wIHN0b3AtY29sb3I9IiM4YWU5OWMiIG9mZnNldD0iMCIvPjxzdG9wIHN0b3AtY29sb3I9IiM1MmNlNjMiIG9mZnNldD0iMSIvPjwvbGluZWFyR3JhZGllbnQ+PGxpbmVhckdyYWRpZW50IHkyPSIxMDAlIiB5MT0iMTcuNDcyNTUxJSIgeDI9IjQ0LjU4NDcxOSUiIHgxPSI1MS4zNzc2MyUiIGlkPSJlIj48c3RvcCBzdG9wLWNvbG9yPSIjZmZlNTZjIiBvZmZzZXQ9IjAiLz48c3RvcCBzdG9wLWNvbG9yPSIjZmZjNjNhIiBvZmZzZXQ9IjEiLz48L2xpbmVhckdyYWRpZW50PjxnIHRyYW5zZm9ybT0idHJhbnNsYXRlKC0zNCAtMjQpIiBmaWxsLXJ1bGU9ImV2ZW5vZGQiIGZpbGw9Im5vbmUiPjxnIHRyYW5zZm9ybT0ibWF0cml4KC45OTI1NDYxNSAuMTIxODY5MzQgLS4xMjE4NjkzNCAuOTkyNTQ2MTUgMzMuOTIyMDczIC45NzY2OTEpIj48cGF0aCB0cmFuc2Zvcm09Im1hdHJpeCguNzA3MTA2NzggLS43MDcxMDY3OCAuNzA3MTA2NzggLjcwNzEwNjc4IC04MC40OTYzMzIgMTI1Ljg5Mjk0NCkiIGZpbGw9InVybCgjYikiIGQ9Im0xMDMuOTUwNTM1IDI1OC4yNzQxNDljNDQuMzYxNTk5LTQuMzYwODI1IDYwLjAxNDUwMy00MC4zOTEyODIgNjUuMzUzMDk0LTk0LjY5OTQ0NHMtMzAuOTMyMTktMTAzLjQ1MTAwMS00Ni4wMjAzNDctMTAxLjk2NzgwNzljLTE1LjA4ODE1NiAxLjQ4MzE5MzItNjMuMDM4NTMxMyA1OC45MDUxMjM5LTY4LjM3NzEyMjIgMTEzLjIxMzI4NjktNS4zMzg1OTA4IDU0LjMwODE2MiA0LjY4Mjc3NTQgODcuODE0NzkxIDQ5LjA0NDM3NTIgODMuNDUzOTY1eiIvPjxwYXRoIHRyYW5zZm9ybT0ibWF0cml4KC43MDcxMDY3OCAuNzA3MTA2NzggLS43MDcxMDY3OCAuNzA3MTA2NzggMTkxLjQwMzM5OSAtMTQxLjg2MTk2MykiIGZpbGw9InVybCgjYykiIGQ9Im0yNzUuODc2NzUyIDI1OC4yNzM5OTJjNDQuMzYxNiA0LjM2MDgyNiA1My4xNjcxMzMtMjkuMjY1MzIyIDQ3LjgyODU0Mi04My41NzM0ODUtNS4zMzg1OTEtNTQuMzA4MTYyLTUyLjA3MzEzMy0xMTEuNjEwNTc0NC02Ny4xNjEyOS0xMTMuMDkzNzY3NS0xNS4wODgxNTYtMS40ODMxOTMxLTUyLjU3NDc3IDQ3LjU0MDEyNzUtNDcuMjM2MTc5IDEwMS44NDgyODk1czIyLjIwNzMyOCA5MC40NTgxMzcgNjYuNTY4OTI3IDk0LjgxODk2M3oiLz48cGF0aCBmaWxsPSJ1cmwoI2QpIiBkPSJtMTg4LjM3MDAyNyAyMTYuODc2MzA1YzM5Ljk0MTgzNCAwIDUwLjk1MjY1LTM4LjI1MTk4NyA1MC45NTI2NS05Ny44OTg3NCAwLTU5LjY0Njc1MzItMzcuMzY3NzMzLTExOC4xMDEyNTk1Ni01MC45NTI2NS0xMTguMTAxMjU5NTZzLTUyLjA0NzM1IDU4LjQ1NDUwNjM2LTUyLjA0NzM1IDExOC4xMDEyNTk1NmMwIDU5LjY0Njc1MyAxMi4xMDU1MTYgOTcuODk4NzQgNTIuMDQ3MzUgOTcuODk4NzR6Ii8+PC9nPjxwYXRoIGZpbGw9InVybCgjZSkiIGQ9Im0xODQuNDczNDczIDUwMWM4My4xMTg4NTQgMCAxNTAuNTI2NTI3LTI0LjE0NTE0OCAxNTAuNTI2NTI3LTEzMy42NDUxNDhzLTY3LjQwNzY3My0xOTkuMzU0ODUyLTE1MC41MjY1MjctMTk5LjM1NDg1MmMtODMuMTE4ODU1IDAtMTUwLjQ3MzQ3MyA4OS44NTQ4NTItMTUwLjQ3MzQ3MyAxOTkuMzU0ODUyczY3LjM1NDYxOCAxMzMuNjQ1MTQ4IDE1MC40NzM0NzMgMTMzLjY0NTE0OHoiLz48ZWxsaXBzZSByeT0iMTAiIHJ4PSIyMS41IiBmaWxsPSIjZWFhZGNjIiBjeT0iMzM1IiBjeD0iMjYwLjUiLz48ZWxsaXBzZSB0cmFuc2Zvcm09Im1hdHJpeCguOTkyNTQ2MTUgLjEyMTg2OTM0IC0uMTIxODY5MzQgLjk5MjU0NjE1IDQwLjg1OTAzMyAtMTAuMDM5MjkyKSIgcnk9IjEwIiByeD0iMjEuNSIgZmlsbD0iI2VhYWRjYyIgY3k9IjMyOSIgY3g9IjEwMi41Ii8+PGcgdHJhbnNmb3JtPSJtYXRyaXgoLS45OTkzOTA4MyAuMDM0ODk5NSAuMDM0ODk5NSAuOTk5MzkwODMgMjY5LjI4NDgyNSAyNzEuMDI3NjY3KSI+PHBhdGggdHJhbnNmb3JtPSJtYXRyaXgoLjk5OTg0NzcgLjAxNzQ1MjQxIC0uMDE3NDUyNDEgLjk5OTg0NzcgMS4wMjY0NjQgLTEuNjI0Nzk0KSIgc3Ryb2tlLXdpZHRoPSI2IiBzdHJva2UtbGluZWpvaW49InJvdW5kIiBzdHJva2UtbGluZWNhcD0icm91bmQiIHN0cm9rZT0iIzAwMCIgZD0ibTczLjEwNDY5ODUgNTguMjcyODc5NGM2LjczNzI0MTYgNC45MTMwMzMzIDE0LjMxMzI2MzIgNi42NjQwNTg3IDIyLjcyODA2NDkgNS4yNTMwNzYxIDguNDE0ODAxNi0xLjQxMDk4MjUgMTQuNTA1NDQ2Ni01LjI1MzU3NjkgMTguMjcxOTM0Ni0xMS41Mjc3ODMiLz48cGF0aCBmaWxsPSIjMDAwIiBkPSJtMTU0LjUwMTEyNCAzYy01LjkzNzU0NSAwLTExLjMxMjc4MiAyLjQwNjI5ODA1LTE1LjIwMzY0NCA2LjI5NjgwNjIxLTMuODkwOTQgMy44OTA1ODUyOS02LjI5NzQ4IDkuMjY1NDU0NDktNi4yOTc0OCAxNS4yMDI2MzE3OSAwIDUuOTM3Njg4OCAyLjQwNjQ4OCAxMS4zMTI3NDIyIDYuMjk3MjkxIDE1LjIwMzQyNzIgMy44OTA4ODYgMy44OTA3NjczIDkuMjY2MTk3IDYuMjk3MTM0OCAxNS4yMDM4MzMgNi4yOTcxMzQ4IDUuOTM3MTA5IDAgMTEuMzExODk2LTIuNDA2Mzg4OSAxNS4yMDIzODctNi4yOTcyMzQ4IDMuODkwMjk5LTMuODkwNjUzNSA2LjI5NjQ4OS05LjI2NTY2MzYgNi4yOTY0ODktMTUuMjAzMzI3MiAwLTUuOTM3MTUyMS0yLjQwNjI0Mi0xMS4zMTE5NzgxLTYuMjk2Njc3LTE1LjIwMjUzMTgxLTMuODkwNDY5LTMuODkwNTg2NzQtOS4yNjUxODEtNi4yOTY5MDYxOS0xNS4yMDIxOTktNi4yOTY5MDYxOXoiLz48cGF0aCBmaWxsPSIjZmZmIiBkPSJtMTU0IDIxYzAtMy44NjU1NDkgMy4xMzUzNjItNyA2Ljk5OTQxMy03IDMuODY2Mzk5IDAgNy4wMDA1ODcgMy4xMzQ0NTEgNy4wMDA1ODcgN3MtMy4xMzQxODggNy03LjAwMDU4NyA3Yy0zLjg2NDA1MS0uMDAxMTczNS02Ljk5OTQxMy0zLjEzNDQ1MS02Ljk5OTQxMy03eiIvPjxwYXRoIGZpbGw9IiMwMDAiIGQ9Im0yNC41IDEzYy01LjkzNzUyOTIgMC0xMS4zMTI0MjYgMi40MDYyNjgtMTUuMjAyOTk0MjcgNi4yOTY3MTgxLTMuODkwNjk0NjQgMy44OTA1NzY1LTYuMjk3MDA1NzMgOS4yNjU0NzY1LTYuMjk3MDA1NzMgMTUuMjAyNzE5OSAwIDUuOTM3NzU0OSAyLjQwNjI1OTYyIDExLjMxMjgzOTEgNi4yOTY4MTc2NiAxNS4yMDM1MTUzIDMuODkwNTkxMDQgMy44OTA3MDkyIDkuMjY1NTYxODQgNi4yOTcwNDY3IDE1LjIwMzE4MjM0IDYuMjk3MDQ2NyA1LjkzNzEyNDkgMCAxMS4zMTIyNTE0LTIuNDA2NDE5IDE1LjIwMzAzNzEtNi4yOTczMjI5IDMuODkwNTQ0MS0zLjg5MDY2MjMgNi4yOTY5NjI5LTkuMjY1NjQxNiA2LjI5Njk2MjktMTUuMjAzMjM5MSAwLTUuOTM3MDg2LTIuNDA2NDcwMy0xMS4zMTE4ODExLTYuMjk3MTUxLTE1LjIwMjQ0MzctMy44OTA3NjMtMy44OTA2NDQ4LTkuMjY1ODE1NC02LjI5Njk5NDMtMTUuMjAyODQ5LTYuMjk2OTk0M3oiLz48ZyBmaWxsPSIjZmZmIj48cGF0aCBzdHJva2Utd2lkdGg9IjMiIHN0cm9rZT0iI2ZmZiIgZmlsbC1ydWxlPSJub256ZXJvIiBkPSJtMTM2IDI0LjQ5OTQzOGMwIDEwLjIxODUyMzIgOC4yODI5MTEgMTguNTAwNTYyIDE4LjUwMTEyNCAxOC41MDA1NjIgMTAuMjE3MDg5IDAgMTguNDk4ODc2LTguMjgyMDM4OCAxOC40OTg4NzYtMTguNTAwNTYyIDAtMTAuMjE3Mzk5Mi04LjI4MTc4Ny0xOC40OTk0MzgtMTguNDk4ODc2LTE4LjQ5OTQzOC0xMC4yMTgyMTMgMC0xOC41MDExMjQgOC4yODIwMzg4LTE4LjUwMTEyNCAxOC40OTk0Mzh6bS02IDBjMC0xMy41MzExOTU0IDEwLjk2OTI5LTI0LjQ5OTQzOCAyNC41MDExMjQtMjQuNDk5NDM4IDEzLjUzMDgzOCAwIDI0LjQ5ODg3NiAxMC45NjgzNzExIDI0LjQ5ODg3NiAyNC40OTk0MzggMCAxMy41MzE5NjA3LTEwLjk2NzgwOCAyNC41MDA1NjItMjQuNDk4ODc2IDI0LjUwMDU2Mi0xMy41MzIwNjQgMC0yNC41MDExMjQtMTAuOTY4NDcyOC0yNC41MDExMjQtMjQuNTAwNTYyeiIvPjxwYXRoIHN0cm9rZS13aWR0aD0iMyIgc3Ryb2tlPSIjZmZmIiBmaWxsLXJ1bGU9Im5vbnplcm8iIGQ9Im02IDM0LjQ5OTQzOGMwIDEwLjIxODUyMzIgOC4yODE3ODczIDE4LjUwMDU2MiAxOC41IDE4LjUwMDU2MiAxMC4yMTcwODg5IDAgMTguNS04LjI4MjAzODggMTguNS0xOC41MDA1NjIgMC0xMC4yMTczOTkyLTguMjgyOTExMS0xOC40OTk0MzgtMTguNS0xOC40OTk0MzgtMTAuMjE4MjEyNyAwLTE4LjUgOC4yODIwMzg4LTE4LjUgMTguNDk5NDM4em0tNiAwYzAtMTMuNTMxMjk3IDEwLjk2ODI2ODEtMjQuNDk5NDM4IDI0LjUtMjQuNDk5NDM4IDEzLjUzMDkzOTggMCAyNC41IDEwLjk2ODQ3MjggMjQuNSAyNC40OTk0MzggMCAxMy41MzE4NTkxLTEwLjk2ODgzIDI0LjUwMDU2Mi0yNC41IDI0LjUwMDU2Mi0xMy41MzE5NjIgMC0yNC41LTEwLjk2ODM3MTEtMjQuNS0yNC41MDA1NjJ6Ii8+PHBhdGggZD0ibTI0IDMxYzAtMy44NjU1NDkgMy4xMzQ0NTEtNyA3LTdzNyAzLjEzNDQ1MSA3IDctMy4xMzQ0NTEgNy03IDctNy0zLjEzNDQ1MS03LTd6Ii8+PC9nPjwvZz48ZyBzdHJva2Utd2lkdGg9IjExIiBzdHJva2UtbGluZWNhcD0icm91bmQiPjxnIHN0cm9rZT0iI2VjYjczMiI+PHBhdGggZD0ibTcwLjUgMzc3LjUgNzQgNzciLz48cGF0aCBkPSJtMTM0LjUgMzg2LjUtNDcgNTAiLz48L2c+PGcgdHJhbnNmb3JtPSJtYXRyaXgoLTEgMCAwIDEgMjk4IDM3NykiIHN0cm9rZT0iI2VjYjczMiI+PHBhdGggZD0ibS41LjUgNzQgNzciLz48cGF0aCBkPSJtNjQuNSA5LjUtNDcgNTAiLz48L2c+PGcgdHJhbnNmb3JtPSJtYXRyaXgoMCAxIC0xIDAgMjE1IDIwNykiIHN0cm9rZT0iI2ZmYzczYiI+PHBhdGggZD0ibS41LjUgNDkgNDkiLz48cGF0aCB0cmFuc2Zvcm09Im1hdHJpeCgtMSAwIDAgMSA1MCAwKSIgZD0ibS41IDEwLjUgNDkgNDkiLz48L2c+PC9nPjwvZz48L3N2Zz4=;" vertex="1" parent="1">
                    <mxGeometry x="209.81" y="320" width="60.19" height="90" as="geometry"/>
                </mxCell>
                <mxCell id="13" style="edgeStyle=orthogonalEdgeStyle;html=1;exitX=0.5;exitY=0;exitDx=0;exitDy=0;startArrow=classic;startFill=1;endArrow=none;endFill=0;rounded=0;" edge="1" parent="1" source="3">
                    <mxGeometry relative="1" as="geometry">
                        <mxPoint x="280" y="140" as="targetPoint"/>
                        <Array as="points">
                            <mxPoint x="240" y="140"/>
                        </Array>
                    </mxGeometry>
                </mxCell>
                <mxCell id="15" value="Exécuter les scénarios et tester les résultats" style="edgeLabel;html=1;align=center;verticalAlign=middle;resizable=0;points=[];" vertex="1" connectable="0" parent="13">
                    <mxGeometry x="0.6654" y="-1" relative="1" as="geometry">
                        <mxPoint as="offset"/>
                    </mxGeometry>
                </mxCell>
            </root>
        </mxGraphModel>
    </diagram>
</mxfile>